<svg xmlns="http://www.w3.org/2000/svg" xmlns:xlink="http://www.w3.org/1999/xlink" width="100.129" height="113.873" viewBox="0 0 100.129 113.873">
  <defs>
    <clipPath id="clip-path">
      <path id="Path_707" data-name="Path 707" d="M77.62-900.751A38.62,38.62,0,0,1,39-862.132,38.619,38.619,0,0,1,.382-900.751,38.619,38.619,0,0,1,39-939.37,38.619,38.619,0,0,1,77.62-900.751" transform="translate(-0.382 939.37)" fill="#d3e7ef" clip-rule="evenodd"/>
    </clipPath>
    <clipPath id="clip-path-2">
      <path id="Path_706" data-name="Path 706" d="M-280-1100.648h123.353V-1224H-280Z" transform="translate(280 1224)" fill="#d3e7ef"/>
    </clipPath>
    <clipPath id="clip-path-3">
      <path id="Path_723" data-name="Path 723" d="M11.255,16.575,4.3,21.409,6.747,13.3,0,8.177,8.469,8l2.786-8,2.786,8,8.469.178L15.764,13.3l2.448,8.11Z" transform="translate(0 0)" fill="#46829a" clip-rule="evenodd"/>
    </clipPath>
    <clipPath id="clip-path-4">
      <path id="Path_727" data-name="Path 727" d="M6.183,9.106,2.362,11.761,3.707,7.306,0,4.492l4.653-.1L6.183,0,7.714,4.395l4.653.1L8.66,7.306,10,11.761Z" transform="translate(0 0)" fill="#46829a" clip-rule="evenodd"/>
    </clipPath>
    <clipPath id="clip-path-6">
      <path id="Path_735" data-name="Path 735" d="M7.973,11.741,3.045,15.166,4.779,9.421,0,5.793l6-.126L7.973,0,9.947,5.667l6,.126L11.167,9.421,12.9,15.166Z" transform="translate(0 0)" fill="#46829a" clip-rule="evenodd"/>
    </clipPath>
    <clipPath id="clip-path-7">
      <path id="Path_753" data-name="Path 753" d="M7.463,10.991,2.851,14.2,4.474,8.819,0,5.423,5.616,5.3,7.463,0,9.311,5.3l5.616.118-4.474,3.4L12.076,14.2Z" transform="translate(0 0)" fill="#fff" clip-rule="evenodd"/>
    </clipPath>
    <clipPath id="clip-path-8">
      <path id="Path_757" data-name="Path 757" d="M6.275,9.24,2.4,11.935,3.761,7.414,0,4.559l4.721-.1L6.275,0,7.828,4.46l4.721.1L8.788,7.414l1.365,4.521Z" transform="translate(0 0)" fill="#fff" clip-rule="evenodd"/>
    </clipPath>
    <clipPath id="clip-path-9">
      <path id="Path_759" data-name="Path 759" d="M12.508,18.42,4.778,23.792,7.5,14.78,0,9.088l9.412-.2L12.508,0l3.1,8.89,9.412.2-7.5,5.692,2.72,9.012Z" transform="translate(0 0)" fill="#6dafc8" clip-rule="evenodd"/>
    </clipPath>
  </defs>
  <g id="Group_538" data-name="Group 538" transform="translate(-97.461 -356.346)">
    <ellipse id="Ellipse_167" data-name="Ellipse 167" cx="44.146" cy="4.559" rx="44.146" ry="4.559" transform="translate(97.655 461.102)" fill="#f8f7f7"/>
    <g id="Group_405" data-name="Group 405" transform="translate(103 387.985)" clip-path="url(#clip-path)">
      <g id="Group_404" data-name="Group 404" transform="translate(-23.057 -23.407)" clip-path="url(#clip-path-2)">
        <path id="Path_705" data-name="Path 705" d="M-4.618-944.37H73.443v78.061H-4.618Z" transform="translate(27.264 967.365)" fill="#d3e7ef"/>
      </g>
    </g>
    <g id="Group_414" data-name="Group 414" transform="matrix(0.799, 0.602, -0.602, 0.799, 179.612, 417.44)" clip-path="url(#clip-path-3)">
      <path id="Path_722" data-name="Path 722" d="M0,0H22.825V21.723H0Z" transform="translate(-0.157 -0.157)" fill="#46829a"/>
    </g>
    <g id="Group_416" data-name="Group 416" transform="matrix(0.799, 0.602, -0.602, 0.799, 158.76, 356.346)" clip-path="url(#clip-path-4)">
      <path id="Path_726" data-name="Path 726" d="M0,0H12.539V11.934H0Z" transform="translate(-0.086 -0.086)" fill="#46829a"/>
    </g>
    <g id="Group_417" data-name="Group 417" transform="matrix(0.799, 0.602, -0.602, 0.799, 108.76, 378.346)" clip-path="url(#clip-path-4)">
      <path id="Path_728" data-name="Path 728" d="M0,0H12.539V11.934H0Z" transform="translate(-0.086 -0.086)" fill="#46829a"/>
    </g>
    <g id="Group_420" data-name="Group 420" transform="matrix(0.799, 0.602, -0.602, 0.799, 181.809, 377.627)" clip-path="url(#clip-path-6)">
      <path id="Path_734" data-name="Path 734" d="M0,0H16.168V15.388H0Z" transform="translate(-0.111 -0.111)" fill="#46829a"/>
    </g>
    <g id="Group_429" data-name="Group 429" transform="translate(155.939 441.81) rotate(85)" clip-path="url(#clip-path-7)">
      <path id="Path_752" data-name="Path 752" d="M0,0H15.135V14.4H0Z" transform="translate(-0.104 -0.104)" fill="#fff"/>
    </g>
    <g id="Group_431" data-name="Group 431" transform="translate(130.894 399.375) rotate(85)" clip-path="url(#clip-path-8)">
      <path id="Path_756" data-name="Path 756" d="M0,0H12.724V12.11H0Z" transform="translate(-0.088 -0.088)" fill="#fff"/>
    </g>
    <g id="Group_432" data-name="Group 432" transform="translate(152.279 369.365) rotate(85)" clip-path="url(#clip-path-9)">
      <path id="Path_758" data-name="Path 758" d="M0,0H25.365V24.141H0Z" transform="translate(-0.174 -0.174)" fill="#6dafc8"/>
    </g>
    <path id="Path_764" data-name="Path 764" d="M6.574,0a6.574,6.574,0,0,1,6.574,6.574A10.2,10.2,0,0,1,6.574,8.781S1.842,8.745,0,6.574A6.574,6.574,0,0,1,6.574,0Z" transform="matrix(-0.602, -0.799, 0.799, -0.602, 105.375, 461.162)" fill="#ffc155"/>
    <path id="Path_765" data-name="Path 765" d="M0,0,4.966,49.83H20.929L24.849,0Z" transform="matrix(0.602, 0.799, -0.799, 0.602, 138.646, 411.663)" fill="#ff6c58"/>
    <path id="Path_766" data-name="Path 766" d="M13.256-2.3,11.534,54.278l2.457.018,3.1-56Z" transform="translate(137.419 399.803) rotate(47)" fill="#fff"/>
    <ellipse id="Ellipse_169" data-name="Ellipse 169" cx="16.473" cy="16.473" rx="16.473" ry="16.473" transform="matrix(0.602, 0.799, -0.799, 0.602, 155.122, 394.519)" fill="#ff953c"/>
    <path id="Path_767" data-name="Path 767" d="M6382.8,14788.181a27.628,27.628,0,0,0,17.8,22.919" transform="translate(-6239.299 -14382.1)" fill="none" stroke="#fff" stroke-linecap="round" stroke-width="3"/>
  </g>
</svg>
