<svg id="icon_appstore_iOS_40a" xmlns="http://www.w3.org/2000/svg" viewBox="0 0 120 40">
  <defs>
    <style>
      .cls-1 {
        fill: #a5a5a5;
      }

      .cls-2 {
        fill: #fff;
      }
    </style>
  </defs>
  <g id="icon_badge" transform="translate(0 0)">
    <path id="Path_77" data-name="Path 77" class="cls-1" d="M110.444,0H9.561c-.368,0-.731,0-1.1,0-.307,0-.612.008-.922.013a13.288,13.288,0,0,0-2.01.177A6.7,6.7,0,0,0,3.626.818,6.455,6.455,0,0,0,2,2,6.259,6.259,0,0,0,.822,3.618a6.588,6.588,0,0,0-.627,1.9,12.957,12.957,0,0,0-.18,2C.006,7.83,0,8.138,0,8.444V31.558c0,.31.006.611.015.922a12.957,12.957,0,0,0,.18,2,6.575,6.575,0,0,0,.627,1.9A6.208,6.208,0,0,0,2,38,6.291,6.291,0,0,0,3.626,39.18a6.733,6.733,0,0,0,1.906.631,13.53,13.53,0,0,0,2.01.177c.31.007.615.011.922.011.367,0,.73,0,1.1,0H110.444c.36,0,.727,0,1.087,0,.306,0,.619,0,.924-.011a13.352,13.352,0,0,0,2.006-.177,6.837,6.837,0,0,0,1.914-.631A6.3,6.3,0,0,0,118,38a6.4,6.4,0,0,0,1.185-1.614,6.591,6.591,0,0,0,.621-1.9,13.47,13.47,0,0,0,.186-2c0-.311,0-.611,0-.922.008-.363.008-.725.008-1.094V9.536c0-.366,0-.729-.008-1.092,0-.307,0-.614,0-.921a13.47,13.47,0,0,0-.186-2,6.6,6.6,0,0,0-.621-1.9,6.475,6.475,0,0,0-2.807-2.8,6.8,6.8,0,0,0-1.914-.627,13.116,13.116,0,0,0-2.006-.177c-.306,0-.619-.011-.924-.013-.36,0-.727,0-1.087,0Z" transform="translate(0 0)"/>
    <path id="Path_78" data-name="Path 78" class="cls-2" d="M8.466,39.125c-.306,0-.6,0-.907-.011a12.759,12.759,0,0,1-1.874-.163A5.912,5.912,0,0,1,4.023,38.4a5.42,5.42,0,0,1-1.4-1.017A5.322,5.322,0,0,1,1.6,35.99a5.711,5.711,0,0,1-.545-1.657,12.379,12.379,0,0,1-.167-1.875c-.006-.211-.015-.913-.015-.913V8.444s.009-.691.015-.895a12.336,12.336,0,0,1,.166-1.872A5.744,5.744,0,0,1,1.6,4.016a5.374,5.374,0,0,1,1.018-1.4A5.58,5.58,0,0,1,4.023,1.6a5.851,5.851,0,0,1,1.658-.544A12.656,12.656,0,0,1,7.562.887l.9-.012H111.524l.916.013a12.454,12.454,0,0,1,1.864.163,5.967,5.967,0,0,1,1.676.548,5.6,5.6,0,0,1,2.422,2.42,5.752,5.752,0,0,1,.537,1.649,12.962,12.962,0,0,1,.174,1.887c0,.283,0,.587,0,.89.008.375.008.732.008,1.092V30.465c0,.363,0,.718-.008,1.075,0,.325,0,.623,0,.93a12.692,12.692,0,0,1-.171,1.853,5.727,5.727,0,0,1-.542,1.67,5.645,5.645,0,0,1-2.422,2.408,5.89,5.89,0,0,1-1.673.55,12.613,12.613,0,0,1-1.874.163c-.294.007-.6.011-.9.011l-1.087,0Z" transform="translate(0.002 0)"/>
  </g>
  <g id="icon_apple" transform="translate(9.609 7.847)">
    <path id="_Path_" data-name="&lt;Path&gt;" class="cls-1" d="M25,19.889a5.146,5.146,0,0,1,2.451-4.318,5.268,5.268,0,0,0-4.15-2.244c-1.746-.183-3.439,1.045-4.329,1.045-.907,0-2.277-1.027-3.752-1a5.527,5.527,0,0,0-4.651,2.837c-2.011,3.482-.511,8.6,1.416,11.414.964,1.378,2.09,2.918,3.564,2.863,1.442-.06,1.981-.92,3.722-.92,1.725,0,2.23.92,3.734.885,1.548-.025,2.523-1.384,3.453-2.776a11.4,11.4,0,0,0,1.579-3.216A4.973,4.973,0,0,1,25,19.889Z" transform="translate(-9.609 -7.847)"/>
    <path id="_Path_2" data-name="&lt;Path&gt;" class="cls-1" d="M22.156,11.477a5.067,5.067,0,0,0,1.159-3.63A5.155,5.155,0,0,0,19.98,9.573a4.821,4.821,0,0,0-1.189,3.5A4.263,4.263,0,0,0,22.156,11.477Z" transform="translate(-9.609 -7.847)"/>
  </g>
  <g id="App_Store" data-name="App Store" transform="translate(34.427 17.871)">
    <path id="Path_79" data-name="Path 79" class="cls-1" d="M42.3,27.14H37.568L36.432,30.5h-2L38.91,18.078h2.083L45.477,30.5H43.437Zm-4.243-1.549h3.752l-1.85-5.447h-.052Z" transform="translate(-34.427 -17.871)"/>
    <path id="Path_80" data-name="Path 80" class="cls-1" d="M55.159,25.97c0,2.813-1.506,4.621-3.778,4.621a3.069,3.069,0,0,1-2.849-1.584h-.043v4.484H46.631V21.442h1.8v1.506h.034a3.212,3.212,0,0,1,2.883-1.6C53.645,21.348,55.159,23.164,55.159,25.97Zm-1.91,0c0-1.833-.947-3.038-2.393-3.038-1.42,0-2.375,1.23-2.375,3.038,0,1.824.955,3.046,2.375,3.046,1.445,0,2.393-1.2,2.393-3.046Z" transform="translate(-34.427 -17.871)"/>
    <path id="Path_81" data-name="Path 81" class="cls-1" d="M65.124,25.97c0,2.813-1.506,4.621-3.779,4.621A3.069,3.069,0,0,1,58.5,29.007h-.043v4.484H56.6V21.442h1.8v1.506h.034a3.212,3.212,0,0,1,2.883-1.6C63.609,21.348,65.124,23.164,65.124,25.97Zm-1.911,0c0-1.833-.947-3.038-2.393-3.038-1.42,0-2.375,1.23-2.375,3.038,0,1.824.955,3.046,2.375,3.046C62.267,29.016,63.214,27.819,63.214,25.97Z" transform="translate(-34.427 -17.871)"/>
    <path id="Path_82" data-name="Path 82" class="cls-1" d="M71.709,27.036c.138,1.231,1.334,2.04,2.969,2.04,1.566,0,2.693-.809,2.693-1.919,0-.964-.68-1.541-2.289-1.937l-1.609-.388c-2.28-.551-3.339-1.617-3.339-3.348,0-2.143,1.867-3.614,4.518-3.614,2.625,0,4.424,1.472,4.484,3.614H77.26c-.112-1.239-1.137-1.987-2.634-1.987s-2.521.757-2.521,1.858c0,.878.654,1.395,2.255,1.79l1.368.336c2.548.6,3.605,1.626,3.605,3.442,0,2.323-1.85,3.778-4.793,3.778-2.754,0-4.613-1.421-4.733-3.667Z" transform="translate(-34.427 -17.871)"/>
    <path id="Path_83" data-name="Path 83" class="cls-1" d="M83.346,19.3v2.143h1.722v1.472H83.346v4.991c0,.775.345,1.137,1.1,1.137A5.807,5.807,0,0,0,85.059,29v1.463a5.1,5.1,0,0,1-1.032.086c-1.833,0-2.548-.688-2.548-2.444V22.914H80.163V21.442h1.316V19.3Z" transform="translate(-34.427 -17.871)"/>
    <path id="Path_84" data-name="Path 84" class="cls-1" d="M86.064,25.97c0-2.849,1.678-4.639,4.294-4.639s4.295,1.79,4.295,4.639-1.661,4.639-4.295,4.639S86.064,28.826,86.064,25.97Zm6.7,0c0-1.954-.9-3.107-2.4-3.107s-2.4,1.162-2.4,3.107c0,1.962.9,3.106,2.4,3.106S92.759,27.932,92.759,25.97Z" transform="translate(-34.427 -17.871)"/>
    <path id="Path_85" data-name="Path 85" class="cls-1" d="M96.185,21.442h1.772v1.541H98a2.159,2.159,0,0,1,2.178-1.636,2.866,2.866,0,0,1,.637.069v1.738a2.6,2.6,0,0,0-.835-.112,1.873,1.873,0,0,0-1.937,2.083V30.5H96.185Z" transform="translate(-34.427 -17.871)"/>
    <path id="Path_86" data-name="Path 86" class="cls-1" d="M109.383,27.837c-.25,1.644-1.851,2.771-3.9,2.771-2.634,0-4.269-1.765-4.269-4.6s1.644-4.682,4.19-4.682c2.5,0,4.08,1.721,4.08,4.466v.637h-6.395v.112a2.358,2.358,0,0,0,2.436,2.564,2.048,2.048,0,0,0,2.091-1.273Zm-6.282-2.7h4.526a2.177,2.177,0,0,0-2.221-2.3,2.292,2.292,0,0,0-2.306,2.3Z" transform="translate(-34.427 -17.871)"/>
  </g>
  <g id="Download_On" data-name="Download On" transform="translate(35.671 8.437)">
    <path id="Path_87" data-name="Path 87" class="cls-1" d="M37.826,8.731A2.64,2.64,0,0,1,40.634,11.7c0,1.906-1.03,3-2.808,3H35.671V8.731ZM36.6,13.854h1.125a1.876,1.876,0,0,0,1.968-2.146,1.881,1.881,0,0,0-1.968-2.134H36.6Z" transform="translate(-35.671 -8.437)"/>
    <path id="Path_88" data-name="Path 88" class="cls-1" d="M41.681,12.444a2.133,2.133,0,1,1,4.247,0,2.134,2.134,0,1,1-4.247,0Zm3.333,0c0-.976-.438-1.547-1.208-1.547s-1.207.571-1.207,1.547.435,1.55,1.207,1.55,1.208-.57,1.208-1.55Z" transform="translate(-35.671 -8.437)"/>
    <path id="Path_89" data-name="Path 89" class="cls-1" d="M51.573,14.7h-.922l-.931-3.316h-.07L48.724,14.7h-.913l-1.241-4.5h.9l.807,3.436h.066l.926-3.436h.853l.926,3.436h.07l.8-3.436h.889Z" transform="translate(-35.671 -8.437)"/>
    <path id="Path_90" data-name="Path 90" class="cls-1" d="M53.854,10.195h.855v.715h.066a1.348,1.348,0,0,1,1.344-.8,1.465,1.465,0,0,1,1.559,1.675V14.7h-.889V12.006c0-.724-.314-1.083-.972-1.083a1.033,1.033,0,0,0-1.075,1.141V14.7h-.889Z" transform="translate(-35.671 -8.437)"/>
    <path id="Path_91" data-name="Path 91" class="cls-1" d="M59.094,8.437h.889V14.7h-.889Z" transform="translate(-35.671 -8.437)"/>
    <path id="Path_92" data-name="Path 92" class="cls-1" d="M61.218,12.444a2.133,2.133,0,1,1,4.248,0,2.134,2.134,0,1,1-4.248,0Zm3.333,0c0-.976-.438-1.547-1.208-1.547s-1.207.571-1.207,1.547.435,1.55,1.207,1.55,1.208-.57,1.208-1.55Z" transform="translate(-35.671 -8.437)"/>
    <path id="Path_93" data-name="Path 93" class="cls-1" d="M66.4,13.424c0-.811.6-1.278,1.675-1.344l1.22-.07v-.389c0-.476-.314-.744-.922-.744-.5,0-.84.182-.938.5h-.86c.091-.773.818-1.27,1.84-1.27,1.129,0,1.766.562,1.766,1.513V14.7h-.855v-.633h-.07a1.515,1.515,0,0,1-1.353.707,1.36,1.36,0,0,1-1.5-1.348ZM69.3,13.04v-.376l-1.1.07c-.62.042-.9.252-.9.649s.352.641.835.641A1.061,1.061,0,0,0,69.3,13.04Z" transform="translate(-35.671 -8.437)"/>
    <path id="Path_94" data-name="Path 94" class="cls-1" d="M71.348,12.444c0-1.423.731-2.324,1.869-2.324a1.484,1.484,0,0,1,1.381.79h.066V8.437h.889V14.7H74.7v-.711h-.07a1.563,1.563,0,0,1-1.414.786C72.072,14.772,71.348,13.871,71.348,12.444Zm.918,0c0,.955.45,1.53,1.2,1.53s1.212-.583,1.212-1.526-.468-1.53-1.212-1.53-1.2.579-1.2,1.526Z" transform="translate(-35.671 -8.437)"/>
    <path id="Path_95" data-name="Path 95" class="cls-1" d="M79.23,12.444a2.133,2.133,0,1,1,4.247,0,2.134,2.134,0,1,1-4.247,0Zm3.333,0c0-.976-.438-1.547-1.208-1.547s-1.207.571-1.207,1.547.435,1.55,1.207,1.55S82.563,13.424,82.563,12.444Z" transform="translate(-35.671 -8.437)"/>
    <path id="Path_96" data-name="Path 96" class="cls-1" d="M84.669,10.195h.855v.715h.066a1.348,1.348,0,0,1,1.344-.8,1.465,1.465,0,0,1,1.559,1.675V14.7H87.6V12.006c0-.724-.314-1.083-.972-1.083a1.033,1.033,0,0,0-1.075,1.141V14.7h-.889Z" transform="translate(-35.671 -8.437)"/>
    <path id="Path_97" data-name="Path 97" class="cls-1" d="M93.515,9.074v1.142h.976v.749h-.976v2.315c0,.472.194.678.637.678a2.966,2.966,0,0,0,.339-.021v.74a2.915,2.915,0,0,1-.483.045c-.988,0-1.382-.348-1.382-1.216V10.964h-.715v-.749h.715V9.074Z" transform="translate(-35.671 -8.437)"/>
    <path id="Path_98" data-name="Path 98" class="cls-1" d="M95.7,8.437h.881v2.481h.07a1.386,1.386,0,0,1,1.373-.807,1.483,1.483,0,0,1,1.551,1.679V14.7h-.89V12.01c0-.719-.335-1.083-.963-1.083a1.052,1.052,0,0,0-1.134,1.142V14.7H95.7Z" transform="translate(-35.671 -8.437)"/>
    <path id="Path_99" data-name="Path 99" class="cls-1" d="M104.761,13.482a1.828,1.828,0,0,1-1.951,1.3,2.045,2.045,0,0,1-2.08-2.324,2.077,2.077,0,0,1,2.076-2.353c1.253,0,2.009.856,2.009,2.27v.31h-3.18v.05a1.19,1.19,0,0,0,1.2,1.29,1.079,1.079,0,0,0,1.071-.546Zm-3.126-1.451h2.274a1.086,1.086,0,0,0-1.108-1.166,1.152,1.152,0,0,0-1.166,1.166Z" transform="translate(-35.671 -8.437)"/>
  </g>
</svg>
