<svg xmlns="http://www.w3.org/2000/svg" xmlns:xlink="http://www.w3.org/1999/xlink" width="92.924" height="107.21" viewBox="0 0 92.924 107.21">
  <defs>
    <clipPath id="clip-path">
      <path id="Path_240" data-name="Path 240" d="M85.262-896.93a42.441,42.441,0,0,1-42.44,42.44A42.44,42.44,0,0,1,.382-896.93a42.44,42.44,0,0,1,42.44-42.44,42.441,42.441,0,0,1,42.44,42.44" transform="translate(-0.382 939.37)" fill="none" clip-rule="evenodd"/>
    </clipPath>
    <clipPath id="clip-path-2">
      <path id="Path_239" data-name="Path 239" d="M-280-1088.443h135.557V-1224H-280Z" transform="translate(280 1224)" fill="none"/>
    </clipPath>
  </defs>
  <g id="Symbol_5_1" data-name="Symbol 5 – 1" transform="translate(-304.024 -164.009)">
    <ellipse id="Ellipse_116" data-name="Ellipse 116" cx="44.146" cy="4.559" rx="44.146" ry="4.559" transform="translate(308.655 262.102)" fill="#f2f2f2"/>
    <g id="Group_251" data-name="Group 251" transform="translate(310.179 178.809)">
      <g id="Group_202" data-name="Group 202" transform="translate(0)" clip-path="url(#clip-path)">
        <g id="Group_201" data-name="Group 201" transform="translate(-25.339 -25.722)" clip-path="url(#clip-path-2)">
          <path id="Path_238" data-name="Path 238" d="M-4.618-944.37H81.166v85.784H-4.618Z" transform="translate(29.505 969.641)" fill="#d3e7ef"/>
        </g>
      </g>
    </g>
    <path id="Path_350" data-name="Path 350" d="M18.35,0h3.46a18.35,18.35,0,0,1,18.35,18.35V35.16s-7.677,5.111-20.026,5.111S0,35.16,0,35.16V18.35A18.35,18.35,0,0,1,18.35,0Z" transform="translate(333.042 223.498)" fill="#ff6c58"/>
    <circle id="Ellipse_115" data-name="Ellipse 115" cx="13.822" cy="13.822" r="13.822" transform="translate(339.576 197.434)" fill="#ff6c58"/>
    <path id="heart" d="M32.117,24c-2.145,0-4.158,1.685-5.127,2.638C26.02,25.685,24.008,24,21.863,24,18.194,24,16,26.137,16,29.717c0,2.933,2.7,5.386,2.8,5.471l7.556,7.305a.92.92,0,0,0,1.277,0l7.543-7.281c.109-.109,2.808-2.566,2.808-5.495C37.98,26.137,35.786,24,32.117,24Z" transform="translate(325.92 208.661)" fill="#fff"/>
    <path id="heart-2" data-name="heart" d="M19.566,0c-2.6,0-5.047,2.045-6.225,3.2C12.165,2.045,9.722,0,7.117,0,2.663,0,0,2.595,0,6.941c0,3.561,3.277,6.538,3.394,6.641l9.173,8.868a1.117,1.117,0,0,0,1.55,0l9.158-8.839c.132-.132,3.409-3.115,3.409-6.671C26.684,2.595,24.02,0,19.566,0Z" transform="translate(304.024 197) rotate(-19)" fill="#ee7460"/>
    <path id="heart-3" data-name="heart" d="M10.679,0a5.44,5.44,0,0,0-3.4,1.748A5.44,5.44,0,0,0,3.884,0,3.526,3.526,0,0,0,0,3.788,5.677,5.677,0,0,0,1.852,7.413l5.006,4.84a.609.609,0,0,0,.846,0l5-4.824a5.751,5.751,0,0,0,1.861-3.641A3.526,3.526,0,0,0,10.679,0Z" transform="matrix(0.966, -0.259, 0.259, 0.966, 332.765, 167.778)" fill="#ee7460" opacity="0.508"/>
    <path id="heart-4" data-name="heart" d="M11.1,0A5.654,5.654,0,0,0,7.568,1.817,5.654,5.654,0,0,0,4.037,0C1.511,0,0,1.472,0,3.937A5.9,5.9,0,0,0,1.925,7.7l5.2,5.03a.633.633,0,0,0,.879,0L13.2,7.721a5.977,5.977,0,0,0,1.934-3.784C15.135,1.472,13.625,0,11.1,0Z" transform="matrix(0.966, 0.259, -0.259, 0.966, 371.246, 181.88)" fill="#ee7460"/>
    <path id="heart-5" data-name="heart" d="M9.206,0A4.69,4.69,0,0,0,6.277,1.507,4.69,4.69,0,0,0,3.349,0,3.04,3.04,0,0,0,0,3.266,4.894,4.894,0,0,0,1.6,6.39l4.316,4.173a.525.525,0,0,0,.729,0L10.951,6.4a4.958,4.958,0,0,0,1.6-3.139A3.04,3.04,0,0,0,9.206,0Z" transform="matrix(0.819, 0.574, -0.574, 0.819, 381.335, 204.907)" fill="#fff"/>
  </g>
</svg>
