<svg xmlns="http://www.w3.org/2000/svg" xmlns:xlink="http://www.w3.org/1999/xlink" width="93.98" height="108.244" viewBox="0 0 93.98 108.244">
  <defs>
    <clipPath id="clip-path">
      <path id="Path_240" data-name="Path 240" d="M85.262-896.93a42.441,42.441,0,0,1-42.44,42.44A42.44,42.44,0,0,1,.382-896.93a42.44,42.44,0,0,1,42.44-42.44,42.441,42.441,0,0,1,42.44,42.44" transform="translate(-0.382 939.37)" fill="none" clip-rule="evenodd"/>
    </clipPath>
    <clipPath id="clip-path-2">
      <path id="Path_239" data-name="Path 239" d="M-280-1088.443h135.557V-1224H-280Z" transform="translate(280 1224)" fill="none"/>
    </clipPath>
    <clipPath id="clip-path-3">
      <path id="Path_353" data-name="Path 353" d="M14.716-665.467l-8.2,5.7L9.4-669.327l-7.951-6.036,9.98-.21L14.716-685,18-675.573l9.98.21-7.951,6.036,2.885,9.557Z" transform="translate(-1.452 685)" fill="#fff" clip-rule="evenodd"/>
    </clipPath>
    <clipPath id="clip-path-4">
      <path id="Path_357" data-name="Path 357" d="M12.451,18.335l-7.7,5.347,2.708-8.971L0,9.046l9.369-.2L12.451,0l3.082,8.849,9.369.2-7.464,5.666,2.708,8.971Z" transform="translate(0 0)" fill="#46829a" clip-rule="evenodd"/>
    </clipPath>
    <clipPath id="clip-path-5">
      <path id="Path_361" data-name="Path 361" d="M6.727,9.906,2.569,12.795,4.032,7.948,0,4.887l5.061-.106L6.727,0,8.392,4.781l5.061.106L9.421,7.948l1.463,4.847Z" transform="translate(0 0)" fill="#cee8f0" clip-rule="evenodd"/>
    </clipPath>
    <clipPath id="clip-path-6">
      <path id="Path_359" data-name="Path 359" d="M8.775,12.922,3.352,16.691,5.26,10.368,0,6.375l6.6-.139L8.775,0l2.172,6.236,6.6.139-5.26,3.993L14.2,16.691Z" transform="translate(0 0)" fill="#46829a" clip-rule="evenodd"/>
    </clipPath>
    <clipPath id="clip-path-7">
      <path id="Path_355" data-name="Path 355" d="M5.847,8.611,2.233,11.122,3.5,6.909,0,4.248l4.4-.092L5.847,0,7.295,4.156l4.4.092-3.5,2.661,1.272,4.213Z" transform="translate(0 0)" fill="#6dafc8" clip-rule="evenodd"/>
    </clipPath>
  </defs>
  <g id="Symbol_6_1" data-name="Symbol 6 – 1" transform="translate(-302.968 -379.975)">
    <ellipse id="Ellipse_117" data-name="Ellipse 117" cx="44.146" cy="4.559" rx="44.146" ry="4.559" transform="translate(308.655 479.102)" fill="#f2f2f2"/>
    <g id="Group_252" data-name="Group 252" transform="translate(310.179 395.809)">
      <g id="Group_202" data-name="Group 202" transform="translate(0)" clip-path="url(#clip-path)">
        <g id="Group_201" data-name="Group 201" transform="translate(-25.339 -25.722)" clip-path="url(#clip-path-2)">
          <path id="Path_238" data-name="Path 238" d="M-4.618-944.37H81.166v85.784H-4.618Z" transform="translate(29.505 969.641)" fill="#d3e7ef"/>
        </g>
      </g>
    </g>
    <path id="Path_351" data-name="Path 351" d="M18.35,0h3.46a18.35,18.35,0,0,1,18.35,18.35V35.16s-7.677,5.111-20.026,5.111S0,35.16,0,35.16V18.35A18.35,18.35,0,0,1,18.35,0Z" transform="translate(333.042 440.498)" fill="#58b0cb"/>
    <circle id="Ellipse_118" data-name="Ellipse 118" cx="13.822" cy="13.822" r="13.822" transform="translate(339.576 414.434)" fill="#58b0cb"/>
    <g id="Group_253" data-name="Group 253" transform="translate(340.004 446.066)" clip-path="url(#clip-path-3)">
      <path id="Path_352" data-name="Path 352" d="M-3.548-690h26.9v25.6h-26.9Z" transform="translate(3.363 689.815)" fill="#fff"/>
    </g>
    <g id="Group_255" data-name="Group 255" transform="translate(302.968 413.357) rotate(-33)" clip-path="url(#clip-path-4)">
      <path id="Path_356" data-name="Path 356" d="M0,0H25.249V24.03H0Z" transform="translate(-0.174 -0.174)" fill="#46829a"/>
    </g>
    <g id="Group_257" data-name="Group 257" transform="translate(328.567 385.661) rotate(-25)" clip-path="url(#clip-path-5)">
      <path id="Path_360" data-name="Path 360" d="M0,0H13.641V12.982H0Z" transform="translate(-0.094 -0.094)" fill="#cee8f0"/>
    </g>
    <g id="Group_256" data-name="Group 256" transform="matrix(0.799, 0.602, -0.602, 0.799, 369.174, 384.818)" clip-path="url(#clip-path-6)">
      <path id="Path_358" data-name="Path 358" d="M0,0H17.794V16.935H0Z" transform="translate(-0.122 -0.122)" fill="#46829a"/>
    </g>
    <g id="Group_254" data-name="Group 254" transform="translate(387.242 413.052) rotate(99)" clip-path="url(#clip-path-7)">
      <path id="Path_354" data-name="Path 354" d="M0,0H11.857V11.285H0Z" transform="translate(-0.082 -0.082)" fill="#6dafc8"/>
    </g>
  </g>
</svg>
