<svg xmlns="http://www.w3.org/2000/svg" xmlns:xlink="http://www.w3.org/1999/xlink" width="273.077" height="269.81" viewBox="0 0 273.077 269.81">
  <defs>
    <clipPath id="clip-path">
      <path id="Path_240" data-name="Path 240" d="M193.173-842.975a96.4,96.4,0,0,1-96.4,96.4,96.4,96.4,0,0,1-96.4-96.4,96.4,96.4,0,0,1,96.4-96.4,96.4,96.4,0,0,1,96.4,96.4" transform="translate(-0.382 939.37)" fill="none" clip-rule="evenodd"/>
    </clipPath>
    <clipPath id="clip-path-2">
      <path id="Path_239" data-name="Path 239" d="M-280-916.105H27.895V-1224H-280Z" transform="translate(280 1224)" fill="none"/>
    </clipPath>
    <clipPath id="clip-path-3">
      <path id="Path_243" data-name="Path 243" d="M476.65-631.867c-7.554-9.007-9.975-22.371-9.975-22.371,6.585-3.777,6.973-13.752,7.36-20.628s7.457-15.108,9.588-19.078-1.065-3.68-1.065-3.68c-11.621,1.743-16.367,15.108-16.367,15.108s-1.646,7.166-3-2.518,2.518-19.95,3.874-25.76-1.549-9.3-4.552-6.682-4.842,14.817-4.842,14.817l-1.549,6.585s-1.743,4.745-1.937.581.484-18.3.775-19.95.775-8.038-3.293-6.392-4.431,14.793-4.431,14.793,1.816,3.123,1.671,3.559-2.9,5.368-2.9,5.368A74.451,74.451,0,0,0,444.362-714a1.885,1.885,0,0,0-3.33-.737,6.612,6.612,0,0,0-1.279,4.717c.436,5.084.976,19.1.976,19.1s-.212,1.552-.525,4.08c0,0-3.979-9.721-5.141-11.561s-3.293-1.84-3.486-.775c-.188,1.031-2.72,4.787,7.571,21.637-1.285,12.421-2.509,29.419.023,32.313,4.067,4.649,10.847,21.887,15.689,35.252,2.913,8.04,10.17,21.823,15.492,31.534a96.733,96.733,0,0,0,34.743-20.79c-5.282-8.015-21.045-23.807-28.446-32.631" transform="translate(-431.168 722.103)" fill="none" clip-rule="evenodd"/>
    </clipPath>
    <clipPath id="clip-path-4">
      <path id="Path_242" data-name="Path 242" d="M-280-914.865H29.135V-1224H-280Z" transform="translate(280 1224)" fill="none"/>
    </clipPath>
    <clipPath id="clip-path-5">
      <path id="Path_246" data-name="Path 246" d="M510.877-579.553c3.733-2.375,8.76-10.86,9.538-15.38s-1.553-17.862.772-23.888,3.583-16.248,3.2-19.261-3.967-2.28-3.967-2.28c-.292,1.687-.447,2.826-.447,2.826l-1.549,7.317s-1.17,3.537-1.7,2.269c-1.672,5.087-3.668,11.2-3.668,11.389,0,.323-5.907,39.383-2.175,37.008" transform="translate(-509.64 640.44)" fill="none" clip-rule="evenodd"/>
    </clipPath>
    <clipPath id="clip-path-6">
      <path id="Path_245" data-name="Path 245" d="M-280-880.518H29.135V-1224H-280Z" transform="translate(280 1224)" fill="#548197"/>
    </clipPath>
    <clipPath id="clip-path-7">
      <path id="Path_249" data-name="Path 249" d="M85.756,20.662a2.259,2.259,0,0,0-1.216.112c-1.224.437-2.468,1.8-3.632,3.55a60.964,60.964,0,0,0-5.66,12.342c-.242.92-1.065,1.428-.92.194.217-1.843,5.956-21.354,6.392-22.807s.436-4.939-2.833-3.486c-1.039.462-2.442,2.734-3.871,5.618-.516,1.041-1.035,2.16-1.543,3.3-2.509,5.657-4.718,11.887-4.718,11.887a2.818,2.818,0,0,1-.343.767,1.678,1.678,0,0,1-.311.359c-.472.4-.436-.908-.436-.908.069-.647.282-1.833.583-3.329,1.067-5.308,3.234-14.53,3.943-17.526.146-.617.231-.971.231-.971S73.6-.4,68.59,2.431c-3.517,1.988-6.926,14.649-8.647,22.027-.732,3.137-1.158,5.319-1.158,5.319a2.876,2.876,0,0,1-.349,1.389.625.625,0,0,1-.486.282c-.835.036-.472-4.176-.472-4.176A139.861,139.861,0,0,1,61.037,5.264C61.981,1.2,60.819.47,59.657.107a3.077,3.077,0,0,0-2.276.315c-3.758,3.289-5.687,11.224-7.093,19.067-1.759,9.814-2.446,19.477-2.446,19.477s.1,2.179-.63,2.324-.581-1.356-.581-1.356c.387-15.3-8.813-18.5-10.847-17.044a2.052,2.052,0,0,0-.678,3.1s4.455,7.36,1.356,17.626-.484,18.594,1.55,25.567S30.168,90.1,17.384,103.754A226.634,226.634,0,0,0,0,125.073a96.572,96.572,0,0,0,43.444,23.284C47.669,133.345,61.226,96.5,63.095,91.746a47.111,47.111,0,0,1,5.395-8.775,61.69,61.69,0,0,0,8.03-15.149C79.7,60.4,80.527,53.783,81.4,45.454s8.388-23.99,4.358-24.792" fill="none" clip-rule="evenodd"/>
    </clipPath>
    <clipPath id="clip-path-8">
      <path id="Path_248" data-name="Path 248" d="M0,309.135H309.135V0H0Z" fill="none"/>
    </clipPath>
    <clipPath id="clip-path-9">
      <path id="Path_252" data-name="Path 252" d="M20.385-657.118l-11.7,8.132L12.8-662.628l-11.35-8.616,14.247-.3L20.385-685l4.687,13.457,14.247.3-11.35,8.616,4.118,13.642Z" transform="translate(0 0)" fill="#cee8f0" clip-rule="evenodd"/>
    </clipPath>
    <clipPath id="clip-path-10">
      <path id="Path_270" data-name="Path 270" d="M15.614-664.145l-8.753,6.082,3.08-10.2-8.489-6.445,10.656-.224L15.614-685l3.506,10.065,10.656.224-8.489,6.445,3.08,10.2Z" transform="translate(0 0)" fill="#cee8f0" clip-rule="evenodd"/>
    </clipPath>
    <clipPath id="clip-path-11">
      <path id="Path_258" data-name="Path 258" d="M29.164-644.191l-17.127,11.9,6.027-19.966L1.452-664.866,22.3-665.3l6.86-19.7,6.86,19.7,20.852.438L40.264-652.255l6.027,19.966Z" transform="translate(0 0)" fill="#5e5391" clip-rule="evenodd"/>
    </clipPath>
    <clipPath id="clip-path-12">
      <path id="Path_254" data-name="Path 254" d="M14.142-666.312,6.3-660.862l2.76-9.143L1.452-675.78l9.549-.2L14.142-685l3.142,9.019,9.549.2-7.607,5.775,2.76,9.143Z" transform="translate(0 0)" fill="#fff" clip-rule="evenodd"/>
    </clipPath>
    <clipPath id="clip-path-13">
      <path id="Path_260" data-name="Path 260" d="M14.142-666.312,6.3-660.862l2.76-9.143L1.452-675.78l9.549-.2L14.142-685l3.142,9.019,9.549.2-7.607,5.775,2.76,9.143Z" transform="translate(0 0)" fill="#46829a" clip-rule="evenodd"/>
    </clipPath>
    <clipPath id="clip-path-15">
      <path id="Path_266" data-name="Path 266" d="M14.142-666.312,6.3-660.862l2.76-9.143L1.452-675.78l9.549-.2L14.142-685l3.142,9.019,9.549.2-7.607,5.775,2.76,9.143Z" transform="translate(0 0)" fill="#6dafc8" clip-rule="evenodd"/>
    </clipPath>
    <clipPath id="clip-path-17">
      <path id="Path_264" data-name="Path 264" d="M22.9-653.419,9.643-644.208l4.664-15.452L1.452-669.419l16.137-.339L22.9-685l5.309,15.242,16.137.339L31.487-659.66l4.664,15.452Z" transform="translate(0 0)" fill="#46829a" clip-rule="evenodd"/>
    </clipPath>
    <clipPath id="clip-path-18">
      <path id="Path_256" data-name="Path 256" d="M21.752-655.1,9.206-646.386l4.415-14.627L1.452-670.251l15.275-.321L21.752-685l5.026,14.428,15.275.321-12.169,9.238L34.3-646.386Z" transform="translate(0 0)" fill="#fff" clip-rule="evenodd"/>
    </clipPath>
  </defs>
  <g id="Symbol_2_1" data-name="Symbol 2 – 1" transform="translate(-219.278 -38.19)">
    <ellipse id="Ellipse_91" data-name="Ellipse 91" cx="92" cy="9.5" rx="92" ry="9.5" transform="translate(261 289)" fill="#f2f2f2"/>
    <g id="Group_209" data-name="Group 209" transform="translate(225.739 1012.476)">
      <g id="Group_202" data-name="Group 202" transform="translate(30.484 -911.268)" clip-path="url(#clip-path)">
        <g id="Group_201" data-name="Group 201" transform="translate(-57.552 -58.424)" clip-path="url(#clip-path-2)">
          <path id="Path_238" data-name="Path 238" d="M-4.618-944.37H190.226v194.844H-4.618Z" transform="translate(61.144 1001.768)" fill="#d3e7ef"/>
        </g>
      </g>
      <g id="Group_204" data-name="Group 204" transform="translate(116.877 -866.88)" clip-path="url(#clip-path-3)">
        <g id="Group_203" data-name="Group 203" transform="translate(-146.565 -103.436)" clip-path="url(#clip-path-4)">
          <path id="Path_241" data-name="Path 241" d="M426.168-727.1h75.988v145.719H426.168Z" transform="translate(-280.634 829.509)" fill="#f4b34b"/>
        </g>
      </g>
      <g id="Group_206" data-name="Group 206" transform="translate(130.205 -851.615)" clip-path="url(#clip-path-5)">
        <g id="Group_205" data-name="Group 205" transform="translate(-162.737 -133.628)" clip-path="url(#clip-path-6)">
          <path id="Path_244" data-name="Path 244" d="M504.64-645.44h16.872v63.281H504.64Z" transform="translate(-342.934 777.924)" fill="#b96655"/>
        </g>
      </g>
      <g id="Group_208" data-name="Group 208" transform="matrix(0.998, -0.07, 0.07, 0.998, 54.814, -866.472)" clip-path="url(#clip-path-7)">
        <g id="Group_207" data-name="Group 207" transform="translate(-88.664 -100.631)" clip-path="url(#clip-path-8)">
          <path id="Path_247" data-name="Path 247" d="M0,0H89V150.418H0Z" transform="translate(87.634 100.219)" fill="#ee7460"/>
        </g>
      </g>
    </g>
    <g id="Group_210" data-name="Group 210" transform="translate(1.268 705.796) rotate(20)" clip-path="url(#clip-path-9)">
      <path id="Path_251" data-name="Path 251" d="M-3.548-690h38.4v36.542h-38.4Z" transform="translate(4.736 4.736)" fill="#cee8f0"/>
    </g>
    <g id="Group_219" data-name="Group 219" transform="translate(152.199 695.693) rotate(20)" clip-path="url(#clip-path-10)">
      <path id="Path_269" data-name="Path 269" d="M-3.548-690H25.17v27.332H-3.548Z" transform="translate(4.803 4.803)" fill="#cee8f0"/>
    </g>
    <g id="Group_213" data-name="Group 213" transform="translate(172.351 699.89) rotate(23)" clip-path="url(#clip-path-11)">
      <path id="Path_257" data-name="Path 257" d="M-3.548-690h56.2v53.484h-56.2Z" transform="translate(4.614 4.614)" fill="#5e5391"/>
    </g>
    <g id="Group_211" data-name="Group 211" transform="translate(45.104 775.511) rotate(20)" clip-path="url(#clip-path-12)">
      <path id="Path_253" data-name="Path 253" d="M-3.548-690H22.186v24.492H-3.548Z" transform="translate(4.823 4.823)" fill="#fff"/>
    </g>
    <g id="Group_214" data-name="Group 214" transform="matrix(0.829, -0.559, 0.559, 0.829, 601.122, 718.793)" clip-path="url(#clip-path-13)">
      <path id="Path_259" data-name="Path 259" d="M-3.548-690H22.186v24.492H-3.548Z" transform="translate(4.823 4.823)" fill="#46829a"/>
    </g>
    <g id="Group_215" data-name="Group 215" transform="matrix(0.799, 0.602, -0.602, 0.799, 4.274, 712.916)" clip-path="url(#clip-path-13)">
      <path id="Path_261" data-name="Path 261" d="M-3.548-690H22.186v24.492H-3.548Z" transform="translate(4.823 4.823)" fill="#46829a"/>
    </g>
    <g id="Group_217" data-name="Group 217" transform="translate(-215.885 101.763) rotate(99)" clip-path="url(#clip-path-15)">
      <path id="Path_265" data-name="Path 265" d="M-3.548-690H22.186v24.492H-3.548Z" transform="translate(4.823 4.823)" fill="#6dafc8"/>
    </g>
    <g id="Group_218" data-name="Group 218" transform="matrix(0.97, -0.242, 0.242, 0.97, 397.623, 857.363)" clip-path="url(#clip-path-15)">
      <path id="Path_267" data-name="Path 267" d="M-3.548-690H22.186v24.492H-3.548Z" transform="translate(4.823 4.823)" fill="#6dafc8"/>
    </g>
    <g id="Group_216" data-name="Group 216" transform="translate(418.406 720.484) rotate(-10)" clip-path="url(#clip-path-17)">
      <path id="Path_263" data-name="Path 263" d="M-3.548-690H39.941v41.39H-3.548Z" transform="translate(4.701 4.701)" fill="#46829a"/>
    </g>
    <g id="Group_212" data-name="Group 212" transform="translate(140.428 741.107) rotate(20)" clip-path="url(#clip-path-18)">
      <path id="Path_255" data-name="Path 255" d="M-3.548-690H37.619v39.181H-3.548Z" transform="translate(4.717 4.717)" fill="#fff"/>
    </g>
  </g>
</svg>
