<svg xmlns="http://www.w3.org/2000/svg" viewBox="0 0 100 100">
  <defs>
    <style>
      .cls-1 {
        fill: #ffb12a;
        opacity: 0;
      }

      .cls-2 {
        fill: #a5a5a5;
      }

      .cls-3 {
        fill: none;
        stroke: #333;
        stroke-width: 1.5px;
      }

      .cls-4, .cls-5 {
        stroke: none;
      }

      .cls-5 {
        fill: #333;
      }
    </style>
  </defs>
  <g id="icon_profile_100a" transform="translate(-775 -107)">
    <rect id="BOUNDRY" class="cls-1" width="100" height="100" transform="translate(775 107)"/>
    <g id="icon_profile_48" class="cls-2" transform="translate(775 107)">
      <path class="cls-4" d="M 50 98.5 C 43.45188522338867 98.5 37.10042953491211 97.21787261962891 31.12207221984863 94.68923950195312 C 25.34691429138184 92.24655914306641 20.15997123718262 88.74931335449219 15.70532894134521 84.29468536376953 C 11.2506856918335 79.84004211425781 7.753442764282227 74.65309906005859 5.310757160186768 68.8779296875 C 2.782128572463989 62.89957046508789 1.5 56.54811477661133 1.5 50 C 1.5 43.45188522338867 2.782128572463989 37.10042953491211 5.310757160186768 31.12207221984863 C 7.753442764282227 25.34691429138184 11.2506856918335 20.15997123718262 15.70532894134521 15.70532894134521 C 20.15997123718262 11.2506856918335 25.34691429138184 7.753442764282227 31.12207221984863 5.310757160186768 C 37.10042953491211 2.782128572463989 43.45188522338867 1.5 50 1.5 C 56.54811477661133 1.5 62.89957046508789 2.782128572463989 68.8779296875 5.310757160186768 C 74.65309906005859 7.753442764282227 79.84004211425781 11.2506856918335 84.29468536376953 15.70532894134521 C 88.74931335449219 20.15997123718262 92.24655914306641 25.34691429138184 94.68923950195312 31.12207221984863 C 97.21787261962891 37.10042953491211 98.5 43.45188522338867 98.5 50 C 98.5 56.54811477661133 97.21787261962891 62.89957046508789 94.68923950195312 68.8779296875 C 92.24655914306641 74.65309906005859 88.74931335449219 79.84004211425781 84.29468536376953 84.29468536376953 C 79.84004211425781 88.74931335449219 74.65309906005859 92.24655914306641 68.8779296875 94.68923950195312 C 62.89957046508789 97.21787261962891 56.54811477661133 98.5 50 98.5 Z"/>
      <path class="cls-5" d="M 50 97 C 56.34627532958984 97 62.50113677978516 95.75773620605469 68.29360198974609 93.3077392578125 C 73.88996887207031 90.940673828125 78.91664886474609 87.55138397216797 83.23401641845703 83.23401641845703 C 87.55138397216797 78.91664886474609 90.940673828125 73.88996887207031 93.3077392578125 68.29360198974609 C 95.75773620605469 62.50113677978516 97 56.34627532958984 97 50 C 97 43.65372467041016 95.75773620605469 37.49886322021484 93.3077392578125 31.70639991760254 C 90.940673828125 26.11003112792969 87.55138397216797 21.08335304260254 83.23401641845703 16.7659854888916 C 78.91664886474609 12.44861507415771 73.88996887207031 9.059323310852051 68.29360198974609 6.692261695861816 C 62.50113677978516 4.242261409759521 56.34627532958984 3 50 3 C 43.65372467041016 3 37.49886322021484 4.242261409759521 31.70639991760254 6.692261695861816 C 26.11003112792969 9.059323310852051 21.08335304260254 12.44861507415771 16.7659854888916 16.7659854888916 C 12.44861507415771 21.08335304260254 9.059323310852051 26.11003112792969 6.692261695861816 31.70639991760254 C 4.242261409759521 37.49886322021484 3 43.65372467041016 3 50 C 3 56.34627532958984 4.242261409759521 62.50113677978516 6.692261695861816 68.29360198974609 C 9.059323310852051 73.88996887207031 12.44861507415771 78.91664886474609 16.7659854888916 83.23401641845703 C 21.08335304260254 87.55138397216797 26.11003112792969 90.940673828125 31.70639991760254 93.3077392578125 C 37.49886322021484 95.75773620605469 43.65372467041016 97 50 97 M 50 100 C 22.38576889038086 100 0 77.61422729492188 0 50 C 0 22.38576889038086 22.38576889038086 0 50 0 C 77.61422729492188 0 100 22.38576889038086 100 50 C 100 77.61422729492188 77.61422729492188 100 50 100 Z"/>
    </g>
    <circle id="Ellipse_74" data-name="Ellipse 74" class="cls-3" cx="15.625" cy="15.625" r="15.625" transform="translate(809.375 128.875)"/>
    <path id="Path_155" data-name="Path 155" class="cls-3" d="M1704.675-273.1s-8.631-29.261,25-29.261,25,29.261,25,29.261" transform="translate(-904.675 470.728)"/>
  </g>
</svg>
