<svg xmlns="http://www.w3.org/2000/svg" viewBox="0 0 40 40">
  <defs>
    <style>
      .cls-1 {
        fill: #ffb12a;
        opacity: 0;
      }

      .cls-2, .cls-3 {
        fill: none;
      }

      .cls-3 {
        stroke: #333;
        stroke-width: 1.5px;
      }

      .cls-4, .cls-5 {
        stroke: none;
      }

      .cls-5 {
        fill: #333;
      }
    </style>
  </defs>
  <g id="icon_profile_40a" transform="translate(-299 -16)">
    <rect id="BOUNDRY" class="cls-1" width="40" height="40" transform="translate(299 16)"/>
    <g id="icon_profile_32" class="cls-2" transform="translate(303 20)">
      <path class="cls-4" d="M16,0A16,16,0,1,1,0,16,16,16,0,0,1,16,0Z"/>
      <path class="cls-5" d="M 16 29 C 19.4724292755127 29 22.73700904846191 27.64776039123535 25.19239044189453 25.19239044189453 C 27.64776039123535 22.73700904846191 29 19.4724292755127 29 16 C 29 12.52756977081299 27.64776039123535 9.26298999786377 25.19239044189453 6.807610034942627 C 22.73700904846191 4.352240085601807 19.4724292755127 3 16 3 C 12.52756977081299 3 9.26298999786377 4.352240085601807 6.807610034942627 6.807610034942627 C 4.352240085601807 9.26298999786377 3 12.52756977081299 3 16 C 3 19.4724292755127 4.352240085601807 22.73700904846191 6.807610034942627 25.19239044189453 C 9.26298999786377 27.64776039123535 12.52756977081299 29 16 29 M 16 32 C 7.163440227508545 32 0 24.8365592956543 0 16 C 0 7.163440227508545 7.163440227508545 0 16 0 C 24.8365592956543 0 32 7.163440227508545 32 16 C 32 24.8365592956543 24.8365592956543 32 16 32 Z"/>
    </g>
    <circle id="Ellipse_74" data-name="Ellipse 74" class="cls-3" cx="5" cy="5" r="5" transform="translate(314 27)"/>
    <path id="Path_155" data-name="Path 155" class="cls-3" d="M1704-293s-2.762-9.364,8-9.364,8,9.364,8,9.364" transform="translate(-1393 342)"/>
  </g>
</svg>
