<?xml version="1.0" encoding="utf-8"?>
<!-- Generator: Adobe Illustrator 23.0.3, SVG Export Plug-In . SVG Version: 6.00 Build 0)  -->
<svg version="1.1" id="Layer_1" xmlns="http://www.w3.org/2000/svg" xmlns:xlink="http://www.w3.org/1999/xlink" x="0px" y="0px"
	 viewBox="0 0 1080 1080" style="enable-background:new 0 0 1080 1080;" xml:space="preserve">
<style type="text/css">
	.st0{fill:#2F839D;}
	.st1{fill:none;stroke:#FFA82D;stroke-width:17;}
	.st2{opacity:0.164;fill:#FFFFFF;enable-background:new    ;}
	.st3{fill:url(#SVGID_1_);}
	.st4{fill:url(#SVGID_2_);}
	.st5{fill:url(#SVGID_3_);}
	.st6{fill:url(#SVGID_4_);}
	.st7{fill:url(#SVGID_5_);}
	.st8{fill:url(#SVGID_6_);}
	.st9{fill:url(#SVGID_7_);}
	.st10{fill:url(#SVGID_8_);}
	.st11{fill:url(#SVGID_9_);}
	.st12{enable-background:new    ;}
	.st13{fill:#C6C6C6;}
	.st14{fill:#FFFFFF;}
</style>
<rect x="2" y="2" class="st0" width="1076" height="1077"/>
<rect x="10.12" y="9.13" class="st1" width="1059.76" height="1060.74"/>
<path id="Intersection_2" class="st2" d="M542.85,595.1L177.89,847.98l128.43-424.22L18.71,206.08v-51.63l377.96-7.92l44.47-127.29
	h203.44l44.47,127.29l370.37,7.76v57.54L779.39,423.78L907.82,848L542.85,595.1z"/>
<g>
	<g>
		
			<linearGradient id="SVGID_1_" gradientUnits="userSpaceOnUse" x1="334.3988" y1="70.348" x2="271.5245" y2="205.1824" gradientTransform="matrix(1 0 0 -1 43 1086)">
			<stop  offset="0" style="stop-color:#FF6E59"/>
			<stop  offset="1" style="stop-color:#FFB029"/>
		</linearGradient>
		<path class="st3" d="M406.93,921.26H275.68c-3.56,0-5.01,4.54-2.1,6.58l37.25,26.12c1.34,0.94,1.88,2.66,1.32,4.19l-15.96,43.53
			c-1.23,3.36,2.67,6.27,5.58,4.16l107.31-78.05C411.93,925.73,410.45,921.26,406.93,921.26z M375.76,938.62l-51.48,37.44
			c-2.91,2.11-6.81-0.8-5.58-4.16l6.53-17.82c0.56-1.53,0.02-3.25-1.32-4.19l-16.02-11.24c-2.9-2.04-1.45-6.58,2.1-6.58h63.61
			C377.13,932.08,378.61,936.55,375.76,938.62z M330.44,917.65h28.45c2.46,0,4.21-2.39,3.44-4.71l-14.21-43.31
			c-1.09-3.31-5.8-3.31-6.89,0l-14.24,43.31C326.23,915.27,327.97,917.65,330.44,917.65z M375.33,962.68
			c-0.76-2.33-3.59-3.24-5.59-1.79l-23.17,16.85c-1.98,1.44-1.97,4.38,0.01,5.81l37.44,26.96c2.84,2.04,6.65-0.71,5.57-4.02
			L375.33,962.68z"/>
	</g>
</g>
<g>
	
		<linearGradient id="SVGID_2_" gradientUnits="userSpaceOnUse" x1="484.1252" y1="66.1682" x2="330.2174" y2="396.2245" gradientTransform="matrix(1 0 0 -1 0 1080)">
		<stop  offset="0" style="stop-color:#FFB029"/>
		<stop  offset="1" style="stop-color:#FF6E59"/>
	</linearGradient>
	<path class="st4" d="M458.9,947.73c-6.36-2.57-9.59-3.9-9.59-8.26c0-4.35,3.12-6.58,7.14-6.58c3.46,0,6.25,1.9,7.59,4.8l7.59-4.24
		c-2.34-5.13-8.25-8.7-15.06-8.7c-8.92,0-16.51,5.58-16.51,15.17c0,8.14,5.47,12.49,14.84,15.95c6.25,2.45,9.48,4.02,9.48,8.03
		c0,4.13-2.9,7.14-8.48,7.14c-4.35,0-7.59-1.9-9.82-6.14l-8.25,3.12c2.23,6.25,10.26,11.16,18.74,11.16
		c9.48,0,16.96-6.25,16.96-15.51C473.51,954.2,465.71,950.52,458.9,947.73z"/>
	
		<linearGradient id="SVGID_3_" gradientUnits="userSpaceOnUse" x1="558.1777" y1="5.4492" x2="344.2712" y2="464.1733" gradientTransform="matrix(1 0 0 -1 0 1080)">
		<stop  offset="0" style="stop-color:#FFB029"/>
		<stop  offset="1" style="stop-color:#FF6E59"/>
	</linearGradient>
	<polygon class="st5" points="500.17,906.9 490.92,906.9 490.92,925.75 479.87,925.75 479.87,934.12 490.92,934.12 490.92,978.18 
		500.17,978.18 500.17,934.12 511.11,934.12 511.11,925.75 500.17,925.75 	"/>
	
		<linearGradient id="SVGID_4_" gradientUnits="userSpaceOnUse" x1="607.0203" y1="1.6587" x2="482.6724" y2="268.3236" gradientTransform="matrix(1 0 0 -1 0 1080)">
		<stop  offset="0" style="stop-color:#FFB029"/>
		<stop  offset="1" style="stop-color:#FF6E59"/>
	</linearGradient>
	<path class="st6" d="M561.64,933.23c-4.46-5.24-11.16-8.48-19.41-8.48c-14.06,0-26.21,12.16-26.21,27.22s12.16,27.22,26.21,27.22
		c8.26,0,14.95-3.23,19.41-8.48v7.47h9.15v-52.43h-9.15V933.23z M543.46,970.26c-10.15,0-18.29-8.14-18.29-18.29
		c0-10.15,8.14-18.29,18.29-18.29c10.15,0,18.18,8.14,18.18,18.29S553.61,970.26,543.46,970.26z"/>
	
		<linearGradient id="SVGID_5_" gradientUnits="userSpaceOnUse" x1="724.7192" y1="-141.4696" x2="509.6829" y2="319.6772" gradientTransform="matrix(1 0 0 -1 0 1080)">
		<stop  offset="0" style="stop-color:#FFB029"/>
		<stop  offset="1" style="stop-color:#FF6E59"/>
	</linearGradient>
	<path class="st7" d="M593.32,933.9v-8.14h-9.15v52.43h9.15v-27.78c0-9.59,5.91-16.73,13.72-16.73c1.34,0,2.9,0.33,4.24,0.89
		l3.12-7.81c-1.78-1.12-4.46-2.01-7.59-2.01C600.57,924.75,596.11,928.32,593.32,933.9z"/>
	
		<linearGradient id="SVGID_6_" gradientUnits="userSpaceOnUse" x1="752.0513" y1="-118.7013" x2="598.1437" y2="211.3544" gradientTransform="matrix(1 0 0 -1 0 1080)">
		<stop  offset="0" style="stop-color:#FFB029"/>
		<stop  offset="1" style="stop-color:#FF6E59"/>
	</linearGradient>
	<path class="st8" d="M640.62,947.73c-6.36-2.57-9.59-3.9-9.59-8.26c0-4.35,3.12-6.58,7.14-6.58c3.46,0,6.25,1.9,7.59,4.8l7.59-4.24
		c-2.34-5.13-8.25-8.7-15.06-8.7c-8.92,0-16.51,5.58-16.51,15.17c0,8.14,5.47,12.49,14.84,15.95c6.25,2.45,9.48,4.02,9.48,8.03
		c0,4.13-2.9,7.14-8.48,7.14c-4.35,0-7.59-1.9-9.82-6.14l-8.25,3.12c2.23,6.25,10.26,11.16,18.74,11.16
		c9.48,0,16.96-6.25,16.96-15.51C655.23,954.2,647.42,950.52,640.62,947.73z"/>
	
		<linearGradient id="SVGID_7_" gradientUnits="userSpaceOnUse" x1="802.5284" y1="-113.5734" x2="677.9984" y2="153.4822" gradientTransform="matrix(1 0 0 -1 0 1080)">
		<stop  offset="0" style="stop-color:#FFB029"/>
		<stop  offset="1" style="stop-color:#FF6E59"/>
	</linearGradient>
	<path class="st9" d="M689.92,924.75c-15.28,0-27.44,12.16-27.44,27.22s12.16,27.22,27.44,27.22c15.17,0,27.33-12.16,27.33-27.22
		S705.1,924.75,689.92,924.75z M689.92,970.26c-10.26,0-18.29-8.14-18.29-18.29c0-10.15,8.03-18.29,18.29-18.29
		c10.04,0,18.18,8.14,18.18,18.29C708.11,962.12,699.96,970.26,689.92,970.26z"/>
	
		<linearGradient id="SVGID_8_" gradientUnits="userSpaceOnUse" x1="892.8813" y1="-192.3285" x2="755.0721" y2="103.2042" gradientTransform="matrix(1 0 0 -1 0 1080)">
		<stop  offset="0" style="stop-color:#FFB029"/>
		<stop  offset="1" style="stop-color:#FF6E59"/>
	</linearGradient>
	<path class="st10" d="M748.15,924.75c-4.91,0-9.37,1.78-12.72,4.8v-3.79h-9.15v52.43h9.15v-34.25c0.11-6.02,5.02-10.71,11.38-10.71
		c6.14,0,11.16,4.91,11.16,11.16v33.8h9.15v-34.47C767.12,933.23,758.64,924.75,748.15,924.75z"/>
	
		<linearGradient id="SVGID_9_" gradientUnits="userSpaceOnUse" x1="967.492" y1="-212.5283" x2="843.1443" y2="54.136" gradientTransform="matrix(1 0 0 -1 0 1080)">
		<stop  offset="0" style="stop-color:#FFB029"/>
		<stop  offset="1" style="stop-color:#FF6E59"/>
	</linearGradient>
	<path class="st11" d="M822.23,925.75v7.47c-4.46-5.24-11.16-8.48-19.41-8.48c-14.06,0-26.21,12.16-26.21,27.22
		s12.16,27.22,26.21,27.22c8.26,0,14.95-3.23,19.41-8.48v7.47h9.15v-52.43h-9.15V925.75z M804.04,970.26
		c-10.15,0-18.29-8.14-18.29-18.29c0-10.15,8.14-18.29,18.29-18.29c10.15,0,18.18,8.14,18.18,18.29
		C822.23,962.12,814.19,970.26,804.04,970.26z"/>
</g>
<g class="st12">
	<path class="st13" d="M439.77,888.98l5.46-3.19c1.25,3.29,3.75,4.95,7.45,4.95c3.56,0,5.19-1.44,5.19-3.43
		c0-1.16-0.51-2.04-1.53-2.64c-1.02-0.65-2.82-1.34-5.46-2.08c-2.92-0.88-4.68-1.57-6.71-3.01c-1.99-1.48-3.06-3.7-3.06-6.67
		c0-2.92,1.02-5.28,3.1-6.99c2.08-1.76,4.63-2.64,7.55-2.64c5.23,0,9.35,2.69,11.57,7.27l-5.37,3.1c-1.3-2.78-3.38-4.17-6.2-4.17
		c-2.64,0-4.26,1.34-4.26,3.24c0,1.02,0.42,1.85,1.25,2.5c0.88,0.6,2.5,1.3,4.91,2.04l2.22,0.74c0.51,0.14,1.2,0.42,2.08,0.79
		c0.88,0.32,1.57,0.65,2.04,0.97c0.97,0.6,2.45,1.76,3.06,2.87c0.69,1.11,1.2,2.73,1.2,4.58c0,3.01-1.11,5.37-3.29,7.13
		c-2.18,1.76-5,2.64-8.47,2.64C446.07,896.99,441.58,893.94,439.77,888.98z"/>
	<path class="st13" d="M473.85,887.22c0.79,2.92,2.96,4.35,6.53,4.35c2.27,0,4.03-0.79,5.19-2.31l4.81,2.78
		c-2.27,3.29-5.65,4.95-10.09,4.95c-3.84,0-6.9-1.16-9.21-3.47c-2.31-2.31-3.47-5.23-3.47-8.75c0-3.47,1.16-6.39,3.43-8.7
		c2.27-2.36,5.23-3.52,8.8-3.52c3.38,0,6.2,1.16,8.38,3.52c2.22,2.36,3.33,5.23,3.33,8.7c0,0.79-0.09,1.57-0.23,2.45H473.85z
		 M485.56,882.59c-0.69-3.15-3.01-4.68-5.74-4.68c-3.19,0-5.37,1.71-6.06,4.68H485.56z"/>
	<path class="st13" d="M500.56,887.22c0.79,2.92,2.96,4.35,6.53,4.35c2.27,0,4.03-0.79,5.19-2.31l4.81,2.78
		c-2.27,3.29-5.65,4.95-10.09,4.95c-3.84,0-6.9-1.16-9.21-3.47c-2.31-2.31-3.47-5.23-3.47-8.75c0-3.47,1.16-6.39,3.43-8.7
		c2.27-2.36,5.23-3.52,8.8-3.52c3.38,0,6.2,1.16,8.38,3.52c2.22,2.36,3.33,5.23,3.33,8.7c0,0.79-0.09,1.57-0.23,2.45H500.56z
		 M512.28,882.59c-0.69-3.15-3.01-4.68-5.74-4.68c-3.19,0-5.37,1.71-6.06,4.68H512.28z"/>
	<path class="st13" d="M553.11,875.09c1.67,1.71,2.5,4.03,2.5,7.04v14.21h-5.97v-13.47c0-3.1-1.81-4.77-4.58-4.77
		c-3.1,0-5.09,1.9-5.09,5.74v12.5h-5.97v-32.41h5.97v11.85c1.43-2.18,3.75-3.24,6.9-3.24C549.41,872.55,551.49,873.38,553.11,875.09
		z"/>
	<path class="st13" d="M571.73,896.99c-3.43,0-6.34-1.16-8.7-3.52c-2.36-2.36-3.52-5.28-3.52-8.7s1.16-6.3,3.52-8.66
		c2.36-2.36,5.28-3.56,8.7-3.56s6.34,1.2,8.7,3.56c2.36,2.36,3.57,5.23,3.57,8.66s-1.2,6.34-3.57,8.7
		C578.07,895.83,575.15,896.99,571.73,896.99z M571.73,891.16c1.81,0,3.29-0.6,4.49-1.8c1.2-1.2,1.81-2.73,1.81-4.58
		c0-1.85-0.6-3.38-1.81-4.58c-1.2-1.2-2.68-1.81-4.49-1.81s-3.29,0.6-4.49,1.81c-1.16,1.2-1.76,2.73-1.76,4.58
		c0,1.85,0.6,3.38,1.76,4.58C568.44,890.56,569.92,891.16,571.73,891.16z"/>
	<path class="st13" d="M613.35,873.2h6.34l-7.36,23.15h-5.69l-4.26-14.03l-4.26,14.03h-5.69l-7.36-23.15h6.34l3.94,14.21l4.21-14.21
		h5.65l4.21,14.26L613.35,873.2z"/>
	<path class="st13" d="M645.53,896.99c-3.43,0-6.34-1.16-8.7-3.52s-3.52-5.28-3.52-8.7s1.16-6.3,3.52-8.66
		c2.36-2.36,5.28-3.56,8.7-3.56s6.34,1.2,8.7,3.56c2.36,2.36,3.56,5.23,3.56,8.66s-1.2,6.34-3.56,8.7
		C651.87,895.83,648.96,896.99,645.53,896.99z M645.53,891.16c1.81,0,3.29-0.6,4.49-1.8c1.2-1.2,1.81-2.73,1.81-4.58
		c0-1.85-0.6-3.38-1.81-4.58c-1.2-1.2-2.69-1.81-4.49-1.81c-1.8,0-3.29,0.6-4.49,1.81c-1.16,1.2-1.76,2.73-1.76,4.58
		c0,1.85,0.6,3.38,1.76,4.58C642.24,890.56,643.73,891.16,645.53,891.16z"/>
	<path class="st13" d="M681.13,875.09c1.67,1.71,2.5,4.03,2.5,7.04v14.21h-5.97v-13.47c0-3.1-1.81-4.77-4.58-4.77
		c-3.1,0-5.09,1.9-5.09,5.74v12.5h-5.97V873.2h5.97v2.59c1.44-2.18,3.75-3.24,6.9-3.24C677.43,872.55,679.51,873.38,681.13,875.09z"
		/>
</g>
<g class="st12">
	<path class="st14" d="M271,92.13h9.7v49.21H271V92.13z"/>
	<path class="st14" d="M333.7,106.19h9.07v35.15h-9.07v-4.15c-2.74,3.44-6.54,5.13-11.46,5.13c-4.71,0-8.72-1.76-12.09-5.34
		c-3.3-3.58-4.99-8.01-4.99-13.22s1.69-9.56,4.99-13.15c3.37-3.58,7.38-5.41,12.09-5.41c4.92,0,8.72,1.69,11.46,5.13V106.19z
		 M323.93,133.68c2.81,0,5.13-0.91,6.96-2.74c1.9-1.9,2.81-4.29,2.81-7.17s-0.91-5.27-2.81-7.1c-1.83-1.9-4.15-2.81-6.96-2.81
		c-2.81,0-5.13,0.91-6.96,2.81c-1.83,1.83-2.74,4.22-2.74,7.1s0.91,5.27,2.74,7.17C318.8,132.77,321.12,133.68,323.93,133.68z"/>
	<path class="st14" d="M403.16,119.69v21.65h-9.07v-21.02c0-4.22-2.18-6.68-5.9-6.68c-4.15,0-6.54,2.81-6.54,7.94v19.75h-9.07
		v-21.02c0-4.22-2.18-6.68-5.91-6.68c-4.01,0-6.61,2.81-6.61,7.94v19.75H351v-35.15h9.07v3.73c2.11-3.16,5.34-4.71,9.77-4.71
		c4.29,0,7.52,1.69,9.56,5.06c2.32-3.37,5.83-5.06,10.47-5.06C397.96,105.21,403.16,110.9,403.16,119.69z"/>
	<path class="st14" d="M445.2,142.33c-5.2,0-9.63-1.76-13.22-5.34c-3.59-3.58-5.34-8.01-5.34-13.22s1.76-9.56,5.34-13.15
		c3.58-3.58,8.01-5.41,13.22-5.41c5.2,0,9.63,1.83,13.22,5.41c3.58,3.58,5.41,7.94,5.41,13.15s-1.83,9.63-5.41,13.22
		C454.83,140.57,450.4,142.33,445.2,142.33z M445.2,133.47c2.74,0,4.99-0.91,6.82-2.74c1.83-1.83,2.74-4.15,2.74-6.96
		s-0.91-5.13-2.74-6.96c-1.83-1.83-4.08-2.74-6.82-2.74c-2.74,0-4.99,0.91-6.82,2.74c-1.76,1.83-2.67,4.15-2.67,6.96
		s0.91,5.13,2.67,6.96C440.21,132.56,442.46,133.47,445.2,133.47z"/>
	<path class="st14" d="M499.26,109.08c2.53,2.6,3.8,6.12,3.8,10.69v21.58h-9.07v-20.46c0-4.71-2.74-7.24-6.96-7.24
		c-4.71,0-7.73,2.88-7.73,8.72v18.98h-9.07v-35.15h9.07v3.94c2.18-3.3,5.69-4.92,10.47-4.92
		C493.64,105.21,496.8,106.48,499.26,109.08z"/>
	<path class="st14" d="M526.26,130.17l8.29-4.85c1.9,4.99,5.69,7.52,11.32,7.52c5.41,0,7.87-2.18,7.87-5.2
		c0-1.76-0.77-3.09-2.32-4.01c-1.55-0.98-4.29-2.04-8.29-3.16c-4.43-1.34-7.1-2.39-10.19-4.57c-3.02-2.25-4.64-5.62-4.64-10.12
		c0-4.43,1.55-8.01,4.71-10.62c3.16-2.67,7.03-4.01,11.46-4.01c7.94,0,14.2,4.08,17.57,11.04l-8.15,4.71
		c-1.97-4.22-5.13-6.33-9.42-6.33c-4.01,0-6.47,2.04-6.47,4.92c0,1.55,0.63,2.81,1.9,3.8c1.34,0.91,3.8,1.97,7.45,3.09l3.37,1.12
		c0.77,0.21,1.83,0.63,3.16,1.2c1.34,0.49,2.39,0.98,3.09,1.48c1.48,0.91,3.73,2.67,4.64,4.36c1.05,1.69,1.83,4.15,1.83,6.96
		c0,4.57-1.69,8.15-4.99,10.83c-3.3,2.67-7.59,4.01-12.86,4.01C535.82,142.33,529,137.69,526.26,130.17z"/>
	<path class="st14" d="M588.4,114.91h-7.94v14.62c0,3.8,2.74,3.87,7.94,3.58v8.22c-12.44,1.41-17.01-2.18-17.01-11.81v-14.62h-6.12
		v-8.72h6.12v-7.1l9.07-2.74v9.84h7.94V114.91z"/>
	<path class="st14" d="M620.46,106.19h9.07v35.15h-9.07v-4.15c-2.74,3.44-6.54,5.13-11.46,5.13c-4.71,0-8.72-1.76-12.09-5.34
		c-3.3-3.58-4.99-8.01-4.99-13.22s1.69-9.56,4.99-13.15c3.37-3.58,7.38-5.41,12.09-5.41c4.92,0,8.72,1.69,11.46,5.13V106.19z
		 M610.69,133.68c2.81,0,5.13-0.91,6.96-2.74c1.9-1.9,2.81-4.29,2.81-7.17s-0.91-5.27-2.81-7.1c-1.83-1.9-4.15-2.81-6.96-2.81
		s-5.13,0.91-6.96,2.81c-1.83,1.83-2.74,4.22-2.74,7.1s0.91,5.27,2.74,7.17C605.56,132.77,607.88,133.68,610.69,133.68z"/>
	<path class="st14" d="M646.82,112.24c1.69-4.5,5.9-6.75,10.68-6.75v10.12c-2.74-0.35-5.27,0.21-7.45,1.69
		c-2.18,1.48-3.23,3.87-3.23,7.24v16.8h-9.07v-35.15h9.07V112.24z"/>
	<path class="st14" d="M676.42,120.04c5.13,1.05,11.81,3.51,11.74,11.04c0,3.58-1.34,6.4-4.08,8.37c-2.67,1.9-6.05,2.88-10.05,2.88
		c-7.24,0-12.16-2.81-14.76-8.37l7.87-4.43c1.05,3.02,3.3,4.57,6.89,4.57c3.23,0,4.85-0.98,4.85-3.02c0-1.9-2.81-2.95-6.4-3.87
		c-5.2-1.34-11.74-3.51-11.74-10.83c0-3.45,1.27-6.19,3.8-8.16c2.6-2.04,5.76-3.02,9.56-3.02c5.69,0,10.62,2.67,13.36,7.45
		l-7.73,4.22c-1.12-2.39-3.02-3.58-5.62-3.58c-2.32,0-4.08,1.12-4.08,2.88C670.02,118.07,672.83,119.13,676.42,120.04z"/>
	<path class="st14" d="M710.24,142.33c-5.2,0-9.63-1.76-13.22-5.34s-5.34-8.01-5.34-13.22s1.76-9.56,5.34-13.15
		s8.01-5.41,13.22-5.41s9.63,1.83,13.22,5.41s5.41,7.94,5.41,13.15s-1.83,9.63-5.41,13.22S715.44,142.33,710.24,142.33z
		 M710.24,133.47c2.74,0,4.99-0.91,6.82-2.74c1.83-1.83,2.74-4.15,2.74-6.96s-0.91-5.13-2.74-6.96c-1.83-1.83-4.08-2.74-6.82-2.74
		s-4.99,0.91-6.82,2.74c-1.76,1.83-2.67,4.15-2.67,6.96s0.91,5.13,2.67,6.96C705.24,132.56,707.49,133.47,710.24,133.47z"/>
	<path class="st14" d="M764.3,109.08c2.53,2.6,3.8,6.12,3.8,10.69v21.58h-9.07v-20.46c0-4.71-2.74-7.24-6.96-7.24
		c-4.71,0-7.73,2.88-7.73,8.72v18.98h-9.07v-35.15h9.07v3.94c2.18-3.3,5.69-4.92,10.47-4.92
		C758.67,105.21,761.84,106.48,764.3,109.08z"/>
	<path class="st14" d="M802.54,106.19h9.07v35.15h-9.07v-4.15c-2.74,3.44-6.54,5.13-11.46,5.13c-4.71,0-8.72-1.76-12.09-5.34
		c-3.3-3.58-4.99-8.01-4.99-13.22s1.69-9.56,4.99-13.15c3.37-3.58,7.38-5.41,12.09-5.41c4.92,0,8.72,1.69,11.46,5.13V106.19z
		 M792.77,133.68c2.81,0,5.13-0.91,6.96-2.74c1.9-1.9,2.81-4.29,2.81-7.17s-0.91-5.27-2.81-7.1c-1.83-1.9-4.15-2.81-6.96-2.81
		s-5.13,0.91-6.96,2.81c-1.83,1.83-2.74,4.22-2.74,7.1s0.91,5.27,2.74,7.17C787.64,132.77,789.96,133.68,792.77,133.68z"/>
</g>
<g class="st12">
	<path class="st14" d="M124.27,757.57c0,2.43-0.85,4.5-2.56,6.21s-3.78,2.56-6.21,2.56h-13.72v-31.5h12.69
		c2.34,0,4.32,0.86,5.98,2.52c1.67,1.67,2.48,3.64,2.48,5.94c0,2.92-1.21,5.17-3.69,6.71C122.29,751.31,124.27,754.15,124.27,757.57
		z M104.92,737.81v10.98h9.54c1.48,0,2.7-0.54,3.73-1.58c1.03-1.08,1.57-2.38,1.57-3.92c0-1.49-0.54-2.79-1.57-3.87
		c-1.04-1.08-2.25-1.62-3.73-1.62H104.92z M115.5,763.37c1.58,0,2.88-0.54,3.96-1.67c1.12-1.12,1.67-2.52,1.67-4.14
		c0-1.58-0.54-2.97-1.67-4.09c-1.08-1.12-2.38-1.71-3.96-1.71h-10.57v11.61H115.5z"/>
	<path class="st14" d="M139.71,766.88c-3.28,0-6.12-1.12-8.41-3.38c-2.29-2.29-3.42-5.08-3.42-8.42c0-3.33,1.12-6.12,3.42-8.37
		c2.29-2.29,5.13-3.42,8.41-3.42c3.29,0,6.07,1.12,8.37,3.42c2.29,2.25,3.46,5.04,3.46,8.37c0,3.33-1.17,6.12-3.46,8.42
		C145.78,765.76,142.99,766.88,139.71,766.88z M139.71,764c2.48,0,4.59-0.86,6.3-2.57c1.71-1.75,2.56-3.87,2.56-6.34
		c0-2.47-0.85-4.59-2.56-6.3c-1.71-1.76-3.82-2.61-6.3-2.61c-2.47,0-4.59,0.85-6.3,2.61c-1.71,1.71-2.56,3.82-2.56,6.3
		c0,2.48,0.85,4.59,2.56,6.34C135.12,763.15,137.23,764,139.71,764z"/>
	<path class="st14" d="M166.98,766.88c-3.28,0-6.12-1.12-8.41-3.38c-2.29-2.29-3.42-5.08-3.42-8.42c0-3.33,1.12-6.12,3.42-8.37
		c2.29-2.29,5.13-3.42,8.41-3.42c3.29,0,6.07,1.12,8.37,3.42c2.29,2.25,3.46,5.04,3.46,8.37c0,3.33-1.17,6.12-3.46,8.42
		C173.05,765.76,170.26,766.88,166.98,766.88z M166.98,764c2.48,0,4.59-0.86,6.3-2.57c1.71-1.75,2.56-3.87,2.56-6.34
		c0-2.47-0.85-4.59-2.56-6.3c-1.71-1.76-3.82-2.61-6.3-2.61c-2.47,0-4.59,0.85-6.3,2.61c-1.71,1.71-2.56,3.82-2.56,6.3
		c0,2.48,0.85,4.59,2.56,6.34C162.39,763.15,164.5,764,166.98,764z"/>
	<path class="st14" d="M201.94,766.34h-3.96l-11.25-10.84v10.84h-2.97v-31.5h2.97v18.94l10.71-9.94h4.05l-11.61,10.8L201.94,766.34z
		"/>
	<path class="st14" d="M249.64,752.3v14.04h-2.97V752.3c0-3.92-2.21-6.12-5.49-6.12c-3.73,0-6.25,2.43-6.25,7.69v12.46h-2.97V752.3
		c0-3.96-2.02-6.12-5.26-6.12c-3.6,0-6.48,2.47-6.48,7.69v12.46h-2.97v-22.5h2.97v3.29c1.62-2.57,3.92-3.83,6.88-3.83
		c3.24,0,5.53,1.35,6.84,4.09c1.62-2.75,4.05-4.09,7.29-4.09C246.27,743.3,249.64,746.77,249.64,752.3z"/>
	<path class="st14" d="M273.85,746.86c2.07,2.34,3.1,5.13,3.1,8.33c0,0.31-0.04,0.81-0.09,1.39h-19.75
		c0.58,4.54,4.14,7.42,8.95,7.42c3.42,0,5.98-1.53,7.24-3.83l2.61,1.53c-1.98,3.2-5.53,5.17-9.9,5.17c-3.56,0-6.44-1.12-8.64-3.33
		c-2.21-2.21-3.33-5.04-3.33-8.46c0-3.37,1.08-6.16,3.29-8.41c2.2-2.25,4.99-3.38,8.46-3.38
		C269.13,743.3,271.83,744.47,273.85,746.86z M257.11,753.7h16.78c-0.31-2.38-1.21-4.23-2.74-5.54c-1.53-1.3-3.33-1.98-5.35-1.98
		C261.12,746.18,257.7,749.24,257.11,753.7z"/>
	<path class="st14" d="M304.18,737.18c-4.36-0.36-6.48,1.44-6.48,5.76v0.9h6.48v2.88h-6.48v19.62h-2.97v-19.62h-3.82v-2.88h3.82
		v-0.9c0-5.89,3.38-9.04,9.45-8.64V737.18z"/>
	<path class="st14" d="M316.47,766.88c-3.28,0-6.12-1.12-8.41-3.38c-2.29-2.29-3.42-5.08-3.42-8.42c0-3.33,1.12-6.12,3.42-8.37
		c2.29-2.29,5.13-3.42,8.41-3.42c3.29,0,6.07,1.12,8.37,3.42c2.29,2.25,3.46,5.04,3.46,8.37c0,3.33-1.17,6.12-3.46,8.42
		C322.54,765.76,319.75,766.88,316.47,766.88z M316.47,764c2.48,0,4.59-0.86,6.3-2.57c1.71-1.75,2.56-3.87,2.56-6.34
		c0-2.47-0.85-4.59-2.56-6.3c-1.71-1.76-3.82-2.61-6.3-2.61c-2.47,0-4.59,0.85-6.3,2.61c-1.71,1.71-2.56,3.82-2.56,6.3
		c0,2.48,0.85,4.59,2.56,6.34C311.88,763.15,313.99,764,316.47,764z"/>
	<path class="st14" d="M336.22,747.58c1.4-2.74,3.73-4.09,7.11-4.09v2.88c-4.09,0-7.11,2.29-7.11,7.47v12.51h-2.97v-22.5h2.97
		V747.58z"/>
	<path class="st14" d="M377.98,743.84h2.97v22.5h-2.97v-4.41c-2.07,3.29-5.08,4.95-9.09,4.95c-3.2,0-5.94-1.12-8.23-3.42
		c-2.25-2.29-3.38-5.08-3.38-8.37c0-3.28,1.12-6.07,3.38-8.37c2.29-2.29,5.04-3.42,8.23-3.42c4,0,7.02,1.67,9.09,4.95V743.84z
		 M369.11,764c2.48,0,4.59-0.86,6.3-2.57c1.71-1.75,2.56-3.87,2.56-6.34c0-2.47-0.85-4.59-2.56-6.3c-1.71-1.76-3.82-2.61-6.3-2.61
		c-2.47,0-4.59,0.85-6.3,2.61c-1.71,1.71-2.56,3.82-2.56,6.3c0,2.48,0.85,4.59,2.56,6.34C364.52,763.15,366.64,764,369.11,764z"/>
	<path class="st14" d="M418.75,746.72c2.29,2.29,3.42,5.08,3.42,8.37c0,3.29-1.12,6.08-3.42,8.37c-2.25,2.29-4.99,3.42-8.19,3.42
		c-4,0-7.02-1.67-9.09-4.95v13.41h-2.97v-31.5h2.97v4.41c2.07-3.29,5.08-4.95,9.09-4.95C413.75,743.3,416.5,744.43,418.75,746.72z
		 M410.33,764c2.48,0,4.59-0.86,6.3-2.57c1.71-1.75,2.56-3.87,2.56-6.34c0-2.47-0.85-4.59-2.56-6.3c-1.71-1.76-3.82-2.61-6.3-2.61
		s-4.59,0.85-6.3,2.61c-1.71,1.71-2.56,3.82-2.56,6.3c0,2.48,0.85,4.59,2.56,6.34C405.74,763.15,407.86,764,410.33,764z"/>
	<path class="st14" d="M445.57,746.86c2.07,2.34,3.1,5.13,3.1,8.33c0,0.31-0.04,0.81-0.09,1.39h-19.75
		c0.58,4.54,4.14,7.42,8.95,7.42c3.42,0,5.98-1.53,7.24-3.83l2.61,1.53c-1.98,3.2-5.53,5.17-9.9,5.17c-3.56,0-6.44-1.12-8.64-3.33
		c-2.21-2.21-3.33-5.04-3.33-8.46c0-3.37,1.08-6.16,3.29-8.41c2.2-2.25,4.99-3.38,8.46-3.38
		C440.84,743.3,443.54,744.47,445.57,746.86z M428.83,753.7h16.78c-0.31-2.38-1.21-4.23-2.74-5.54c-1.53-1.3-3.33-1.98-5.35-1.98
		C432.83,746.18,429.41,749.24,428.83,753.7z"/>
	<path class="st14" d="M456.37,747.58c1.4-2.74,3.73-4.09,7.11-4.09v2.88c-4.09,0-7.11,2.29-7.11,7.47v12.51h-2.97v-22.5h2.97
		V747.58z"/>
	<path class="st14" d="M473.6,753.56c3.78,0.94,8.5,1.98,8.5,6.84c0,1.93-0.77,3.46-2.29,4.68c-1.48,1.21-3.46,1.8-5.85,1.8
		c-4.32,0-7.47-2.12-8.68-5.17l2.52-1.49c0.85,2.34,3.15,3.78,6.16,3.78c2.93,0,5.17-1.12,5.17-3.6c0-2.03-2.07-3.15-4.63-3.83
		c-3.78-0.95-8.5-1.98-8.5-6.84c0-1.84,0.72-3.38,2.16-4.59c1.48-1.21,3.33-1.84,5.53-1.84c3.65,0,6.57,1.75,7.88,4.59l-2.48,1.44
		c-0.85-2.11-2.65-3.15-5.4-3.15c-2.56,0-4.72,1.26-4.72,3.55C468.97,751.76,471.04,752.89,473.6,753.56z"/>
	<path class="st14" d="M496.87,766.88c-3.28,0-6.12-1.12-8.41-3.38c-2.29-2.29-3.42-5.08-3.42-8.42c0-3.33,1.12-6.12,3.42-8.37
		c2.29-2.29,5.13-3.42,8.41-3.42c3.29,0,6.07,1.12,8.37,3.42c2.29,2.25,3.46,5.04,3.46,8.37c0,3.33-1.17,6.12-3.46,8.42
		C502.94,765.76,500.15,766.88,496.87,766.88z M496.87,764c2.48,0,4.59-0.86,6.3-2.57c1.71-1.75,2.56-3.87,2.56-6.34
		c0-2.47-0.85-4.59-2.56-6.3c-1.71-1.76-3.82-2.61-6.3-2.61c-2.47,0-4.59,0.85-6.3,2.61c-1.71,1.71-2.56,3.82-2.56,6.3
		c0,2.48,0.85,4.59,2.56,6.34C492.28,763.15,494.39,764,496.87,764z"/>
	<path class="st14" d="M533,752.53v13.81h-2.97v-13.81c0-4-2.21-6.34-6.12-6.34c-4.32,0-7.29,2.66-7.29,8.37v11.79h-2.97v-22.5h2.97
		v3.51c1.67-2.7,4.19-4.05,7.56-4.05C529.63,743.3,533,746.9,533,752.53z"/>
	<path class="st14" d="M558.11,743.84h2.97v22.5h-2.97v-4.41c-2.07,3.29-5.08,4.95-9.09,4.95c-3.2,0-5.94-1.12-8.24-3.42
		c-2.25-2.29-3.37-5.08-3.37-8.37c0-3.28,1.12-6.07,3.37-8.37c2.29-2.29,5.04-3.42,8.24-3.42c4,0,7.02,1.67,9.09,4.95V743.84z
		 M549.25,764c2.47,0,4.59-0.86,6.3-2.57c1.71-1.75,2.56-3.87,2.56-6.34c0-2.47-0.85-4.59-2.56-6.3c-1.71-1.76-3.83-2.61-6.3-2.61
		s-4.59,0.85-6.3,2.61c-1.71,1.71-2.56,3.82-2.56,6.3c0,2.48,0.85,4.59,2.56,6.34C544.66,763.15,546.77,764,549.25,764z"/>
	<path class="st14" d="M567.38,766.34v-32.85h2.97v32.85H567.38z"/>
	<path class="st14" d="M576.61,738.44c-0.85-0.86-0.85-2.21,0-3.06c0.86-0.85,2.21-0.85,3.06,0c0.86,0.86,0.86,2.21,0,3.06
		C578.81,739.3,577.46,739.3,576.61,738.44z M576.65,766.34v-22.5h2.97v22.5H576.65z"/>
	<path class="st14" d="M589.16,763.46h12.96v2.88h-17.1v-1.98l12.51-17.64h-12.06v-2.88h16.2v1.98L589.16,763.46z"/>
	<path class="st14" d="M624.17,746.86c2.07,2.34,3.1,5.13,3.1,8.33c0,0.31-0.04,0.81-0.09,1.39h-19.75
		c0.58,4.54,4.14,7.42,8.95,7.42c3.42,0,5.99-1.53,7.25-3.83l2.61,1.53c-1.98,3.2-5.53,5.17-9.9,5.17c-3.55,0-6.43-1.12-8.64-3.33
		s-3.33-5.04-3.33-8.46c0-3.37,1.08-6.16,3.29-8.41s5-3.38,8.46-3.38C619.45,743.3,622.15,744.47,624.17,746.86z M607.43,753.7
		h16.78c-0.32-2.38-1.21-4.23-2.75-5.54c-1.53-1.3-3.33-1.98-5.35-1.98C611.44,746.18,608.02,749.24,607.43,753.7z"/>
	<path class="st14" d="M651.35,734.84h2.97v31.5h-2.97v-4.41c-2.07,3.29-5.08,4.95-9.09,4.95c-3.2,0-5.94-1.12-8.24-3.42
		c-2.25-2.29-3.38-5.08-3.38-8.37c0-3.28,1.12-6.07,3.38-8.37c2.29-2.29,5.04-3.42,8.24-3.42c4,0,7.02,1.67,9.09,4.95V734.84z
		 M642.49,764c2.47,0,4.59-0.86,6.3-2.57c1.71-1.75,2.57-3.87,2.57-6.34c0-2.47-0.86-4.59-2.57-6.3c-1.71-1.76-3.83-2.61-6.3-2.61
		s-4.59,0.85-6.3,2.61c-1.71,1.71-2.56,3.82-2.56,6.3c0,2.48,0.85,4.59,2.56,6.34C637.9,763.15,640.01,764,642.49,764z"/>
	<path class="st14" d="M688.07,743.84h3.15l-9.22,22.5h-3.6l-9.22-22.5h3.15l7.88,19.39L688.07,743.84z"/>
	<path class="st14" d="M694.78,738.44c-0.85-0.86-0.85-2.21,0-3.06c0.86-0.85,2.21-0.85,3.06,0c0.85,0.86,0.85,2.21,0,3.06
		C696.98,739.3,695.63,739.3,694.78,738.44z M694.82,766.34v-22.5h2.97v22.5H694.82z"/>
	<path class="st14" d="M723.44,734.84h2.97v31.5h-2.97v-4.41c-2.07,3.29-5.08,4.95-9.09,4.95c-3.19,0-5.94-1.12-8.23-3.42
		c-2.25-2.29-3.38-5.08-3.38-8.37c0-3.28,1.12-6.07,3.38-8.37c2.29-2.29,5.04-3.42,8.23-3.42c4,0,7.02,1.67,9.09,4.95V734.84z
		 M714.58,764c2.47,0,4.59-0.86,6.3-2.57c1.71-1.75,2.56-3.87,2.56-6.34c0-2.47-0.85-4.59-2.56-6.3c-1.71-1.76-3.83-2.61-6.3-2.61
		c-2.48,0-4.59,0.85-6.3,2.61c-1.71,1.71-2.57,3.82-2.57,6.3c0,2.48,0.86,4.59,2.57,6.34C709.99,763.15,712.1,764,714.58,764z"/>
	<path class="st14" d="M751.16,746.86c2.07,2.34,3.1,5.13,3.1,8.33c0,0.31-0.04,0.81-0.09,1.39h-19.75
		c0.58,4.54,4.14,7.42,8.96,7.42c3.42,0,5.98-1.53,7.25-3.83l2.61,1.53c-1.98,3.2-5.54,5.17-9.9,5.17c-3.55,0-6.43-1.12-8.64-3.33
		s-3.33-5.04-3.33-8.46c0-3.37,1.08-6.16,3.29-8.41s5-3.38,8.46-3.38C746.43,743.3,749.13,744.47,751.16,746.86z M734.42,753.7
		h16.79c-0.32-2.38-1.22-4.23-2.75-5.54c-1.53-1.3-3.33-1.98-5.35-1.98C738.42,746.18,735,749.24,734.42,753.7z"/>
	<path class="st14" d="M769.47,766.88c-3.29,0-6.12-1.12-8.42-3.38c-2.29-2.29-3.42-5.08-3.42-8.42c0-3.33,1.12-6.12,3.42-8.37
		c2.29-2.29,5.13-3.42,8.42-3.42c3.28,0,6.07,1.12,8.37,3.42c2.29,2.25,3.46,5.04,3.46,8.37c0,3.33-1.17,6.12-3.46,8.42
		C775.55,765.76,772.76,766.88,769.47,766.88z M769.47,764c2.47,0,4.59-0.86,6.3-2.57c1.71-1.75,2.56-3.87,2.56-6.34
		c0-2.47-0.85-4.59-2.56-6.3c-1.71-1.76-3.83-2.61-6.3-2.61c-2.48,0-4.59,0.85-6.3,2.61c-1.71,1.71-2.57,3.82-2.57,6.3
		c0,2.48,0.86,4.59,2.57,6.34C764.88,763.15,767,764,769.47,764z"/>
	<path class="st14" d="M804.48,753.56c3.78,0.94,8.5,1.98,8.5,6.84c0,1.93-0.76,3.46-2.29,4.68c-1.48,1.21-3.46,1.8-5.85,1.8
		c-4.32,0-7.47-2.12-8.68-5.17l2.52-1.49c0.85,2.34,3.15,3.78,6.16,3.78c2.92,0,5.17-1.12,5.17-3.6c0-2.03-2.07-3.15-4.63-3.83
		c-3.78-0.95-8.5-1.98-8.5-6.84c0-1.84,0.72-3.38,2.16-4.59c1.49-1.21,3.33-1.84,5.54-1.84c3.64,0,6.57,1.75,7.87,4.59l-2.47,1.44
		c-0.85-2.11-2.66-3.15-5.4-3.15c-2.57,0-4.72,1.26-4.72,3.55C799.85,751.76,801.92,752.89,804.48,753.56z"/>
	<path class="st14" d="M837.06,752.53v13.81h-2.97v-13.81c0-4-2.21-6.34-6.12-6.34c-4.32,0-7.29,2.66-7.29,8.37v11.79h-2.97v-31.5
		h2.97v12.51c1.67-2.7,4.18-4.05,7.56-4.05C833.69,743.3,837.06,746.9,837.06,752.53z"/>
	<path class="st14" d="M853.31,766.88c-3.29,0-6.12-1.12-8.42-3.38c-2.29-2.29-3.42-5.08-3.42-8.42c0-3.33,1.12-6.12,3.42-8.37
		c2.29-2.29,5.13-3.42,8.42-3.42c3.28,0,6.07,1.12,8.37,3.42c2.29,2.25,3.46,5.04,3.46,8.37c0,3.33-1.17,6.12-3.46,8.42
		C859.38,765.76,856.59,766.88,853.31,766.88z M853.31,764c2.47,0,4.59-0.86,6.3-2.57c1.71-1.75,2.56-3.87,2.56-6.34
		c0-2.47-0.85-4.59-2.56-6.3c-1.71-1.76-3.83-2.61-6.3-2.61c-2.48,0-4.59,0.85-6.3,2.61c-1.71,1.71-2.57,3.82-2.57,6.3
		c0,2.48,0.86,4.59,2.57,6.34C848.72,763.15,850.83,764,853.31,764z"/>
	<path class="st14" d="M885.93,743.84h2.97v22.5h-2.97v-3.51c-1.67,2.7-4.18,4.05-7.56,4.05c-5.45,0-8.82-3.6-8.82-9.22v-13.81h2.97
		v13.81c0,4,2.21,6.34,6.12,6.34c4.32,0,7.29-2.66,7.29-8.37V743.84z"/>
	<path class="st14" d="M907.13,746.72h-6.48v13.63c0,3.87,2.16,3.55,6.48,3.37v2.61c-6.3,0.95-9.45-0.76-9.45-5.98v-13.63h-4.72
		v-2.88h4.72v-5.4l2.97-0.9v6.3h6.48V746.72z"/>
	<path class="st14" d="M921.21,766.88c-3.29,0-6.12-1.12-8.42-3.38c-2.29-2.29-3.42-5.08-3.42-8.42c0-3.33,1.12-6.12,3.42-8.37
		c2.29-2.29,5.13-3.42,8.42-3.42c3.28,0,6.07,1.12,8.37,3.42c2.29,2.25,3.46,5.04,3.46,8.37c0,3.33-1.17,6.12-3.46,8.42
		C927.29,765.76,924.5,766.88,921.21,766.88z M921.21,764c2.47,0,4.59-0.86,6.3-2.57c1.71-1.75,2.56-3.87,2.56-6.34
		c0-2.47-0.85-4.59-2.56-6.3c-1.71-1.76-3.83-2.61-6.3-2.61c-2.48,0-4.59,0.85-6.3,2.61c-1.71,1.71-2.57,3.82-2.57,6.3
		c0,2.48,0.86,4.59,2.57,6.34C916.62,763.15,918.74,764,921.21,764z"/>
	<path class="st14" d="M953.84,743.84h2.97v22.5h-2.97v-3.51c-1.67,2.7-4.18,4.05-7.56,4.05c-5.45,0-8.82-3.6-8.82-9.22v-13.81h2.97
		v13.81c0,4,2.21,6.34,6.12,6.34c4.32,0,7.29-2.66,7.29-8.37V743.84z"/>
	<path class="st14" d="M975.03,746.72h-6.48v13.63c0,3.87,2.16,3.55,6.48,3.37v2.61c-6.3,0.95-9.45-0.76-9.45-5.98v-13.63h-4.72
		v-2.88h4.72v-5.4l2.97-0.9v6.3h6.48V746.72z"/>
</g>
</svg>
