<svg xmlns="http://www.w3.org/2000/svg" width="289.472" height="276.589" viewBox="0 0 289.472 276.589">
  <g id="Group_319" data-name="Group 319" transform="translate(-76.982 -33.635)">
    <g id="Group_317" data-name="Group 317" transform="translate(82.099 33.635)">
      <g id="Group_309" data-name="Group 309">
        <circle id="Ellipse_119" data-name="Ellipse 119" cx="97.789" cy="97.789" r="97.789" transform="translate(0 138.294) rotate(-45)" fill="#d3e7ef"/>
        <path id="Path_1195" data-name="Path 1195" d="M227.359,141.281v32.877a98.361,98.361,0,0,1-12.136,14.113V141.281H215.2v-.113c-.057-.242-5.956-5.133-10.493-8.85v-2.053l5.49-1.418a10.426,10.426,0,0,1,6.739.521c.953.412,1.943.8,2.931,1.122v4.293a96.639,96.639,0,0,1,7.469,6.385v.113Z" transform="translate(-9.196 20.52)" fill="#6dafc8" opacity="0.73"/>
      </g>
      <g id="Group_316" data-name="Group 316" transform="translate(22.089 55.764)">
        <g id="Group_310" data-name="Group 310" transform="translate(163.424)">
          <path id="Path_1196" data-name="Path 1196" d="M198.344,69.136l28.7,67.331,20.974-14.348,12.155,17.661,2.193-29.793,25.383-15.468Z" transform="translate(-198.344 -69.136)" fill="#ffb031"/>
          <path id="Path_1197" data-name="Path 1197" d="M244.1,112.841l-25.623,17.535,20.974-14.348L251.6,133.689,253.8,103.9,213.35,79.807Z" transform="translate(-189.779 -63.045)" fill="#ff9433"/>
          <path id="Path_1198" data-name="Path 1198" d="M253.26,111.2,213.35,79.807,253.8,103.9Z" transform="translate(-189.779 -63.045)" fill="#f73"/>
        </g>
        <g id="Group_311" data-name="Group 311" transform="translate(0 31.69)">
          <path id="Path_1199" data-name="Path 1199" d="M119.673,93.728c-.225-1.312-.512-2.62-.851-3.889l1.967-.528c.357,1.33.657,2.7.892,4.071Z" transform="translate(-80.307 -89.311)" fill="#ee7460"/>
          <path id="Path_1200" data-name="Path 1200" d="M109.907,134.959a16.848,16.848,0,0,1-8.182-2.728l1.126-1.7a14.813,14.813,0,0,0,7.191,2.394Zm8.462-1.66-.9-1.828a20.477,20.477,0,0,0,6.093-4.8l1.516,1.36A22.5,22.5,0,0,1,118.369,133.3Zm-22.311-7.574a16.773,16.773,0,0,1-1.756-7.4c0-.206,0-.413.013-.619l.024-.441,2.031.149-.019.371c-.008.182-.011.361-.011.54a14.751,14.751,0,0,0,1.544,6.5Zm78.813-.465-.011-2.037c2.655-.013,5.385-.121,8.115-.322l.149,2.031C180.348,125.137,177.571,125.247,174.871,125.259Zm-8.262-.267-1.3-.1c-2.5-.207-4.772-.49-6.935-.864l.346-2.007c2.1.364,4.315.638,6.759.842l1.274.1Zm24.722-.927-.273-2.018c2.62-.357,5.32-.8,8.025-1.324l.386,2C196.726,123.252,193.99,123.7,191.331,124.066Zm-41.055-2.058a39.439,39.439,0,0,1-6.671-2.958c-.319-.179-.638-.366-.953-.556l1.052-1.745c.3.181.6.355.9.526a37.464,37.464,0,0,0,6.329,2.8Zm-20.329-.812-1.766-1.015a45.935,45.935,0,0,0,3.36-7.263l1.915.69A47.619,47.619,0,0,1,129.947,121.2Zm77.573-.226-.479-1.979c2.546-.617,5.2-1.319,7.879-2.088l.561,1.96C212.773,119.638,210.095,120.344,207.52,120.97Zm15.828-4.511-.628-1.937q3.883-1.258,7.728-2.628l.68,1.919Q227.263,115.187,223.349,116.458Zm-87.5-2.683a56.152,56.152,0,0,0-6.065-3.991l-.682-.361.933-1.81c.242.124.485.253.726.385a58.8,58.8,0,0,1,6.286,4.13Zm-36.627-3.065L97.8,109.255a17.435,17.435,0,0,1,7.5-4.023l.685,1.923A15.87,15.87,0,0,0,99.225,110.711Zm22.44-3.976a32.368,32.368,0,0,0-7.061-.782l-.825.011-.05-2.037a34.536,34.536,0,0,1,8.382.82Zm13.944-1.2-2-.357a47.273,47.273,0,0,0,.723-7.976l2.037.011A49.089,49.089,0,0,1,135.608,105.534Z" transform="translate(-94.302 -84.808)" fill="#ee7460"/>
          <path id="Path_1201" data-name="Path 1201" d="M186.639,107.173l-.724-1.9q1.9-.726,3.8-1.467l.74,1.9Q188.552,106.442,186.639,107.173Z" transform="translate(-42.013 -81.04)" fill="#ee7460"/>
        </g>
        <g id="Group_315" data-name="Group 315" transform="translate(41.994 14.244)">
          <g id="Group_314" data-name="Group 314">
            <path id="Path_1203" data-name="Path 1203" d="M262.97,157.405,192,199.255l-70.967-41.85a.367.367,0,0,1,.013-.116c.058-.265,3.974-3.536,9.948-8.388.058-.047.1-.093.162-.138,19.6-15.91,60.845-48.494,60.845-48.494s41.25,32.584,60.845,48.494c6.066,4.921,10.053,8.25,10.111,8.526A.417.417,0,0,1,262.97,157.405Z" transform="translate(-121.037 -65.61)" fill="#7a4c08"/>
            <g id="Group_312" data-name="Group 312" transform="translate(11.693)">
              <path id="Path_1204" data-name="Path 1204" d="M216.941,78.2H140.373A11.892,11.892,0,0,0,128.481,90.1V205.866a11.892,11.892,0,0,0,11.892,11.892h95.942a11.893,11.893,0,0,0,11.892-11.892v-96.4Z" transform="translate(-128.481 -78.204)" fill="#fff"/>
              <path id="Path_1205" data-name="Path 1205" d="M184.8,97.579a11.89,11.89,0,0,0,11.891,11.891h19.375L184.8,78.2Z" transform="translate(-96.338 -78.204)" fill="#e6e8e8"/>
              <rect id="Rectangle_558" data-name="Rectangle 558" width="34.888" height="34.888" rx="2.697" transform="translate(18.111 19.57)" fill="#ee7460"/>
              <path id="Path_1206" data-name="Path 1206" d="M206.836,119.046H143.451a3.414,3.414,0,0,0-3.413,3.413h0a3.414,3.414,0,0,0,3.413,3.413h63.385a3.413,3.413,0,0,0,3.413-3.413h0A3.413,3.413,0,0,0,206.836,119.046Z" transform="translate(-121.885 -54.893)" fill="#d9dbdb"/>
              <path id="Path_1207" data-name="Path 1207" d="M206.836,129.87H143.451a3.414,3.414,0,0,0-3.413,3.413h0a3.414,3.414,0,0,0,3.413,3.413h63.385a3.413,3.413,0,0,0,3.413-3.413h0A3.413,3.413,0,0,0,206.836,129.87Z" transform="translate(-121.885 -48.715)" fill="#d9dbdb"/>
              <path id="Path_1208" data-name="Path 1208" d="M178.049,140.371h-34.6a3.412,3.412,0,0,0-3.413,3.412h0a3.412,3.412,0,0,0,3.413,3.413h34.6a3.412,3.412,0,0,0,3.413-3.413h0A3.412,3.412,0,0,0,178.049,140.371Z" transform="translate(-121.885 -42.722)" fill="#d9dbdb"/>
            </g>
            <g id="Group_313" data-name="Group 313" transform="translate(0.009 91.792)">
              <path id="Path_1209" data-name="Path 1209" d="M262.975,136.642v68.083a8.671,8.671,0,0,1-8.649,8.649H129.666a8.65,8.65,0,0,1-8.623-8.649V136.642l70.965,41.843Z" transform="translate(-121.043 -136.642)" fill="#ffb031"/>
              <path id="Path_1210" data-name="Path 1210" d="M259.708,200.366,214.034,154.69l-22.892,13.5-22.9-13.5-45.679,45.679a8.574,8.574,0,0,0,6.239,2.713H253.46A8.607,8.607,0,0,0,259.708,200.366Z" transform="translate(-120.177 -126.344)" fill="#ff9433"/>
            </g>
          </g>
        </g>
      </g>
    </g>
    <g id="Group_318" data-name="Group 318" transform="translate(76.982 39.877)">
      <path id="Path_1211" data-name="Path 1211" d="M106.926,150.21a6.844,6.844,0,1,0,6.844,6.844A6.843,6.843,0,0,0,106.926,150.21Zm0,9.613a2.77,2.77,0,1,1,2.771-2.769A2.769,2.769,0,0,1,106.926,159.823Z" transform="translate(-63.796 26.659)" fill="#5e5391"/>
      <path id="Path_1212" data-name="Path 1212" d="M223.674,167.84a6.843,6.843,0,1,0,6.844,6.844A6.843,6.843,0,0,0,223.674,167.84Zm0,9.613a2.77,2.77,0,1,1,2.771-2.769A2.769,2.769,0,0,1,223.674,177.453Z" transform="translate(2.837 36.722)" fill="#46829a"/>
      <path id="Path_1213" data-name="Path 1213" d="M258.735,100.173a5.239,5.239,0,1,0,5.24,5.238A5.24,5.24,0,0,0,258.735,100.173Zm0,7.361a2.121,2.121,0,1,1,2.121-2.122A2.121,2.121,0,0,1,258.735,107.534Z" transform="translate(23.764 -1.9)" fill="#baf4ee"/>
      <path id="Path_1214" data-name="Path 1214" d="M200.106,46.811a5.54,5.54,0,1,0,5.54,5.54A5.54,5.54,0,0,0,200.106,46.811Zm0,7.782a2.242,2.242,0,1,1,2.243-2.241A2.242,2.242,0,0,1,200.106,54.593Z" transform="translate(-9.87 -32.356)" fill="#46829a"/>
      <path id="Path_1215" data-name="Path 1215" d="M87.391,128.989a5.825,5.825,0,1,0,5.826,5.824A5.824,5.824,0,0,0,87.391,128.989Z" transform="translate(-74.365 14.547)" fill="#5e5391"/>
      <path id="Path_1216" data-name="Path 1216" d="M235.589,141.264a4.236,4.236,0,1,0,4.236,4.236A4.237,4.237,0,0,0,235.589,141.264Z" transform="translate(11.126 21.553)" fill="#5e5391"/>
      <path id="Path_1217" data-name="Path 1217" d="M146.983,47.919a6.192,6.192,0,1,0,6.192,6.192A6.191,6.191,0,0,0,146.983,47.919Z" transform="translate(-40.561 -31.724)" fill="#5e5391"/>
      <path id="Path_1218" data-name="Path 1218" d="M167.476,190.708a4.511,4.511,0,1,0,4.513,4.511A4.512,4.512,0,0,0,167.476,190.708Z" transform="translate(-27.906 49.774)" fill="#5e5391"/>
      <path id="Path_1219" data-name="Path 1219" d="M223.363,63.124a5.3,5.3,0,1,0,5.3,5.3A5.295,5.295,0,0,0,223.363,63.124Z" transform="translate(3.544 -23.045)" fill="#5e5391"/>
      <circle id="Ellipse_120" data-name="Ellipse 120" cx="3.014" cy="3.014" r="3.014" transform="translate(36.316 81.25)" fill="#46829a"/>
      <path id="Path_1220" data-name="Path 1220" d="M259.865,83.36a5.143,5.143,0,1,0,5.143,5.143A5.143,5.143,0,0,0,259.865,83.36Z" transform="translate(24.464 -11.496)" fill="#baf4ee"/>
      <circle id="Ellipse_121" data-name="Ellipse 121" cx="3.281" cy="3.281" r="3.281" transform="translate(6.856 99.077)" fill="#baf4ee"/>
      <path id="Path_1221" data-name="Path 1221" d="M174.087,42.8l2.061-2.061a1.837,1.837,0,0,0-2.6-2.6L171.489,40.2l-2.061-2.061a1.837,1.837,0,0,0-2.6,2.6l2.061,2.061-2.061,2.061a1.837,1.837,0,0,0,2.6,2.6l2.061-2.061,2.061,2.061a1.837,1.837,0,0,0,2.6-2.6Z" transform="translate(-26.006 -37.609)" fill="#46829a"/>
      <path id="Path_1222" data-name="Path 1222" d="M84.775,82.453l2.061-2.061a1.837,1.837,0,0,0-2.6-2.6l-2.061,2.061-2.061-2.061a1.837,1.837,0,0,0-2.6,2.6l2.061,2.061-2.061,2.061a1.837,1.837,0,0,0,2.6,2.6l2.061-2.061,2.061,2.061a1.837,1.837,0,0,0,2.6-2.6Z" transform="translate(-76.982 -14.978)" fill="#baf4ee"/>
      <path id="Path_1223" data-name="Path 1223" d="M239.088,162.281l1.745-1.745a1.556,1.556,0,0,0-2.2-2.2l-1.747,1.745-1.745-1.745a1.556,1.556,0,0,0-2.2,2.2l1.747,1.745-1.747,1.745a1.556,1.556,0,0,0,2.2,2.2l1.745-1.745,1.747,1.745a1.556,1.556,0,0,0,2.2-2.2Z" transform="translate(11.774 31.038)" fill="#46829a"/>
    </g>
  </g>
</svg>
