<?xml version="1.0" encoding="UTF-8"?>
<svg width="25px" height="25px" viewBox="0 0 25 25" version="1.1" xmlns="http://www.w3.org/2000/svg" xmlns:xlink="http://www.w3.org/1999/xlink">
    <!-- Generator: Sketch 51 (57462) - http://www.bohemiancoding.com/sketch -->
    <title>icon_social_google-25x25</title>
    <desc>Created with Sketch.</desc>
    <defs></defs>
    <g id="icon_social_google-25x25" stroke="none" stroke-width="1" fill="none" fill-rule="evenodd">
        <rect id="icon_bg" fill="#FFFFFF" fill-rule="nonzero" x="0" y="0" width="25.0454102" height="25.0454102" rx="4"></rect>
        <g id="google" transform="translate(4.007266, 4.007266)" fill-rule="nonzero">
            <path d="M3.77440201,10.291973 L3.18158107,12.5050559 L1.01483415,12.550893 C0.367294853,11.34985 0,9.97570427 0,8.51543945 C0,7.10337336 0.343411707,5.77177152 0.952132574,4.59926869 L0.952598261,4.59926869 L2.8816114,4.95292553 L3.72663572,6.87036299 C3.54977403,7.38597951 3.45337659,7.93948307 3.45337659,8.51543945 C3.45344312,9.14052593 3.56667185,9.73943409 3.77440201,10.291973 Z" id="Shape" fill="#FBBB00"></path>
            <path d="M16.8820916,6.92464892 C16.979886,7.43976648 17.0308789,7.97174861 17.0308789,8.51543945 C17.0308789,9.1250917 16.9667803,9.71977539 16.8446702,10.2934033 C16.4301413,12.2454016 15.346984,13.9498865 13.8465037,15.1560852 L13.846038,15.1556195 L11.4163437,15.0316467 L11.0724663,12.8849909 C12.0681074,12.3010845 12.8462057,11.3873047 13.2560778,10.2934033 L8.70264606,10.2934033 L8.70264606,6.92464892 L13.3225048,6.92464892 L16.8820916,6.92464892 Z" id="Shape" fill="#518EF8"></path>
            <path d="M13.8460048,15.1556195 L13.8464705,15.1560852 C12.3871702,16.3290537 10.533399,17.0308789 8.51543945,17.0308789 C5.27255388,17.0308789 2.45311183,15.218321 1.01483415,12.5509262 L3.77440201,10.2920063 C4.49352422,12.2112399 6.34493376,13.5774691 8.51543945,13.5774691 C9.44837903,13.5774691 10.3224091,13.3252657 11.0723997,12.8849909 L13.8460048,15.1556195 Z" id="Shape" fill="#28B446"></path>
            <path d="M13.9508178,1.96041383 L11.1921814,4.21886803 C10.4159791,3.73368756 9.49844049,3.45340987 8.51543945,3.45340987 C6.29580368,3.45340987 4.40976689,4.88230725 3.72666898,6.87036299 L0.952598261,4.59926867 L0.952132574,4.59926867 C2.3693545,1.86684378 5.22435516,0 8.51543945,0 C10.5815977,0 12.4760501,0.735986771 13.9508178,1.96041383 Z" id="Shape" fill="#F14336"></path>
        </g>
    </g>
</svg>