<?xml version="1.0" encoding="UTF-8"?>
<svg width="24px" height="24px" viewBox="0 0 24 24" version="1.1" xmlns="http://www.w3.org/2000/svg" xmlns:xlink="http://www.w3.org/1999/xlink">
    <!-- Generator: Sketch 51 (57462) - http://www.bohemiancoding.com/sketch -->
    <title>icon_social_FB</title>
    <desc>Created with Sketch.</desc>
    <defs></defs>
    <g id="Page-1" stroke="none" stroke-width="1" fill="none" fill-rule="evenodd">
        <g id="Artboard" transform="translate(-14.000000, -13.000000)">
            <rect fill="#DFDFDF" x="0" y="0" width="115" height="55"></rect>
            <g id="icon_social_FB" transform="translate(14.000000, 13.000000)" fill-rule="nonzero">
                <rect id="icon_bg" fill="#4464A2" x="0" y="0" width="24" height="24" rx="4"></rect>
                <path d="M16.553,24 L16.553,14.719 L19.685,14.719 L20.153,11.086 L16.553,11.086 L16.553,8.772 C16.553,7.721 16.847,7.009 18.353,7.009 L20.277,7.009 L20.277,3.765 C19.3491212,3.66899623 18.4168298,3.62193104 17.484,3.624 C14.716,3.624 12.829,5.312 12.829,8.412 L12.829,11.085 L9.703,11.085 L9.703,14.718 L12.827,14.718 L12.827,23.999 L16.553,24 Z" id="f" fill="#FFFFFF"></path>
            </g>
        </g>
    </g>
</svg>