<?xml version="1.0" encoding="UTF-8"?>
<svg width="24px" height="24px" viewBox="0 0 24 24" version="1.1" xmlns="http://www.w3.org/2000/svg" xmlns:xlink="http://www.w3.org/1999/xlink">
    <!-- Generator: Sketch 51 (57462) - http://www.bohemiancoding.com/sketch -->
    <title>icon_social_insta</title>
    <desc>Created with Sketch.</desc>
    <defs>
        <linearGradient x1="9.1540625%" y1="90.8465625%" x2="90.8459375%" y2="9.1534375%" id="linearGradient-1">
            <stop stop-color="#FFC107" offset="0%"></stop>
            <stop stop-color="#F44336" offset="50.7%"></stop>
            <stop stop-color="#9C27B0" offset="99%"></stop>
        </linearGradient>
    </defs>
    <g id="Page-1" stroke="none" stroke-width="1" fill="none" fill-rule="evenodd">
        <g id="Artboard" transform="translate(-48.000000, -13.000000)">
            <rect fill="#DFDFDF" x="0" y="0" width="115" height="55"></rect>
            <g id="icon_social_insta" transform="translate(48.000000, 13.000000)" fill-rule="nonzero">
                <rect id="icon_bg" fill="url(#linearGradient-1)" x="0" y="0" width="24" height="24" rx="4"></rect>
                <path d="M15.5844838,4 C18.0192829,4 20.0000946,5.98081177 20,8.41542156 L20,15.5845784 C20,18.0191882 18.0192829,20 15.5844838,20 L8.41532692,20 C5.98071713,20 4,18.0192829 4,15.5845784 L4,8.41542156 C4,5.98081177 5.98071713,4 8.41532692,4 L15.5844838,4 Z M18.5804971,15.5845784 L18.5804025,15.5845784 L18.5804025,8.41542156 C18.5804025,6.76357786 17.2364221,5.41959754 15.5844838,5.41959754 L8.41532692,5.41959754 C6.76348322,5.41959754 5.41959754,6.76357786 5.41959754,8.41542156 L5.41959754,15.5845784 C5.41959754,17.2365168 6.76348322,18.5804971 8.41532692,18.5804025 L15.5845784,18.5804025 C17.2365168,18.5804025 18.5804971,17.2365168 18.5804971,15.5845784 Z M12,7.87739409 C14.2733435,7.87739409 16.1227952,9.72684577 16.1227952,12.0001893 C16.1227952,14.2734381 14.2733435,16.1227952 12,16.1227952 C9.72665649,16.1227952 7.87720481,14.2734381 7.87720481,12.0001893 C7.87720481,9.72684577 9.72665649,7.87739409 12,7.87739409 Z M12,14.703103 C13.4904828,14.703103 14.7031976,13.4905774 14.7031976,12.0000946 C14.7031976,10.5095172 13.4905774,9.296897 12,9.296897 C10.5094226,9.296897 9.29680236,10.5095172 9.29680236,12.0000946 C9.29680236,13.4905774 10.5095172,14.703103 12,14.703103 Z M16.2957022,6.67367001 C16.5701577,6.67367001 16.8389348,6.78439862 17.0320001,6.97841029 C17.2260118,7.17147555 17.3367404,7.44025269 17.3367404,7.71470821 C17.3367404,7.98821734 17.2260118,8.25699448 17.0320001,8.45100614 C16.8379884,8.64407141 16.5701577,8.75574641 16.2957022,8.75574641 C16.022193,8.75574641 15.7534159,8.64407141 15.5603506,8.45100614 C15.366339,8.25699448 15.254664,7.98831198 15.254664,7.71470821 C15.254664,7.44025269 15.3662443,7.17147555 15.5603506,6.97841029 C15.7535105,6.78439862 16.022193,6.67367001 16.2957022,6.67367001 Z" id="insta" fill="#FFFFFF"></path>
            </g>
        </g>
    </g>
</svg>