<svg xmlns="http://www.w3.org/2000/svg" viewBox="0 0 24 24">
  <defs>
    <style>
      .cls-1 {
        fill: #ffb12a;
        opacity: 0;
      }

      .cls-2 {
        fill: #a5a5a5;
        fill-rule: evenodd;
      }
    </style>
  </defs>
  <g id="icon_social_G_24a" transform="translate(-696 -104)">
    <rect id="BOUNDRY" class="cls-1" width="24" height="24" transform="translate(696 104)"/>
    <g id="btn_google_dark_disabled_ios" transform="translate(686.394 94.4)">
      <path id="Shape-Copy" class="cls-2" d="M27,29.28V24.816H38.23a10.446,10.446,0,0,1,.3,2.46C38.53,34.128,33.934,39,27.01,39a12,12,0,1,1,0-24,11.487,11.487,0,0,1,8.028,3.132L31.63,21.444a6.6,6.6,0,0,0-4.62-1.776,7.345,7.345,0,0,0,0,14.688c4.6,0,6.288-3.18,6.6-5.064H27Z" transform="translate(-5.404 -5.4)"/>
    </g>
  </g>
</svg>
