<?xml version="1.0" encoding="UTF-8"?>
<svg width="24px" height="24px" viewBox="0 0 24 24" version="1.1" xmlns="http://www.w3.org/2000/svg" xmlns:xlink="http://www.w3.org/1999/xlink">
    <!-- Generator: Sketch 51 (57462) - http://www.bohemiancoding.com/sketch -->
    <title>icon_social_google</title>
    <desc>Created with Sketch.</desc>
    <defs></defs>
    <g id="Page-1" stroke="none" stroke-width="1" fill="none" fill-rule="evenodd">
        <g id="Artboard" transform="translate(-82.000000, -13.000000)">
            <rect fill="#DFDFDF" x="0" y="0" width="115" height="55"></rect>
            <g id="icon_social_google" transform="translate(82.000000, 13.000000)" fill-rule="nonzero">
                <rect id="icon_bg" fill="#FFFFFF" x="0" y="0" width="24" height="24" rx="4"></rect>
                <g id="google" transform="translate(5.000000, 5.000000)">
                    <path d="M3.10269531,8.460375 L2.615375,10.2796094 L0.834230469,10.3172891 C0.301929687,9.32998828 0,8.20039063 0,7 C0,5.83923047 0.282296875,4.74460547 0.7826875,3.78076563 L0.783070312,3.78076563 L2.36878906,4.07148438 L3.06342969,5.6476875 C2.91804297,6.07154297 2.83880078,6.52654297 2.83880078,7 C2.83885547,7.51384375 2.93193359,8.00616797 3.10269531,8.460375 Z" id="Shape" fill="#FBBB00"></path>
                    <path d="M13.8776914,5.6923125 C13.958082,6.11575781 14,6.55306641 14,7 C14,7.50115625 13.9473086,7.99000781 13.8469297,8.46155078 C13.5061719,10.0661641 12.6157773,11.4673125 11.3823281,12.4588516 L11.3819453,12.4584688 L9.38464844,12.3565586 L9.10196875,10.5919297 C9.92042187,10.1119375 10.5600469,9.36077734 10.8969766,8.46155078 L7.15389062,8.46155078 L7.15389062,5.6923125 L10.951582,5.6923125 L13.8776914,5.6923125 Z" id="Shape" fill="#518EF8"></path>
                    <path d="M11.381918,12.4584688 L11.3823008,12.4588516 C10.1827031,13.4230742 8.65883594,14 7,14 C4.33423047,14 2.01654687,12.5100117 0.834230469,10.3173164 L3.10269531,8.46040234 C3.69383984,10.038082 5.21576562,11.1611719 7,11.1611719 C7.76691016,11.1611719 8.48539453,10.9538516 9.10191406,10.5919297 L11.381918,12.4584688 Z" id="Shape" fill="#28B446"></path>
                    <path d="M11.4680781,1.61153125 L9.20037891,3.4680625 C8.5623125,3.06922656 7.8080625,2.83882813 7,2.83882813 C5.17537891,2.83882813 3.62498828,4.01343359 3.06345703,5.6476875 L0.783070312,3.78076562 L0.7826875,3.78076562 C1.94769531,1.53461328 4.29460938,0 7,0 C8.69845703,0 10.2557656,0.605007813 11.4680781,1.61153125 Z" id="Shape" fill="#F14336"></path>
                </g>
            </g>
        </g>
    </g>
</svg>