<svg xmlns="http://www.w3.org/2000/svg" viewBox="0 0 24 23.995">
  <defs>
    <style>
      .cls-1 {
        fill: #a5a5a5;
      }
    </style>
  </defs>
  <g id="icon_social_IG_24a" transform="translate(-4.1 -4.1)">
    <path id="Path_149" data-name="Path 149" class="cls-1" d="M16.1,6.262c3.2,0,3.581.014,4.848.071a6.547,6.547,0,0,1,2.229.414,3.723,3.723,0,0,1,1.381.9,3.665,3.665,0,0,1,.9,1.381,6.669,6.669,0,0,1,.414,2.229c.057,1.267.071,1.643.071,4.848s-.014,3.581-.071,4.848a6.546,6.546,0,0,1-.414,2.229,3.723,3.723,0,0,1-.9,1.381,3.665,3.665,0,0,1-1.381.9,6.669,6.669,0,0,1-2.229.414c-1.267.057-1.643.071-4.848.071s-3.581-.014-4.848-.071a6.547,6.547,0,0,1-2.229-.414,3.723,3.723,0,0,1-1.381-.9,3.665,3.665,0,0,1-.9-1.381,6.669,6.669,0,0,1-.414-2.229c-.057-1.267-.071-1.643-.071-4.848s.014-3.581.071-4.848a6.547,6.547,0,0,1,.414-2.229,3.723,3.723,0,0,1,.9-1.381,3.665,3.665,0,0,1,1.381-.9,6.669,6.669,0,0,1,2.229-.414c1.267-.062,1.643-.071,4.848-.071m0-2.162c-3.257,0-3.667.014-4.948.071a8.793,8.793,0,0,0-2.91.557A5.847,5.847,0,0,0,6.114,6.114,5.95,5.95,0,0,0,4.729,8.238a8.8,8.8,0,0,0-.557,2.914C4.114,12.429,4.1,12.838,4.1,16.1s.014,3.667.071,4.948a8.85,8.85,0,0,0,.557,2.914,5.847,5.847,0,0,0,1.386,2.124,5.95,5.95,0,0,0,2.124,1.386,8.8,8.8,0,0,0,2.914.557c1.281.057,1.686.071,4.948.071s3.667-.014,4.948-.071a8.85,8.85,0,0,0,2.914-.557,5.847,5.847,0,0,0,2.124-1.386,5.95,5.95,0,0,0,1.386-2.124,8.8,8.8,0,0,0,.557-2.914c.057-1.281.071-1.686.071-4.948s-.014-3.667-.071-4.948a8.85,8.85,0,0,0-.557-2.914A5.847,5.847,0,0,0,26.086,6.11a5.95,5.95,0,0,0-2.124-1.386,8.8,8.8,0,0,0-2.914-.557c-1.286-.052-1.7-.067-4.952-.067Z" transform="translate(0 0)"/>
    <path id="Path_150" data-name="Path 150" class="cls-1" d="M132.762,126.6a6.162,6.162,0,1,0,6.162,6.162A6.163,6.163,0,0,0,132.762,126.6Zm0,10.162a4,4,0,1,1,4-4A4,4,0,0,1,132.762,136.762Z" transform="translate(-116.667 -116.667)"/>
    <circle id="Ellipse_67" data-name="Ellipse 67" class="cls-1" cx="1.438" cy="1.438" r="1.438" transform="translate(21.062 8.252)"/>
  </g>
</svg>
