<svg width="600" height="400" xmlns="http://www.w3.org/2000/svg" preserveAspectRatio="none">
 <!-- Created with Method Draw - http://github.com/duopixel/Method-Draw/ -->
 <g>
  <title>background</title>
  <rect fill="#ffffff" id="canvas_background" height="402" width="602" y="-1" x="-1"/>
  <g display="none" overflow="visible" y="0" x="0" height="100%" width="100%" id="canvasGrid">
   <rect fill="url(#gridpattern)" stroke-width="0" y="0" x="0" height="100%" width="100%"/>
  </g>
 </g>
 <g>
  <title>Layer 1</title>
  <path stroke="#ffffff" id="svg_1" d="m-1.490017,139.5c-1.174435,-0.5 120.463106,158 303.50662,157.5c176.164705,-0.66667 300.989981,-158.33333 299.983325,-158l0,-143l-604.999928,2l0.188748,17.6875l0.188748,17.6875l0.188748,17.6875l0.188748,17.6875l0.188748,17.6875l0.188748,17.6875l0.188748,17.6875l0.094374,8.84375l0.023596,2.21094l0.023596,2.21094l0.023586,2.21093c0.000987,0.09212 0.001963,0.18425 0.00295,0.27637c0.000987,0.09212 0.001963,0.18424 0.00295,0.27636c0.000987,0.09213 0.001963,0.18425 0.00295,0.27637c0.000987,0.09212 0.001963,0.18425 0.00295,0.27637c0.000987,0.09212 0.001963,0.18425 0.00295,0.27637c0.000987,0.09212 0.001963,0.18424 0.00295,0.27637c0.000987,0.09212 0.001963,0.18424 0.00295,0.27636c0.000493,0.04606 0.000987,0.09212 0.00147,0.13819c0.000493,0.04606 0.000987,0.09212 0.00148,0.13818z" stroke-width="1.5" fill="#ff6c58"/>
 </g>
</svg>