<svg xmlns="http://www.w3.org/2000/svg" xmlns:xlink="http://www.w3.org/1999/xlink" width="40" height="40" viewBox="0 0 40 40"><defs><path id="h010a" d="M225.77 942.84a20.17 20.17 0 0 0-5.9-6.93.81.81 0 0 0-.97 1.3 18.53 18.53 0 0 1 5.42 6.38 18.38 18.38 0 0 1-16.33 26.77 18.38 18.38 0 0 1-18.36-18.37 18.38 18.38 0 0 1 18.36-18.36.81.81 0 0 0 0-1.63A20.01 20.01 0 0 0 188 951.99a20.01 20.01 0 0 0 19.99 19.99 20.01 20.01 0 0 0 17.78-29.14z"/><path id="h010b" d="M202.87 942.7a.81.81 0 0 0-.4.71v17.86a.81.81 0 0 0 1.62 0v-16.42l12.05 7.17-8.86 5.7a.81.81 0 1 0 .88 1.37l9.96-6.42a.81.81 0 0 0-.02-1.38l-14.4-8.57a.81.81 0 0 0-.83-.01z"/></defs><g><g transform="translate(-188 -932)"><g><use fill="#fff" xlink:href="#h010a"/></g><g><use fill="#fff" xlink:href="#h010b"/></g></g></g></svg>