<?xml version="1.0" encoding="utf-8"?>
<!-- Generator: Adobe Illustrator 23.0.3, SVG Export Plug-In . SVG Version: 6.00 Build 0)  -->
<svg version="1.1" id="Layer_1" xmlns="http://www.w3.org/2000/svg" xmlns:xlink="http://www.w3.org/1999/xlink" x="0px" y="0px"
	 viewBox="0 0 1080 1080" style="enable-background:new 0 0 1080 1080;" xml:space="preserve">
<style type="text/css">
	.st0{clip-path:url(#SVGID_2_);}
	.st1{fill:#46829A;}
	.st2{clip-path:url(#SVGID_4_);}
	.st3{fill:#CEE8F0;}
	.st4{clip-path:url(#SVGID_6_);}
	.st5{clip-path:url(#SVGID_8_);}
	.st6{fill:#6DAFC8;}
	.st7{clip-path:url(#SVGID_10_);}
	.st8{clip-path:url(#SVGID_12_);}
	.st9{fill:#FF6C58;}
	.st10{enable-background:new    ;}
	.st11{fill:#FFFFFF;}
	.st12{fill:url(#SVGID_13_);}
	.st13{fill:url(#SVGID_14_);}
	.st14{fill:url(#SVGID_15_);}
	.st15{fill:url(#SVGID_16_);}
	.st16{fill:url(#SVGID_17_);}
	.st17{fill:url(#SVGID_18_);}
	.st18{fill:url(#SVGID_19_);}
	.st19{fill:url(#SVGID_20_);}
	.st20{fill:url(#SVGID_21_);}
</style>
<g>
	<defs>
		<polygon id="SVGID_1_" points="184.15,374.01 161.29,430.01 144.41,371.92 84.09,367.49 134.12,333.49 119.69,274.75 
			167.49,311.82 218.9,279.95 198.41,336.86 244.61,375.91 		"/>
	</defs>
	<clipPath id="SVGID_2_">
		<use xlink:href="#SVGID_1_"  style="overflow:visible;"/>
	</clipPath>
	<g id="Group_255" transform="translate(13 66.383) rotate(-33)" class="st0">
		<path id="Path_356" class="st1" d="M-105.49,231.74l162.98,0l0,155.11l-162.98,0L-105.49,231.74z"/>
	</g>
</g>
<g>
	<defs>
		<polygon id="SVGID_3_" points="101.12,126.86 84.13,156.05 79.33,122.63 46.34,115.5 76.62,100.59 73.21,67 96.75,91.2 
			127.64,77.59 111.89,107.45 134.39,132.62 		"/>
	</defs>
	<clipPath id="SVGID_4_">
		<use xlink:href="#SVGID_3_"  style="overflow:visible;"/>
	</clipPath>
	<g id="Group_257" transform="translate(8.158 9.305) rotate(-25)" class="st2">
		<path id="Path_360" class="st3" d="M-10.91,79.15l90.96,0l0,86.57l-90.96,0L-10.91,79.15z"/>
	</g>
</g>
<g>
	<defs>
		<polygon id="SVGID_5_" points="944.08,226.44 901.43,224.8 935.87,199.59 924.25,158.52 958.87,183.48 994.34,159.74 
			981.29,200.38 1014.83,226.77 972.15,226.93 957.42,266.98 		"/>
	</defs>
	<clipPath id="SVGID_6_">
		<use xlink:href="#SVGID_5_"  style="overflow:visible;"/>
	</clipPath>
	<g id="Group_256" transform="matrix(0.799, 0.602, -0.602, 0.799, 233.088, 19.039)" class="st4">
		<path id="Path_358" class="st1" d="M634.91-346.36h114.95v109.41H634.91V-346.36z"/>
	</g>
</g>
<g>
	<defs>
		<polygon id="SVGID_7_" points="941.31,346.37 925.84,314.37 957.84,329.84 983.5,305.24 978.67,340.45 1010,357.25 975.02,363.55 
			968.73,398.53 951.93,367.2 916.72,372.03 		"/>
	</defs>
	<clipPath id="SVGID_8_">
		<use xlink:href="#SVGID_7_"  style="overflow:visible;"/>
	</clipPath>
	<g id="Group_254" transform="translate(249.861 64.441) rotate(99)" class="st5">
		<path id="Path_354" class="st6" d="M122.41-797.25h95.75l0,91.14l-95.75,0L122.41-797.25z"/>
	</g>
</g>
<g>
	<defs>
		<polygon id="SVGID_9_" points="99.28,529.06 64.97,519.74 97.64,505.73 95.9,470.23 119.32,496.97 152.55,484.34 134.36,514.87 
			156.63,542.57 121.97,534.7 102.51,564.45 		"/>
	</defs>
	<clipPath id="SVGID_10_">
		<use xlink:href="#SVGID_9_"  style="overflow:visible;"/>
	</clipPath>
	<g id="Group_279" transform="matrix(0.643, 0.766, -0.766, 0.643, 30.154, 98.201)" class="st7">
		<path id="Path_409" class="st6" d="M326.52,153.84h95.75v91.14l-95.75,0V153.84z"/>
	</g>
</g>
<g>
	<defs>
		<polygon id="SVGID_11_" points="896.26,554.69 862.98,560.42 885.5,535.27 869.75,505.41 900.64,519.03 924.18,494.82 
			920.77,528.41 951.05,543.32 918.05,550.46 913.24,583.87 		"/>
	</defs>
	<clipPath id="SVGID_12_">
		<use xlink:href="#SVGID_11_"  style="overflow:visible;"/>
	</clipPath>
	<g id="Group_280" transform="translate(217.008 105) rotate(25)" class="st8">
		<path id="Path_411" class="st3" d="M760.18,53.81l90.96,0l0,86.57l-90.96,0V53.81z"/>
	</g>
</g>
<path id="Rectangle_975" class="st9" d="M-0.68,940.47h1079.75l0,0v77.42c0,33.75-27.36,61.12-61.12,61.12H60.44
	c-33.75,0-61.12-27.36-61.12-61.12V940.47L-0.68,940.47z"/>
<g class="st10">
	<path class="st11" d="M224.08,1014.74c0,3.19-1.14,5.87-3.37,8.04c-2.22,2.17-4.96,3.25-8.21,3.25h-17.23v-39.93h15.97
		c3.14,0,5.76,1.03,7.93,3.14s3.25,4.68,3.25,7.76c0,3.54-1.43,6.33-4.33,8.33C221.75,1007.1,224.08,1010.46,224.08,1014.74z
		 M200.58,991.07v12.21h10.67c3.37,0,5.93-2.68,5.93-6.1c0-1.65-0.57-3.08-1.77-4.28c-1.14-1.2-2.51-1.83-4.16-1.83H200.58z
		 M212.51,1021.07c3.59,0,6.33-2.85,6.33-6.5c0-1.77-0.63-3.31-1.88-4.56c-1.2-1.25-2.68-1.88-4.45-1.88h-11.92v12.95H212.51z"/>
	<path class="st11" d="M243.42,1026.77c-4.16,0-7.76-1.43-10.67-4.33c-2.91-2.91-4.33-6.44-4.33-10.67c0-4.22,1.43-7.76,4.33-10.67
		c2.91-2.91,6.5-4.33,10.67-4.33c4.16,0,7.76,1.43,10.67,4.33c2.91,2.91,4.39,6.45,4.39,10.67c0,4.22-1.48,7.76-4.39,10.67
		C251.18,1025.35,247.59,1026.77,243.42,1026.77z M250.61,1019.02c1.94-1.94,2.91-4.33,2.91-7.24c0-2.91-0.97-5.3-2.91-7.24
		s-4.33-2.91-7.19-2.91c-2.79,0-5.19,0.97-7.13,2.91s-2.91,4.33-2.91,7.24c0,2.91,0.97,5.3,2.91,7.24s4.33,2.91,7.13,2.91
		C246.27,1021.93,248.67,1020.96,250.61,1019.02z"/>
	<path class="st11" d="M277.76,1026.77c-4.16,0-7.76-1.43-10.67-4.33c-2.91-2.91-4.33-6.44-4.33-10.67c0-4.22,1.43-7.76,4.33-10.67
		c2.91-2.91,6.5-4.33,10.67-4.33c4.16,0,7.76,1.43,10.67,4.33c2.91,2.91,4.39,6.45,4.39,10.67c0,4.22-1.48,7.76-4.39,10.67
		C285.52,1025.35,281.93,1026.77,277.76,1026.77z M284.95,1019.02c1.94-1.94,2.91-4.33,2.91-7.24c0-2.91-0.97-5.3-2.91-7.24
		s-4.33-2.91-7.19-2.91c-2.79,0-5.19,0.97-7.13,2.91s-2.91,4.33-2.91,7.24c0,2.91,0.97,5.3,2.91,7.24s4.33,2.91,7.13,2.91
		C280.61,1021.93,283.01,1020.96,284.95,1019.02z"/>
	<path class="st11" d="M322.82,1026.03h-6.16l-13-13.52v13.52h-4.96v-39.93h4.96v24.01l12.32-12.61h6.39l-13.63,13.8L322.82,1026.03
		z"/>
	<path class="st11" d="M383.23,1008.29v17.74h-4.96v-17.57c0-4.39-2.45-6.96-6.27-6.96c-4.28,0-7.02,2.79-7.02,8.67v15.86h-4.96
		v-17.57c0-4.39-2.34-6.96-6.05-6.96c-4.16,0-7.3,2.91-7.3,8.67v15.86h-4.96v-28.52h4.96v3.82c1.94-3.02,4.79-4.56,8.5-4.56
		c3.82,0,6.62,1.6,8.38,4.85c2-3.25,4.96-4.85,8.95-4.85C378.9,996.77,383.23,1001.22,383.23,1008.29z"/>
	<path class="st11" d="M393.62,1014.05c0.97,5.08,4.91,8.04,10.32,8.04c3.76,0,6.5-1.37,8.21-4.16l4.22,2.4
		c-2.79,4.28-6.96,6.45-12.55,6.45c-4.51,0-8.21-1.43-11.07-4.22c-2.79-2.85-4.22-6.45-4.22-10.78c0-4.28,1.37-7.87,4.16-10.72
		s6.39-4.28,10.78-4.28c4.16,0,7.59,1.48,10.21,4.45c2.68,2.91,3.99,6.45,3.99,10.61c0,0.74-0.06,1.48-0.17,2.22H393.62z
		 M393.62,1009.72h19.05c-0.86-5.42-4.62-8.27-9.18-8.27C398.18,1001.45,394.47,1004.7,393.62,1009.72z"/>
	<path class="st11" d="M451.06,1026.77c-4.16,0-7.76-1.43-10.67-4.33c-2.91-2.91-4.33-6.44-4.33-10.67c0-4.22,1.43-7.76,4.33-10.67
		c2.91-2.91,6.5-4.33,10.67-4.33c4.16,0,7.76,1.43,10.67,4.33c2.91,2.91,4.39,6.45,4.39,10.67c0,4.22-1.48,7.76-4.39,10.67
		C458.82,1025.35,455.22,1026.77,451.06,1026.77z M458.25,1019.02c1.94-1.94,2.91-4.33,2.91-7.24c0-2.91-0.97-5.3-2.91-7.24
		s-4.33-2.91-7.19-2.91c-2.79,0-5.19,0.97-7.13,2.91s-2.91,4.33-2.91,7.24c0,2.91,0.97,5.3,2.91,7.24s4.33,2.91,7.13,2.91
		C453.91,1021.93,456.31,1020.96,458.25,1019.02z"/>
	<path class="st11" d="M497.26,1008.52v17.51h-4.96v-17.23c0-4.62-2.68-7.3-7.07-7.3c-4.96,0-8.27,3.02-8.27,9.41v15.12H472v-28.52
		h4.96v4.11c2-3.25,5.08-4.85,9.24-4.85C492.87,996.77,497.26,1001.28,497.26,1008.52z"/>
	<path class="st11" d="M516.72,1016.96l4.56-2.62c1.54,4.85,5.13,7.24,10.67,7.24c5.48,0,8.44-2.45,8.44-6.16
		c0-1.88-0.74-3.31-2.17-4.28c-1.43-0.97-3.88-1.94-7.24-3.02l-3.82-1.25c-0.86-0.34-2-0.86-3.31-1.48
		c-1.31-0.68-2.28-1.37-2.91-2.05c-1.31-1.43-2.51-3.76-2.51-6.67c0-3.48,1.2-6.22,3.65-8.21c2.45-2.05,5.42-3.08,8.9-3.08
		c6.33,0,11.18,3.48,13.52,8.73l-4.45,2.57c-1.71-4.11-4.73-6.16-9.07-6.16c-4.33,0-7.24,2.28-7.24,5.93c0,1.77,0.63,3.08,1.88,3.99
		c1.25,0.91,3.42,1.88,6.5,2.85l2.34,0.74c0.46,0.17,1.14,0.4,2.11,0.8c2,0.74,2.45,1.03,3.99,1.88c1.6,0.86,2.11,1.48,3.08,2.62
		c1.43,1.43,2,3.48,2,5.99c0,3.48-1.25,6.27-3.82,8.38c-2.57,2.05-5.88,3.08-9.98,3.08
		C524.36,1026.77,518.83,1023.07,516.72,1016.96z"/>
	<path class="st11" d="M566.06,1002.3h-7.59v15.46c0,4.39,2.51,4.05,7.59,3.82v4.45c-8.67,1.14-12.55-1.2-12.55-8.27v-15.46h-5.65
		v-4.79h5.65v-6.5l4.96-1.48v7.99h7.59V1002.3z"/>
	<path class="st11" d="M594.12,997.51h4.96v28.52h-4.96v-4.91c-2.45,3.76-6.05,5.65-10.78,5.65c-3.99,0-7.42-1.43-10.21-4.33
		c-2.79-2.91-4.22-6.5-4.22-10.67c0-4.16,1.43-7.7,4.22-10.61c2.79-2.91,6.22-4.39,10.21-4.39c4.73,0,8.33,1.88,10.78,5.65V997.51z
		 M591.21,1019.07c1.94-2,2.91-4.39,2.91-7.3c0-2.91-0.97-5.3-2.91-7.24c-1.94-2-4.33-2.97-7.24-2.97c-2.85,0-5.25,0.97-7.19,2.97
		c-1.94,1.94-2.91,4.33-2.91,7.24c0,2.91,0.97,5.3,2.91,7.3c1.94,1.94,4.33,2.91,7.19,2.91
		C586.88,1021.98,589.27,1021.01,591.21,1019.07z"/>
	<path class="st11" d="M611.58,1002.3c1.65-3.54,4.62-5.3,8.9-5.3v5.19c-2.45-0.11-4.51,0.51-6.27,1.94
		c-1.77,1.43-2.62,3.65-2.62,6.79v15.12h-4.96v-28.52h4.96V1002.3z"/>
	<path class="st11" d="M634.17,1009.49c4.45,0.97,10.38,2.62,10.32,8.73c0,2.57-1.03,4.68-3.02,6.22c-2,1.54-4.51,2.34-7.64,2.34
		c-5.53,0-9.7-2.62-11.35-6.67l4.28-2.45c0.91,2.74,3.59,4.45,7.07,4.45c3.25,0,5.65-1.2,5.65-3.88c0-2.22-2.51-3.48-5.65-4.22
		c-4.51-1.2-10.32-2.68-10.32-8.73c0-2.45,0.97-4.51,2.85-6.1c1.94-1.6,4.33-2.4,7.24-2.4c4.62,0,8.44,2.22,10.27,5.93l-4.16,2.34
		c-1.03-2.45-3.08-3.65-6.1-3.65c-2.79,0-5.08,1.37-5.08,3.82C628.52,1007.44,631.03,1008.64,634.17,1009.49z"/>
	<path class="st11" d="M662.97,1026.77c-4.16,0-7.76-1.43-10.67-4.33c-2.91-2.91-4.33-6.44-4.33-10.67c0-4.22,1.43-7.76,4.33-10.67
		c2.91-2.91,6.5-4.33,10.67-4.33c4.16,0,7.76,1.43,10.67,4.33c2.91,2.91,4.39,6.45,4.39,10.67c0,4.22-1.48,7.76-4.39,10.67
		C670.73,1025.35,667.14,1026.77,662.97,1026.77z M670.16,1019.02c1.94-1.94,2.91-4.33,2.91-7.24c0-2.91-0.97-5.3-2.91-7.24
		c-1.94-1.94-4.33-2.91-7.19-2.91c-2.79,0-5.19,0.97-7.13,2.91c-1.94,1.94-2.91,4.33-2.91,7.24c0,2.91,0.97,5.3,2.91,7.24
		c1.94,1.94,4.33,2.91,7.13,2.91C665.83,1021.93,668.22,1020.96,670.16,1019.02z"/>
	<path class="st11" d="M709.18,1008.52v17.51h-4.96v-17.23c0-4.62-2.68-7.3-7.07-7.3c-4.96,0-8.27,3.02-8.27,9.41v15.12h-4.96
		v-28.52h4.96v4.11c2-3.25,5.08-4.85,9.24-4.85C704.78,996.77,709.18,1001.28,709.18,1008.52z"/>
	<path class="st11" d="M739.69,997.51h4.96v28.52h-4.96v-4.91c-2.45,3.76-6.05,5.65-10.78,5.65c-3.99,0-7.42-1.43-10.21-4.33
		c-2.79-2.91-4.22-6.5-4.22-10.67c0-4.16,1.43-7.7,4.22-10.61c2.79-2.91,6.22-4.39,10.21-4.39c4.73,0,8.33,1.88,10.78,5.65V997.51z
		 M736.79,1019.07c1.94-2,2.91-4.39,2.91-7.3c0-2.91-0.97-5.3-2.91-7.24c-1.94-2-4.33-2.97-7.24-2.97c-2.85,0-5.25,0.97-7.19,2.97
		c-1.94,1.94-2.91,4.33-2.91,7.24c0,2.91,0.97,5.3,2.91,7.3c1.94,1.94,4.33,2.91,7.19,2.91
		C732.45,1021.98,734.85,1021.01,736.79,1019.07z"/>
	<path class="st11" d="M751.62,1022.95c0-2.05,1.65-3.71,3.71-3.71c2.11,0,3.71,1.65,3.71,3.71s-1.6,3.71-3.71,3.71
		C753.27,1026.66,751.62,1025.01,751.62,1022.95z"/>
	<path class="st11" d="M766.45,1022.5c-2.85-2.91-4.28-6.45-4.28-10.72c0-4.28,1.43-7.81,4.28-10.67c2.85-2.91,6.45-4.33,10.72-4.33
		c5.65,0,10.38,2.91,12.61,7.47l-4.16,2.4c-1.43-3.02-4.62-5.02-8.44-5.02c-2.85,0-5.25,0.97-7.19,2.91
		c-1.88,1.94-2.85,4.33-2.85,7.24c0,2.85,0.97,5.25,2.85,7.19c1.94,1.94,4.33,2.91,7.19,2.91c3.82,0,7.02-1.94,8.61-4.96l4.22,2.45
		c-2.45,4.51-7.3,7.42-12.83,7.42C772.9,1026.77,769.3,1025.35,766.45,1022.5z"/>
	<path class="st11" d="M807.92,1026.77c-4.16,0-7.76-1.43-10.67-4.33c-2.91-2.91-4.33-6.44-4.33-10.67c0-4.22,1.43-7.76,4.33-10.67
		c2.91-2.91,6.5-4.33,10.67-4.33c4.16,0,7.76,1.43,10.67,4.33c2.91,2.91,4.39,6.45,4.39,10.67c0,4.22-1.48,7.76-4.39,10.67
		C815.68,1025.35,812.08,1026.77,807.92,1026.77z M815.11,1019.02c1.94-1.94,2.91-4.33,2.91-7.24c0-2.91-0.97-5.3-2.91-7.24
		c-1.94-1.94-4.33-2.91-7.19-2.91c-2.79,0-5.19,0.97-7.13,2.91c-1.94,1.94-2.91,4.33-2.91,7.24c0,2.91,0.97,5.3,2.91,7.24
		c1.94,1.94,4.33,2.91,7.13,2.91C810.77,1021.93,813.17,1020.96,815.11,1019.02z"/>
	<path class="st11" d="M870.38,1008.29v17.74h-4.96v-17.57c0-4.39-2.45-6.96-6.27-6.96c-4.28,0-7.02,2.79-7.02,8.67v15.86h-4.96
		v-17.57c0-4.39-2.34-6.96-6.05-6.96c-4.16,0-7.3,2.91-7.3,8.67v15.86h-4.96v-28.52h4.96v3.82c1.94-3.02,4.79-4.56,8.5-4.56
		c3.82,0,6.62,1.6,8.38,4.85c2-3.25,4.96-4.85,8.96-4.85C866.04,996.77,870.38,1001.22,870.38,1008.29z"/>
	<path class="st11" d="M876.71,1022.95c0-2.05,1.65-3.71,3.71-3.71c2.11,0,3.71,1.65,3.71,3.71s-1.6,3.71-3.71,3.71
		C878.37,1026.66,876.71,1025.01,876.71,1022.95z M878.54,1014.34l-1.08-16.83v-11.41h5.99v11.41l-1.08,16.83H878.54z"/>
</g>
<g>
	<g>
		<g>
			
				<linearGradient id="SVGID_13_" gradientUnits="userSpaceOnUse" x1="149.3983" y1="585.6536" x2="86.5256" y2="450.8226" gradientTransform="matrix(1 0 0 1 207 -372)">
				<stop  offset="0" style="stop-color:#FF6E59"/>
				<stop  offset="1" style="stop-color:#FFB029"/>
			</linearGradient>
			<path class="st12" d="M385.93,119.26H254.68c-3.56,0-5.01,4.54-2.1,6.58l37.25,26.12c1.34,0.94,1.88,2.66,1.32,4.19l-15.96,43.53
				c-1.23,3.36,2.67,6.27,5.58,4.16l107.31-78.05C390.93,123.73,389.45,119.26,385.93,119.26z M354.76,136.62l-51.48,37.44
				c-2.91,2.11-6.81-0.8-5.58-4.16l6.53-17.82c0.56-1.53,0.02-3.25-1.32-4.19l-16.02-11.24c-2.9-2.04-1.45-6.58,2.1-6.58h63.61
				C356.13,130.08,357.61,134.55,354.76,136.62z M309.44,115.65h28.45c2.46,0,4.21-2.39,3.44-4.71l-14.21-43.31
				c-1.09-3.31-5.8-3.31-6.89,0l-14.24,43.31C305.23,113.27,306.97,115.65,309.44,115.65z M354.33,160.68
				c-0.76-2.33-3.59-3.24-5.59-1.79l-23.17,16.85c-1.98,1.44-1.97,4.38,0.01,5.81l37.44,26.96c2.84,2.04,6.65-0.71,5.57-4.02
				L354.33,160.68z"/>
		</g>
	</g>
	<g>
		<linearGradient id="SVGID_14_" gradientUnits="userSpaceOnUse" x1="463.113" y1="211.8375" x2="309.2052" y2="-118.2188">
			<stop  offset="0" style="stop-color:#FFB029"/>
			<stop  offset="1" style="stop-color:#FF6E59"/>
		</linearGradient>
		<path class="st13" d="M437.9,145.73c-6.36-2.57-9.59-3.9-9.59-8.26c0-4.35,3.12-6.58,7.14-6.58c3.46,0,6.25,1.9,7.59,4.8
			l7.59-4.24c-2.34-5.13-8.25-8.7-15.06-8.7c-8.92,0-16.51,5.58-16.51,15.17c0,8.14,5.47,12.49,14.84,15.95
			c6.25,2.45,9.48,4.02,9.48,8.03c0,4.13-2.9,7.14-8.48,7.14c-4.35,0-7.59-1.9-9.82-6.14l-8.25,3.12
			c2.23,6.25,10.26,11.16,18.74,11.16c9.48,0,16.96-6.25,16.96-15.51C452.51,152.2,444.71,148.52,437.9,145.73z"/>
		<linearGradient id="SVGID_15_" gradientUnits="userSpaceOnUse" x1="537.1735" y1="272.5528" x2="323.267" y2="-186.1714">
			<stop  offset="0" style="stop-color:#FFB029"/>
			<stop  offset="1" style="stop-color:#FF6E59"/>
		</linearGradient>
		<polygon class="st14" points="479.17,104.9 469.92,104.9 469.92,123.75 458.87,123.75 458.87,132.12 469.92,132.12 469.92,176.18 
			479.17,176.18 479.17,132.12 490.11,132.12 490.11,123.75 479.17,123.75 		"/>
		<linearGradient id="SVGID_16_" gradientUnits="userSpaceOnUse" x1="586.0166" y1="276.343" x2="461.6687" y2="9.6781">
			<stop  offset="0" style="stop-color:#FFB029"/>
			<stop  offset="1" style="stop-color:#FF6E59"/>
		</linearGradient>
		<path class="st15" d="M540.64,131.23c-4.46-5.24-11.16-8.48-19.41-8.48c-14.06,0-26.21,12.16-26.21,27.22
			c0,15.06,12.16,27.22,26.21,27.22c8.26,0,14.95-3.23,19.41-8.48v7.47h9.15v-52.43h-9.15V131.23z M522.46,168.26
			c-10.15,0-18.29-8.14-18.29-18.29c0-10.15,8.14-18.29,18.29-18.29c10.15,0,18.18,8.14,18.18,18.29
			C540.64,160.12,532.61,168.26,522.46,168.26z"/>
		<linearGradient id="SVGID_17_" gradientUnits="userSpaceOnUse" x1="703.7242" y1="419.4673" x2="488.6879" y2="-41.6795">
			<stop  offset="0" style="stop-color:#FFB029"/>
			<stop  offset="1" style="stop-color:#FF6E59"/>
		</linearGradient>
		<path class="st16" d="M572.32,131.9v-8.14h-9.15v52.43h9.15v-27.78c0-9.59,5.91-16.73,13.72-16.73c1.34,0,2.9,0.33,4.24,0.89
			l3.12-7.81c-1.78-1.12-4.46-2.01-7.59-2.01C579.57,122.75,575.11,126.32,572.32,131.9z"/>
		<linearGradient id="SVGID_18_" gradientUnits="userSpaceOnUse" x1="731.0377" y1="396.7077" x2="577.1302" y2="66.652">
			<stop  offset="0" style="stop-color:#FFB029"/>
			<stop  offset="1" style="stop-color:#FF6E59"/>
		</linearGradient>
		<path class="st17" d="M619.62,145.73c-6.36-2.57-9.59-3.9-9.59-8.26c0-4.35,3.12-6.58,7.14-6.58c3.46,0,6.25,1.9,7.59,4.8
			l7.59-4.24c-2.34-5.13-8.25-8.7-15.06-8.7c-8.92,0-16.51,5.58-16.51,15.17c0,8.14,5.47,12.49,14.84,15.95
			c6.25,2.45,9.48,4.02,9.48,8.03c0,4.13-2.9,7.14-8.48,7.14c-4.35,0-7.59-1.9-9.82-6.14l-8.25,3.12
			c2.23,6.25,10.26,11.16,18.74,11.16c9.48,0,16.96-6.25,16.96-15.51C634.23,152.2,626.42,148.52,619.62,145.73z"/>
		<linearGradient id="SVGID_19_" gradientUnits="userSpaceOnUse" x1="781.5317" y1="391.5719" x2="657.0017" y2="124.5163">
			<stop  offset="0" style="stop-color:#FFB029"/>
			<stop  offset="1" style="stop-color:#FF6E59"/>
		</linearGradient>
		<path class="st18" d="M668.92,122.75c-15.28,0-27.44,12.16-27.44,27.22c0,15.06,12.16,27.22,27.44,27.22
			c15.17,0,27.33-12.16,27.33-27.22C696.25,134.91,684.1,122.75,668.92,122.75z M668.92,168.26c-10.26,0-18.29-8.14-18.29-18.29
			c0-10.15,8.03-18.29,18.29-18.29c10.04,0,18.18,8.14,18.18,18.29C687.11,160.12,678.96,168.26,668.92,168.26z"/>
		<linearGradient id="SVGID_20_" gradientUnits="userSpaceOnUse" x1="871.8873" y1="470.3257" x2="734.0781" y2="174.793">
			<stop  offset="0" style="stop-color:#FFB029"/>
			<stop  offset="1" style="stop-color:#FF6E59"/>
		</linearGradient>
		<path class="st19" d="M727.15,122.75c-4.91,0-9.37,1.78-12.72,4.8v-3.79h-9.15v52.43h9.15v-34.25
			c0.11-6.02,5.02-10.71,11.38-10.71c6.14,0,11.16,4.91,11.16,11.16v33.8h9.15v-34.47C746.12,131.23,737.64,122.75,727.15,122.75z"
			/>
		<linearGradient id="SVGID_21_" gradientUnits="userSpaceOnUse" x1="946.4822" y1="490.5329" x2="822.1345" y2="223.8685">
			<stop  offset="0" style="stop-color:#FFB029"/>
			<stop  offset="1" style="stop-color:#FF6E59"/>
		</linearGradient>
		<path class="st20" d="M801.23,123.75v7.47c-4.46-5.24-11.16-8.48-19.41-8.48c-14.06,0-26.21,12.16-26.21,27.22
			c0,15.06,12.16,27.22,26.21,27.22c8.26,0,14.95-3.23,19.41-8.48v7.47h9.15v-52.43H801.23z M783.04,168.26
			c-10.15,0-18.29-8.14-18.29-18.29c0-10.15,8.14-18.29,18.29-18.29c10.15,0,18.18,8.14,18.18,18.29
			C801.23,160.12,793.19,168.26,783.04,168.26z"/>
	</g>
</g>
</svg>
