<?xml version="1.0" encoding="UTF-8"?>
<svg width="18px" height="20px" viewBox="0 0 18 20" version="1.1" xmlns="http://www.w3.org/2000/svg" xmlns:xlink="http://www.w3.org/1999/xlink">
    <!-- Generator: Sketch 52.6 (67491) - http://www.bohemiancoding.com/sketch -->
    <title>Fill 1</title>
    <desc>Created with Sketch.</desc>
    <g id="Page-1" stroke="none" stroke-width="1" fill="none" fill-rule="evenodd">
        <path d="M14.5823199,12.8488039 C13.484079,12.8488039 12.5048802,13.3968714 11.8784468,14.2440453 L6.63305791,11.1752721 C6.75596574,10.8056198 6.8233668,10.4069497 6.8233668,9.99576932 C6.8233668,9.58048801 6.75596574,9.18607458 6.62919226,8.81237331 L11.8705173,5.74744148 C12.4928868,6.59887199 13.4763477,7.15124805 14.5784542,7.15124805 C16.4576554,7.15124805 17.9920705,5.54810645 17.9920705,3.5755202 C17.9920705,1.60293396 16.4617193,0 14.5784542,0 C12.6951891,0 11.164838,1.60293396 11.164838,3.5755202 C11.164838,3.99080152 11.2322391,4.38947158 11.3590126,4.75912386 L6.12160276,7.82384805 C5.49918364,6.96831663 4.51592102,6.42024912 3.41361623,6.42024912 C1.53441502,6.42024912 0,8.02318308 0,9.99576932 C0,11.9683556 1.53441502,13.5714453 3.41768011,13.5714453 C4.51978667,13.5714453 5.50304929,13.0191211 6.12953229,12.1635897 L11.371006,15.2325705 C11.2440343,15.6063237 11.1727675,16.0089908 11.1727675,16.4242722 C11.1727675,18.3928094 12.7031187,20 14.5863838,20 C16.4696489,20 18,18.3968584 18,16.4242722 C18,14.4516859 16.465585,12.8488039 14.5823199,12.8488039 Z M14.5823199,1.12541236 C15.8749336,1.12541236 16.9255973,2.22585593 16.9255973,3.57977684 C16.9255973,4.9334901 15.8749336,6.03393367 14.5823199,6.03393367 C13.2899044,6.03393367 12.2392903,4.9334901 12.2392903,3.57977684 C12.2392903,2.22585593 13.2937701,1.12541236 14.5823199,1.12541236 Z M3.41768011,12.4501338 C2.12506642,12.4501338 1.0744523,11.3496902 1.0744523,9.99576932 C1.0744523,8.64200415 2.12506642,7.54156058 3.41768011,7.54156058 C4.71009557,7.54156058 5.76070969,8.64200415 5.76070969,9.99576932 C5.76070969,11.3496902 4.70622992,12.4501338 3.41768011,12.4501338 Z M14.5823199,18.8746395 C13.2899044,18.8746395 12.2392903,17.7739364 12.2392903,16.4202232 C12.2392903,15.0663023 13.2899044,13.9658587 14.5823199,13.9658587 C15.8749336,13.9658587 16.9255973,15.0663023 16.9255973,16.4202232 C16.9255973,17.7739364 15.8749336,18.8746395 14.5823199,18.8746395 Z" id="Fill-1" fill="#FF6C5E"></path>
    </g>
</svg>