<?xml version="1.0" encoding="utf-8"?>
<!-- Generator: Adobe Illustrator 23.0.3, SVG Export Plug-In . SVG Version: 6.00 Build 0)  -->
<svg version="1.1" id="Layer_1" xmlns="http://www.w3.org/2000/svg" xmlns:xlink="http://www.w3.org/1999/xlink" x="0px" y="0px"
	 viewBox="0 0 411.9 107.2" style="enable-background:new 0 0 411.9 107.2;" xml:space="preserve">
<style type="text/css">
	.st0{fill:url(#SVGID_1_);}
	.st1{fill:url(#SVGID_2_);}
	.st2{fill:url(#SVGID_3_);}
	.st3{fill:url(#SVGID_4_);}
	.st4{fill:url(#SVGID_5_);}
	.st5{fill:url(#SVGID_6_);}
	.st6{fill:url(#SVGID_7_);}
	.st7{fill:url(#SVGID_8_);}
	.st8{fill:url(#SVGID_9_);}
</style>
<g id="Layer_1-2">
	
		<linearGradient id="SVGID_1_" gradientUnits="userSpaceOnUse" x1="78.1744" y1="-4.326717e-02" x2="32.0486" y2="98.8579" gradientTransform="matrix(1 0 0 -1 0 109.7285)">
		<stop  offset="0" style="stop-color:#FF6E59"/>
		<stop  offset="1" style="stop-color:#FFB029"/>
	</linearGradient>
	<path class="st0" d="M99.8,40.6H3.6c-1.5,0-2.7,1.2-2.7,2.6c0,0.9,0.4,1.7,1.1,2.2l27.3,19.2c1,0.7,1.4,2,1,3.1L18.6,99.6
		c-0.5,1.4,0.2,2.9,1.6,3.4c0.8,0.3,1.8,0.2,2.5-0.4l78.7-57.2c1.2-0.9,1.5-2.5,0.6-3.7C101.5,41,100.7,40.6,99.8,40.6z M77,53.3
		L39.2,80.8c-1.2,0.9-2.9,0.6-3.7-0.6c-0.5-0.7-0.6-1.6-0.4-2.5l4.8-13.1c0.4-1.1,0-2.4-1-3.1l-11.8-8.2c-1.2-0.8-1.5-2.5-0.6-3.7
		c0.5-0.7,1.3-1.1,2.2-1.1h46.7c1.5,0,2.7,1.2,2.7,2.6C78.1,52,77.7,52.8,77,53.3z M43.7,37.9h20.9c1.5,0,2.6-1.2,2.7-2.6
		c0-0.3,0-0.6-0.1-0.8L56.7,2.7c-0.5-1.4-2-2.1-3.4-1.7c-0.8,0.3-1.4,0.9-1.7,1.7L41.2,34.5c-0.4,1.4,0.4,2.9,1.8,3.3
		C43.2,37.9,43.5,37.9,43.7,37.9z M76.7,70.9c-0.5-1.4-2-2.2-3.4-1.7c-0.3,0.1-0.5,0.2-0.8,0.4L55.6,81.9c-1.2,0.8-1.4,2.5-0.6,3.7
		c0.2,0.2,0.4,0.4,0.6,0.6L83.1,106c1.2,0.9,2.8,0.6,3.7-0.6c0.5-0.7,0.6-1.6,0.4-2.4L76.7,70.9z"/>
	
		<linearGradient id="SVGID_2_" gradientUnits="userSpaceOnUse" x1="156.5209" y1="2.2774" x2="43.621" y2="244.4074" gradientTransform="matrix(1 0 0 -1 0 109.7285)">
		<stop  offset="0" style="stop-color:#FFB029"/>
		<stop  offset="1" style="stop-color:#FF6E59"/>
	</linearGradient>
	<path class="st1" d="M138,59c-4.7-1.9-7-2.9-7-6.1s2.3-4.8,5.2-4.8c2.4,0,4.6,1.3,5.6,3.5l5.6-3.1c-1.7-3.8-6.1-6.4-11-6.4
		c-6.5,0-12.1,4.1-12.1,11.1c0,6,4,9.2,10.9,11.7c4.6,1.8,7,3,7,5.9S140.1,76,136,76c-3.1,0.1-5.9-1.7-7.2-4.5l-6.3,2.4
		c1.6,4.6,7.5,8.2,13.8,8.2c7,0,12.4-4.6,12.4-11.4C148.7,63.8,143,61.1,138,59z"/>
	
		<linearGradient id="SVGID_3_" gradientUnits="userSpaceOnUse" x1="210.8265" y1="-42.2741" x2="53.9064" y2="294.2459" gradientTransform="matrix(1 0 0 -1 0 109.7285)">
		<stop  offset="0" style="stop-color:#FFB029"/>
		<stop  offset="1" style="stop-color:#FF6E59"/>
	</linearGradient>
	<polygon class="st2" points="168.2,29.1 161.5,29.1 161.5,42.9 153.4,42.9 153.4,49 161.5,49 161.5,81.4 168.2,81.4 168.2,49 
		176.3,49 176.3,42.9 168.2,42.9 	"/>
	
		<linearGradient id="SVGID_4_" gradientUnits="userSpaceOnUse" x1="246.6045" y1="-45.0783" x2="155.3844" y2="150.5517" gradientTransform="matrix(1 0 0 -1 0 109.7285)">
		<stop  offset="0" style="stop-color:#FFB029"/>
		<stop  offset="1" style="stop-color:#FF6E59"/>
	</linearGradient>
	<path class="st3" d="M213.3,48.4c-3.6-4.1-8.8-6.4-14.2-6.2c-10.3,0-19.2,8.9-19.2,20s8.9,20,19.2,20c5.4,0.2,10.7-2.1,14.2-6.2
		v5.5h6.7V42.9h-6.7V48.4z M200,75.5c-7.4,0-13.5-5.9-13.5-13.3s5.9-13.5,13.3-13.5c7.4,0,13.5,5.9,13.5,13.3c0,0,0,0,0,0.1
		C213.4,69.5,207.4,75.5,200,75.5L200,75.5z"/>
	
		<linearGradient id="SVGID_5_" gradientUnits="userSpaceOnUse" x1="332.9978" y1="-150.048" x2="175.2479" y2="188.242" gradientTransform="matrix(1 0 0 -1 0 109.7285)">
		<stop  offset="0" style="stop-color:#FFB029"/>
		<stop  offset="1" style="stop-color:#FF6E59"/>
	</linearGradient>
	<path class="st4" d="M236.6,48.9v-6h-6.7v38.5h6.7V61c0-7,4.3-12.3,10.1-12.3c1.1,0,2.1,0.2,3.1,0.7l2.3-5.7
		c-1.7-1-3.6-1.5-5.6-1.5C241.9,42.1,238.6,44.8,236.6,48.9z"/>
	
		<linearGradient id="SVGID_6_" gradientUnits="userSpaceOnUse" x1="353.1253" y1="-133.3072" x2="240.2154" y2="108.8127" gradientTransform="matrix(1 0 0 -1 0 109.7285)">
		<stop  offset="0" style="stop-color:#FFB029"/>
		<stop  offset="1" style="stop-color:#FF6E59"/>
	</linearGradient>
	<path class="st5" d="M271.3,59c-4.7-1.9-7-2.9-7-6.1s2.3-4.8,5.2-4.8c2.4,0,4.6,1.3,5.6,3.5l5.6-3.1c-1.7-3.8-6.1-6.4-11-6.4
		c-6.5,0-12.1,4.1-12.1,11.1c0,6,4,9.2,10.9,11.7c4.6,1.8,7,3,7,5.9s-2.1,5.2-6.2,5.2c-3.1,0.1-5.9-1.7-7.2-4.5l-6.2,2.3
		c1.6,4.6,7.5,8.2,13.8,8.2c7,0,12.4-4.6,12.4-11.4C282,63.8,276.3,61.1,271.3,59z"/>
	
		<linearGradient id="SVGID_7_" gradientUnits="userSpaceOnUse" x1="390.0711" y1="-129.5911" x2="298.7211" y2="66.3188" gradientTransform="matrix(1 0 0 -1 0 109.7285)">
		<stop  offset="0" style="stop-color:#FFB029"/>
		<stop  offset="1" style="stop-color:#FF6E59"/>
	</linearGradient>
	<path class="st6" d="M307.4,42.1c-11,0-20,9-20,20s9,20,20,20s20-9,20-20S318.5,42.1,307.4,42.1z M307.4,75.5
		c-7.4,0-13.5-5.9-13.5-13.3s5.9-13.5,13.3-13.5s13.5,5.9,13.5,13.3c0,0,0,0,0,0.1C320.7,69.5,314.8,75.5,307.4,75.5
		C307.5,75.5,307.5,75.5,307.4,75.5z"/>
	
		<linearGradient id="SVGID_8_" gradientUnits="userSpaceOnUse" x1="456.3855" y1="-187.3451" x2="355.2955" y2="29.4549" gradientTransform="matrix(1 0 0 -1 0 109.7285)">
		<stop  offset="0" style="stop-color:#FFB029"/>
		<stop  offset="1" style="stop-color:#FF6E59"/>
	</linearGradient>
	<path class="st7" d="M350.2,42.1c-3.4,0-6.8,1.2-9.3,3.5v-2.7h-6.7v38.5h6.7V56.2c0.2-4.6,4.1-8.1,8.7-7.9c4.4,0.2,7.8,3.8,7.9,8.2
		v24.8h6.7V56.1C364.1,48.4,357.9,42.2,350.2,42.1L350.2,42.1z"/>
	
		<linearGradient id="SVGID_9_" gradientUnits="userSpaceOnUse" x1="511.0685" y1="-202.1869" x2="419.8486" y2="-6.5671" gradientTransform="matrix(1 0 0 -1 0 109.7285)">
		<stop  offset="0" style="stop-color:#FFB029"/>
		<stop  offset="1" style="stop-color:#FF6E59"/>
	</linearGradient>
	<path class="st8" d="M404.5,42.9v5.5c-3.6-4.1-8.8-6.4-14.2-6.2c-10.3,0-19.2,8.9-19.2,20s8.9,20,19.2,20
		c5.4,0.2,10.7-2.2,14.2-6.3v5.5h6.7V42.9H404.5z M391.2,75.6c-7.4,0-13.5-5.9-13.5-13.3s5.9-13.5,13.3-13.5s13.5,5.8,13.5,13.3
		c0,0,0,0,0,0.1C404.5,69.5,398.5,75.5,391.2,75.6L391.2,75.6L391.2,75.6z"/>
</g>
</svg>
