<svg xmlns="http://www.w3.org/2000/svg" viewBox="0 0 24 24">
  <defs>
    <style>
      .cls-1 {
        fill: #a5a5a5;
      }

      .cls-2 {
        fill: none;
      }

      .cls-3 {
        fill: #fff;
      }
    </style>
  </defs>
  <g id="icon_social_TW_24a" transform="translate(-149.24 -0.24)">
    <rect id="icon_bg" class="cls-1" width="24" height="24" rx="4" transform="translate(149.24 0.24)"/>
    <rect id="Rectangle_150" data-name="Rectangle 150" class="cls-2" width="24" height="24" transform="translate(149.24 0.24)"/>
    <path id="Path_147" data-name="Path 147" class="cls-3" d="M79.717,110.639a8.7,8.7,0,0,0,8.756-8.756c0-.133,0-.266-.009-.4A6.262,6.262,0,0,0,90,99.891a6.143,6.143,0,0,1-1.768.484,3.088,3.088,0,0,0,1.353-1.7,6.167,6.167,0,0,1-1.954.747,3.08,3.08,0,0,0-5.245,2.807,8.737,8.737,0,0,1-6.343-3.215A3.08,3.08,0,0,0,77,103.12a3.055,3.055,0,0,1-1.4-.385v.039a3.079,3.079,0,0,0,2.469,3.017,3.073,3.073,0,0,1-1.39.053,3.081,3.081,0,0,0,2.875,2.137,6.175,6.175,0,0,1-3.822,1.32,6.265,6.265,0,0,1-.733-.044,8.713,8.713,0,0,0,4.717,1.38" transform="translate(78.44 -92.21)"/>
  </g>
</svg>
