<?xml version="1.0" encoding="UTF-8"?>
<svg width="23px" height="22px" viewBox="0 0 23 22" version="1.1" xmlns="http://www.w3.org/2000/svg" xmlns:xlink="http://www.w3.org/1999/xlink">
    <!-- Generator: Sketch 51.2 (57519) - http://www.bohemiancoding.com/sketch -->
    <title>Combined Shape</title>
    <desc>Created with Sketch.</desc>
    <defs></defs>
    <g id="Page-1" stroke="none" stroke-width="1" fill="none" fill-rule="evenodd">
        <g id="upload" transform="translate(-1.000000, -1.000000)" fill="#FF6C58" fill-rule="nonzero">
            <g transform="translate(1.000000, 1.000000)" id="Combined-Shape">
                <path d="M11,3.08062485 L7.62469505,5.78086881 C7.19343311,6.12587836 6.56414074,6.05595698 6.21913119,5.62469505 C5.87412164,5.19343311 5.94404302,4.56414074 6.37530495,4.21913119 L11.375305,0.219131191 C11.7405236,-0.0730437302 12.2594764,-0.0730437302 12.624695,0.219131191 L17.624695,4.21913119 C18.055957,4.56414074 18.1258784,5.19343311 17.7808688,5.62469505 C17.4358593,6.05595698 16.8065669,6.12587836 16.375305,5.78086881 L13,3.08062485 L13,15 C13,15.5522847 12.5522847,16 12,16 C11.4477153,16 11,15.5522847 11,15 L11,3.08062485 Z M0,8 C0,7.44771525 0.44771525,7 1,7 C1.55228475,7 2,7.44771525 2,8 L2,19 C2,19.5522847 2.44771525,20 3,20 L20,20 C20.5522847,20 21,19.5522847 21,19 L21,8 C21,7.44771525 21.4477153,7 22,7 C22.5522847,7 23,7.44771525 23,8 L23,19 C23,20.6568542 21.6568542,22 20,22 L3,22 C1.34314575,22 2.22044605e-16,20.6568542 0,19 L0,8 Z"></path>
            </g>
        </g>
    </g>
</svg>