<?xml version="1.0" standalone="no"?>
<!DOCTYPE svg PUBLIC "-//W3C//DTD SVG 20010904//EN"
 "http://www.w3.org/TR/2001/REC-SVG-20010904/DTD/svg10.dtd">
<svg version="1.0" xmlns="http://www.w3.org/2000/svg"
 width="1280.000000pt" height="640.000000pt" viewBox="0 0 1280.000000 640.000000"
 preserveAspectRatio="xMidYMid meet">
<g transform="translate(0.000000,640.000000) scale(0.100000,-0.100000)"
fill="#000000" stroke="none">
<path d="M1541 4203 c-26 -222 -41 -394 -61 -693 -31 -494 -27 -460 -60 -460
-32 0 -35 12 -46 179 -4 56 -10 104 -14 106 -4 3 -11 -60 -15 -140 l-7 -145
-53 0 -52 0 -7 77 c-3 43 -9 142 -13 220 -3 79 -9 143 -13 143 -8 0 -19 -126
-21 -230 -3 -169 -16 -99 -22 125 -9 288 -17 403 -27 384 -7 -12 -21 -163 -34
-369 -2 -36 -12 -85 -22 -109 -16 -41 -18 -43 -26 -21 -5 13 -10 21 -13 19 -2
-3 -10 -58 -16 -122 l-12 -117 -42 0 -42 0 -7 68 c-3 37 -10 195 -16 352 -14
367 -29 657 -36 687 -8 31 -19 29 -32 -4 -6 -16 -25 -255 -42 -533 -17 -278
-33 -520 -36 -537 -4 -27 -10 -33 -29 -33 -21 0 -24 5 -30 58 -3 31 -9 73 -12
92 -6 33 -6 34 -13 10 -5 -14 -8 -55 -9 -92 l-1 -68 -60 0 c-33 0 -60 4 -60 8
0 5 -7 60 -15 123 -9 63 -20 194 -25 293 -13 236 -23 270 -49 174 -12 -46 -41
-348 -41 -435 0 -42 -3 -51 -15 -47 -12 5 -15 -4 -17 -42 0 -27 -1 -55 -1 -61
1 -7 -9 -13 -22 -13 -19 0 -23 7 -29 50 -4 27 -11 52 -17 55 -17 11 -38 -15
-46 -58 -8 -41 -10 -42 -51 -45 -23 -2 -42 0 -42 5 -1 26 -53 373 -71 466 -34
182 -41 181 -59 -8 -6 -66 -18 -162 -26 -212 -8 -51 -14 -129 -14 -173 l0 -80
59 0 59 0 7 -65 c5 -48 11 -68 25 -75 12 -6 23 -30 30 -65 7 -32 17 -55 24
-55 7 0 21 26 30 58 10 31 22 68 28 82 10 25 11 25 24 -15 8 -22 21 -45 29
-51 7 -6 19 -31 26 -57 6 -26 15 -47 19 -47 9 0 30 112 30 162 0 19 3 56 6 82
l7 46 47 0 48 0 7 -82 c4 -46 15 -112 25 -148 16 -57 30 -172 56 -457 3 -40
10 -73 15 -73 5 0 9 6 9 14 0 30 42 391 46 395 7 7 10 0 36 -79 l25 -75 6 55
c3 30 11 105 16 165 6 61 16 149 22 198 l12 87 69 0 68 0 0 -30 c0 -17 7 -126
15 -243 25 -357 33 -379 55 -152 13 131 33 202 51 174 5 -8 9 -25 9 -39 0 -15
4 -20 9 -15 8 8 41 208 41 247 0 6 2 9 4 7 3 -3 12 -65 21 -139 9 -74 19 -142
22 -150 10 -23 21 73 22 188 1 61 5 102 11 102 6 0 10 -22 10 -49 0 -49 15
-78 22 -44 8 36 18 -110 28 -412 6 -170 15 -314 20 -319 7 -7 10 -5 10 5 0
100 24 349 39 404 10 39 22 120 26 180 l8 110 14 -50 c7 -27 18 -93 23 -145
20 -199 30 -211 49 -60 11 89 31 341 31 398 l0 32 101 0 101 0 -6 73 c-4 39
-13 128 -21 197 -8 69 -19 251 -25 405 -12 318 -28 556 -39 568 -4 4 -13 -36
-20 -90z"/>
<path d="M3127 4030 c-14 -227 -20 -282 -27 -270 -4 7 -11 51 -14 99 -12 157
-18 205 -26 190 -9 -16 -14 -103 -35 -519 -22 -441 -28 -500 -50 -478 -4 3
-12 66 -19 139 -7 74 -17 143 -24 155 -6 11 -14 86 -18 167 -4 81 -10 147 -14
147 -4 0 -11 -32 -15 -72 -3 -40 -13 -81 -21 -92 l-14 -21 -6 23 c-4 12 -10
22 -15 22 -5 0 -9 -1 -9 -2 -1 -2 -7 -100 -15 -218 -7 -118 -16 -223 -20 -232
-5 -12 -18 -18 -40 -18 l-32 0 -7 87 c-10 132 -25 131 -41 -2 -11 -86 -10 -85
-69 -85 l-54 0 -7 136 c-4 81 -11 131 -16 123 -6 -11 -9 -11 -13 1 -5 15 -26
341 -26 402 0 17 -2 29 -5 26 -3 -3 -10 -88 -16 -189 -12 -226 -18 -282 -29
-253 -5 11 -13 63 -20 114 -12 101 -16 116 -24 79 -11 -57 -36 -241 -37 -276
-1 -64 -15 -9 -29 114 -7 62 -16 110 -20 108 -4 -3 -11 -25 -14 -50 -11 -70
-22 -46 -29 61 -4 54 -11 102 -17 108 -7 7 -10 5 -10 -6 0 -25 -27 -43 -44
-29 -19 16 -22 -7 -37 -261 l-13 -208 -72 0 -72 0 -7 86 c-5 54 -11 81 -16 73
-5 -8 -9 -30 -9 -49 0 -19 -3 -52 -6 -72 -6 -37 -8 -38 -50 -38 -42 0 -43 1
-49 35 -3 19 -7 51 -11 70 -3 20 -9 33 -13 30 -5 -2 -9 82 -10 188 -1 222 -11
406 -21 412 -8 5 -30 -192 -30 -263 0 -51 -15 -55 -24 -7 -4 19 -11 35 -16 35
-6 0 -10 -3 -10 -7 -1 -5 -8 -55 -16 -113 -8 -58 -19 -143 -25 -190 -5 -47
-14 -119 -20 -160 -19 -137 25 -901 51 -885 11 7 19 107 31 380 5 132 17 272
25 310 7 39 14 84 14 102 0 44 9 63 30 63 16 0 19 -14 25 -130 4 -71 11 -130
16 -130 5 0 9 16 9 35 0 19 5 35 10 35 6 0 10 -12 10 -27 1 -98 21 -530 26
-550 13 -49 24 2 34 154 15 237 22 303 30 303 5 0 11 35 15 78 4 42 10 90 14
106 l7 29 12 -39 c7 -21 18 -159 26 -306 8 -147 20 -276 25 -287 6 -11 11 -45
11 -77 0 -185 23 101 55 679 l7 127 48 0 c45 0 48 -2 54 -31 3 -17 6 -52 7
-78 1 -68 17 -22 18 52 1 67 14 74 28 15 l9 -43 8 43 c6 31 12 42 26 42 16 0
19 -15 25 -165 4 -91 11 -167 15 -170 3 -2 14 58 24 133 9 75 20 152 23 170 6
35 23 44 23 13 0 -11 5 -23 10 -26 6 -4 10 5 10 19 0 22 5 26 28 26 l28 0 12
-117 c7 -65 17 -194 22 -288 5 -93 13 -226 17 -295 l7 -125 8 110 c17 235 32
375 40 375 4 0 8 -13 8 -29 0 -58 18 -39 25 26 4 37 15 108 24 157 21 108 25
100 42 -109 13 -164 23 -202 33 -135 12 85 25 255 26 343 l0 87 84 0 84 0 6
-31 c3 -17 6 -46 6 -65 0 -57 20 -134 36 -134 8 0 14 -4 14 -10 0 -19 18 -10
24 13 3 12 11 68 17 125 l12 102 53 0 c42 0 54 -4 58 -17 7 -24 24 -266 36
-508 20 -412 21 -425 35 -425 8 0 15 22 20 63 5 46 9 57 15 42 5 -11 9 -31 10
-45 1 -17 6 -9 15 25 18 67 35 265 36 417 0 78 4 116 9 103 5 -11 9 -42 9 -70
1 -92 25 -304 33 -299 4 3 8 47 9 97 0 51 4 110 8 132 l9 40 1 -34 c0 -19 3
-32 6 -29 3 3 10 103 15 224 14 298 11 284 64 284 l43 0 7 -46 c3 -26 6 -66 6
-90 0 -24 5 -44 10 -44 6 0 10 15 10 33 0 17 3 43 7 57 6 24 7 23 19 -10 l12
-35 2 45 c7 167 35 49 50 -210 9 -151 34 -357 44 -368 6 -5 14 65 21 183 4 55
15 183 26 285 10 102 19 188 19 193 0 4 17 7 39 7 l38 0 7 -97 c12 -172 26
-553 26 -706 l0 -148 32 3 c28 3 33 8 40 38 21 93 38 264 44 455 3 116 10 228
14 250 l7 40 8 -42 c4 -24 11 -40 16 -38 9 6 17 -35 22 -105 l3 -45 7 40 c5
22 13 49 19 60 6 10 13 81 16 157 l5 138 -121 0 -120 0 -6 28 c-18 86 -48 463
-62 767 -3 83 -10 168 -13 190 -7 36 -8 32 -14 -40 -4 -44 -12 -204 -18 -355
-6 -151 -14 -311 -19 -355 l-7 -80 -2 95 c-4 187 -24 283 -51 240 -5 -8 -10
-33 -10 -55 0 -22 -7 -67 -15 -100 -8 -33 -18 -108 -22 -167 -3 -59 -10 -105
-14 -102 -5 3 -9 17 -9 32 0 15 -7 47 -16 71 -9 28 -19 113 -25 225 -14 249
-22 331 -34 331 -5 0 -14 -17 -19 -38 -6 -24 -14 -36 -22 -33 -8 3 -15 -6 -18
-22 -8 -37 -24 -283 -32 -474 l-6 -158 -134 0 c-131 0 -134 1 -138 23 -6 27
-22 372 -36 757 -6 157 -12 292 -14 300 -1 8 -5 -37 -9 -100z"/>
<path d="M7611 4060 c-24 -57 -73 -473 -91 -785 -14 -242 -9 -225 -75 -225
-52 0 -55 1 -55 24 0 14 -4 28 -10 31 -6 4 -10 -7 -10 -24 0 -17 -4 -31 -10
-31 -5 0 -10 19 -10 43 0 49 -15 81 -23 51 -3 -11 -9 -36 -13 -56 -6 -38 -6
-38 -55 -38 -58 0 -54 -15 -68 210 -10 168 -20 221 -45 255 -14 19 -16 19 -32
3 -14 -14 -18 -43 -22 -167 -3 -83 -8 -151 -12 -151 -5 0 -11 66 -15 148 -8
166 -21 312 -24 267 -14 -194 -29 -350 -30 -310 -4 122 -28 275 -47 296 -11
13 -22 50 -30 102 -20 138 -46 272 -53 280 -4 4 -13 -64 -19 -150 -6 -87 -24
-299 -39 -470 l-27 -313 -58 0 c-58 0 -58 0 -58 30 0 17 -4 30 -10 30 -5 0
-10 -13 -10 -30 0 -30 0 -30 -60 -30 -72 0 -64 -23 -80 245 -7 110 -15 220
-19 245 l-7 45 -8 -55 c-7 -47 -10 -51 -16 -30 -5 14 -9 41 -10 60 -1 29 -3
32 -10 14 -4 -11 -11 -109 -15 -218 -4 -109 -11 -192 -15 -185 -4 8 -13 84
-20 169 -7 85 -16 159 -20 163 -7 8 -20 -137 -20 -231 0 -116 -8 -38 -20 196
-7 133 -16 242 -20 242 -4 0 -11 -16 -14 -36 -4 -19 -13 -37 -20 -40 -8 -3
-16 -18 -19 -33 -4 -17 -14 -31 -26 -34 -16 -4 -20 -17 -26 -83 -11 -121 -33
-285 -39 -291 -7 -8 -13 11 -21 72 -9 64 -20 40 -30 -67 -4 -41 -11 -81 -16
-89 -7 -12 -9 -12 -9 1 0 8 -5 47 -10 85 -20 138 -24 145 -53 96 -13 -23 -47
-188 -47 -233 0 -5 -27 -8 -59 -8 -67 0 -71 4 -72 83 0 29 -4 72 -8 97 -8 46
-12 42 -24 -25 -2 -11 -7 9 -11 45 -19 172 -26 177 -37 28 -4 -57 -11 -132
-15 -168 -11 -96 -21 -44 -30 150 -4 88 -10 160 -14 160 -4 0 -11 -53 -16
-117 -8 -122 -9 -122 -30 2 l-7 40 -11 -32 c-6 -17 -14 -34 -17 -38 -4 -3 -19
47 -33 112 -44 191 -42 187 -49 128 -4 -27 -14 -88 -22 -135 -8 -47 -17 -121
-21 -165 -3 -44 -13 -90 -20 -102 -8 -12 -14 -31 -14 -43 0 -16 -6 -20 -34
-20 -40 0 -42 5 -51 170 -7 140 -44 460 -54 478 -10 17 -15 -36 -36 -348 -22
-316 -18 -300 -59 -300 l-34 0 -6 218 c-9 258 -22 390 -40 412 -8 8 -18 37
-22 65 -12 85 -20 26 -33 -240 -6 -137 -15 -268 -18 -290 -6 -36 -7 -38 -14
-15 -4 14 -7 62 -8 107 -1 45 -5 84 -9 87 -8 5 -30 -200 -33 -310 -2 -38 -2
-38 -9 11 -5 28 -9 86 -9 130 -1 69 -11 187 -37 433 -7 61 -24 87 -24 36 0
-21 -3 -24 -14 -15 -15 13 -16 9 -37 -161 -11 -98 -29 -124 -29 -45 0 23 -4
48 -9 55 -5 8 -13 -47 -19 -135 -7 -81 -17 -192 -23 -245 l-11 -98 -58 0 -58
0 -7 163 c-6 156 -28 297 -45 297 -4 0 -11 -30 -15 -67 -4 -38 -13 -90 -22
-118 -23 -78 -26 -83 -31 -52 -2 15 -10 27 -18 27 -11 0 -14 19 -15 88 -1 48
-5 101 -9 117 l-8 30 -1 -30 c-1 -16 -5 -36 -10 -43 -5 -8 -10 22 -14 75 -11
153 -30 296 -37 282 -4 -8 -10 -81 -13 -164 -8 -170 -16 -247 -27 -240 -5 3
-11 44 -15 90 -4 47 -9 84 -11 82 -2 -2 -8 -95 -14 -208 -14 -289 -19 -329
-36 -329 -8 0 -14 10 -14 23 0 108 -35 451 -60 582 -10 55 -21 134 -25 175
-12 156 -17 186 -25 164 -10 -26 -36 -254 -60 -534 -11 -124 -25 -259 -31
-301 -17 -107 -15 -109 74 -109 l73 0 3 -42 c2 -44 38 -219 47 -227 2 -2 4 7
5 20 0 22 1 22 9 4 4 -11 16 -123 25 -250 19 -249 28 -298 40 -228 8 49 24 65
32 34 6 -23 23 -29 23 -8 0 17 58 593 66 650 3 28 11 47 19 47 9 0 14 -46 20
-187 12 -290 36 -433 56 -337 7 28 7 28 14 7 10 -32 25 -29 26 5 0 15 3 21 6
15 13 -35 22 -1 28 115 4 70 10 143 15 162 l7 35 7 -45 c3 -25 13 -92 21 -149
25 -175 32 -159 50 105 8 129 17 210 24 212 6 2 11 17 11 33 0 29 0 29 59 29
l59 0 7 -58 c9 -83 21 -94 30 -30 4 29 10 44 12 33 13 -67 15 -71 23 -50 4 12
10 -24 14 -90 10 -150 23 -241 51 -365 14 -58 26 -121 28 -140 5 -61 14 -11
31 179 16 173 33 251 54 251 5 0 17 -71 27 -157 9 -87 20 -178 24 -203 l8 -45
6 35 c4 19 16 125 27 235 23 226 27 248 39 240 13 -7 19 14 27 94 6 60 9 71
25 71 16 0 19 -8 19 -49 0 -91 20 -456 27 -481 5 -21 8 -16 18 30 7 31 13 44
14 30 3 -58 19 -50 25 11 5 49 25 404 26 452 0 4 45 7 100 7 91 0 100 -2 100
-18 0 -11 8 -29 19 -41 13 -15 22 -50 30 -119 22 -185 21 -180 41 -175 14 4
19 -3 25 -37 4 -23 13 -44 21 -47 7 -3 19 -31 25 -64 6 -32 15 -59 18 -59 4 0
18 25 31 56 14 31 26 49 28 40 4 -20 22 -21 22 -1 0 34 20 12 21 -22 0 -21 4
-47 8 -58 9 -22 17 86 27 368 6 157 9 177 24 177 14 0 17 -11 19 -62 5 -158
41 -342 41 -212 0 74 17 90 26 24 11 -85 22 -32 25 119 l2 131 83 0 c56 0 84
-4 87 -12 4 -10 6 -10 6 0 1 6 5 12 10 12 5 0 11 -51 15 -112 15 -265 18 -289
31 -278 19 16 25 0 32 -80 3 -39 8 -68 10 -66 3 2 11 57 18 121 8 64 18 122
23 128 5 7 13 39 17 71 8 68 19 104 28 90 8 -14 25 -157 32 -279 4 -55 13
-134 21 -175 9 -41 18 -141 21 -222 3 -82 10 -148 14 -148 5 0 9 10 9 23 0 41
21 332 26 355 2 13 8 20 13 18 11 -7 20 70 28 251 6 159 23 201 23 60 0 -48 9
-116 20 -162 11 -44 20 -92 20 -107 0 -16 4 -28 9 -28 5 0 12 71 15 158 3 86
11 182 17 212 5 30 15 81 21 113 l12 57 102 0 102 0 7 -76 c5 -46 11 -71 16
-63 4 7 10 11 13 9 2 -3 11 -126 20 -275 17 -273 22 -321 36 -330 10 -6 30
106 30 166 0 55 48 491 55 497 3 3 5 -27 5 -67 0 -41 6 -87 15 -108 10 -23 19
-101 26 -227 13 -249 20 -338 25 -334 2 2 9 57 15 121 7 64 16 117 20 117 5 0
9 -11 9 -25 0 -14 4 -25 9 -25 10 0 17 58 26 195 10 158 16 215 25 215 11 0
18 -34 30 -150 14 -138 21 -173 30 -163 17 17 50 212 62 366 l12 157 103 0
103 0 0 38 c0 94 -14 235 -21 217 -6 -15 -8 -9 -8 20 -5 211 -47 717 -62 745
-6 11 -10 9 -18 -10z"/>
<path d="M8291 3818 c-37 -374 -44 -426 -51 -393 -7 30 -15 23 -22 -18 -2 -10
-7 -17 -12 -15 -15 5 -25 -47 -31 -166 -10 -180 -8 -176 -59 -176 l-43 0 -13
113 c-13 117 -47 327 -54 335 -8 8 -16 -62 -26 -247 -5 -100 -7 -187 -4 -192
3 -5 -14 -9 -38 -9 l-44 0 -11 78 c-7 42 -18 125 -24 185 -6 59 -15 107 -19
107 -3 0 -12 -36 -19 -81 -15 -96 -19 -109 -36 -109 -16 0 -25 -32 -25 -97 0
-62 -7 -83 -27 -83 -12 0 -14 -12 -9 -67 3 -38 16 -176 27 -308 12 -132 25
-246 29 -254 4 -8 14 24 22 80 14 82 16 90 23 61 5 -23 16 -37 33 -43 14 -5
27 -8 29 -6 2 3 10 35 17 73 l12 69 7 -85 c4 -47 7 -111 7 -142 0 -86 16 -70
24 24 9 109 22 129 30 47 4 -35 10 -82 14 -104 6 -37 7 -34 13 35 4 41 10 167
14 280 4 113 11 208 14 213 8 8 31 -222 31 -303 0 -55 19 -126 30 -114 22 23
70 324 82 507 l2 37 116 0 115 0 3 -143 c3 -218 19 -369 39 -384 44 -33 51
-10 83 263 22 190 34 147 44 -157 3 -86 10 -167 15 -180 8 -22 9 -21 16 16 17
101 18 104 26 50 4 -27 8 -86 9 -130 1 -44 5 -91 9 -105 9 -28 18 79 26 310
10 272 17 374 25 359 9 -15 25 -123 36 -233 4 -38 13 -81 20 -95 8 -14 17 -41
20 -59 11 -57 21 -44 34 41 6 45 18 116 25 157 8 41 17 123 20 183 l7 107 54
0 54 0 0 -69 c0 -39 5 -73 10 -76 6 -4 10 22 10 69 l0 76 44 0 c40 0 45 -3 55
-30 5 -16 14 -30 20 -30 5 0 15 -17 22 -37 7 -21 20 -50 29 -66 17 -27 19 -27
28 -11 6 11 13 16 16 13 9 -8 36 -178 36 -224 0 -23 3 -71 7 -106 8 -80 21
-54 22 46 2 122 18 51 26 -110 11 -246 20 -243 34 15 14 274 23 392 27 387 2
-2 15 -70 29 -151 15 -89 31 -153 40 -162 8 -9 15 -26 15 -40 0 -13 4 -24 9
-24 4 0 12 37 16 83 3 45 12 89 20 97 7 9 15 56 19 110 3 52 9 128 13 168 l6
72 87 0 86 0 12 -114 c7 -62 15 -163 18 -222 4 -60 10 -117 14 -128 6 -16 8
-16 24 9 12 19 25 89 44 241 l27 214 33 0 32 0 1 -137 c1 -176 11 -292 27
-302 9 -5 15 -69 22 -207 11 -202 18 -289 25 -282 2 2 11 100 20 218 26 361
28 380 35 380 5 0 11 -27 15 -60 4 -33 11 -60 16 -60 5 0 9 5 9 12 0 6 2 9 4
7 3 -3 10 -55 17 -117 7 -62 15 -112 19 -112 4 0 11 33 15 73 3 39 17 146 31
237 13 91 24 200 24 242 0 104 2 108 60 108 l48 0 7 -95 c4 -52 10 -97 15
-100 4 -2 10 26 14 63 10 103 17 132 31 132 9 0 16 -22 20 -67 4 -38 15 -142
25 -233 10 -91 24 -213 30 -272 18 -181 42 -212 53 -73 22 251 60 641 64 645
10 10 23 -28 23 -67 0 -41 13 -58 23 -30 5 15 14 -66 27 -248 12 -157 21 -238
27 -232 2 2 8 55 13 118 14 163 21 204 31 188 5 -8 9 -28 9 -45 0 -21 7 -36
21 -45 13 -9 24 -32 30 -63 10 -53 19 -69 26 -48 3 7 13 21 23 30 23 22 28 56
40 248 6 87 13 167 16 177 5 15 19 17 104 17 l98 0 6 -67 c26 -300 38 -413 48
-442 l11 -34 17 34 c11 20 26 34 36 34 13 0 22 12 29 37 14 52 21 54 29 8 8
-54 23 -51 31 8 3 26 9 65 14 87 l9 40 2 -50 c1 -27 5 -61 9 -75 7 -21 9 -17
14 25 3 28 9 106 12 175 7 158 14 220 26 220 5 0 9 -8 9 -19 0 -10 7 -32 15
-47 8 -16 15 -44 15 -62 0 -65 42 -437 50 -445 4 -5 11 14 15 42 6 41 10 50
20 41 19 -16 21 3 39 450 l1 35 -57 3 c-53 3 -58 5 -58 26 0 41 -20 290 -31
381 -11 95 -18 129 -25 122 -4 -4 -43 -456 -44 -504 0 -19 -5 -23 -34 -23 -32
0 -35 3 -40 38 -3 20 -11 152 -17 292 -6 140 -15 271 -19 290 -7 33 -8 32 -15
-27 -5 -43 -11 -60 -20 -57 -16 6 -23 -37 -30 -186 -6 -122 -23 -303 -32 -333
-16 -59 -37 53 -53 283 -7 94 -20 194 -35 255 -13 55 -27 121 -30 148 -4 26
-11 47 -16 47 -5 0 -9 -6 -9 -12 0 -66 -35 -338 -46 -355 -8 -12 -14 -33 -14
-45 0 -13 -3 -34 -7 -46 -4 -18 -8 -20 -14 -10 -5 8 -9 -13 -9 -52 0 -36 -3
-102 -7 -147 l-6 -83 -72 0 -72 0 -6 103 c-3 56 -10 113 -15 127 l-9 25 -22
-35 c-12 -19 -27 -50 -33 -67 -11 -30 -28 -45 -28 -25 0 5 -9 19 -19 31 -17
19 -20 47 -26 246 -4 124 -11 225 -15 225 -4 0 -11 -30 -15 -67 -8 -80 -15
-100 -25 -83 -12 19 -29 3 -36 -35 -7 -41 -19 -52 -32 -29 -13 23 -18 -12 -34
-215 -7 -94 -15 -156 -19 -145 -13 32 -39 309 -49 509 -11 222 -19 313 -30
320 -4 2 -13 -21 -20 -53 -8 -31 -20 -61 -27 -67 -9 -7 -20 -108 -38 -335 -14
-179 -27 -349 -31 -377 l-5 -53 -65 0 c-49 0 -66 4 -69 15 -16 49 -18 50 -28
18 -9 -31 -13 -33 -56 -33 l-47 0 -17 328 c-16 305 -24 376 -57 492 -27 92
-31 72 -45 -203 -4 -66 -13 -137 -21 -159 -8 -22 -19 -101 -24 -176 -6 -75
-12 -137 -14 -139 -5 -6 -14 59 -27 202 -12 133 -28 195 -29 120 -1 -22 -5
-49 -10 -60 -7 -16 -9 -13 -9 16 -2 85 -30 141 -32 62 0 -21 -4 -47 -8 -58 -6
-15 -10 -5 -15 39 -10 77 -14 85 -36 79 -23 -6 -25 -17 -40 -203 -7 -74 -18
-169 -26 -210 -8 -41 -14 -87 -14 -102 0 -28 0 -28 -70 -28 -54 0 -72 4 -76
15 -4 8 -10 15 -15 15 -5 0 -9 -7 -9 -15 0 -11 -12 -15 -50 -15 l-50 0 0 43
c0 24 -7 66 -15 93 -17 57 -35 241 -35 357 0 42 -4 77 -9 77 -4 0 -12 -27 -15
-61 -5 -45 -11 -59 -21 -55 -13 5 -45 -58 -45 -89 0 -8 -4 -15 -9 -15 -4 0
-14 28 -21 62 -16 85 -28 60 -37 -83 l-7 -114 -9 60 c-5 33 -15 67 -23 76 -8
8 -14 24 -14 35 -1 10 -9 35 -20 54 l-18 35 -10 -25 c-5 -14 -20 -104 -32
-200 -33 -264 -25 -244 -92 -248 l-55 -3 -7 51 c-10 74 -34 63 -61 -27 -5 -20
-13 -23 -53 -23 l-47 0 -14 63 c-7 34 -16 114 -21 177 -9 140 -20 210 -30 210
-5 0 -12 -26 -16 -57 -3 -32 -10 -78 -14 -103 -7 -45 -7 -45 -18 -18 -8 19
-16 26 -27 22 -21 -9 -31 25 -39 136 -4 52 -11 118 -16 145 -5 28 -14 111 -20
185 -14 173 -21 230 -30 230 -3 0 -17 -100 -29 -222z"/>
<path d="M12287 3730 c-3 -8 -11 -78 -17 -155 -10 -125 -26 -232 -29 -197 -2
20 -18 14 -25 -10 -3 -13 -13 -84 -22 -158 -9 -74 -21 -141 -27 -147 -5 -7
-19 -13 -32 -13 -16 0 -25 9 -32 33 l-11 32 -7 -32 c-7 -32 -25 -46 -25 -20 0
7 -7 22 -14 33 -14 18 -15 18 -26 -13 -11 -29 -16 -33 -50 -33 l-37 0 -6 53
c-4 28 -14 79 -23 112 -8 33 -19 112 -24 175 -5 63 -10 120 -10 125 -3 35 -20
-49 -26 -129 -7 -99 -23 -141 -25 -64 0 24 -4 63 -8 88 l-8 45 -6 -35 c-3 -19
-13 -97 -21 -173 -19 -169 -30 -196 -40 -96 -10 118 -38 303 -47 319 -7 12
-10 11 -15 -7 -8 -28 -24 -20 -24 12 0 32 -10 56 -21 49 -5 -3 -9 -14 -9 -25
0 -11 -4 -17 -10 -14 -6 3 -10 -4 -10 -17 0 -13 -4 -29 -9 -37 -6 -10 -11 -1
-16 28 -16 98 -31 19 -41 -219 -3 -74 -7 -147 -9 -162 -4 -28 -4 -28 55 -28
l60 0 0 -31 c0 -17 4 -28 10 -24 6 3 10 17 10 31 0 23 3 25 44 23 l43 -3 13
-85 c18 -132 46 -251 71 -306 19 -42 23 -47 29 -29 5 11 11 52 14 90 10 102
16 135 25 130 6 -4 20 -100 34 -241 2 -11 8 -19 14 -18 8 2 14 -43 19 -140 l8
-142 8 100 c22 300 51 508 75 536 7 8 13 21 13 28 0 7 5 9 10 6 6 -3 10 -27
10 -53 0 -65 16 -88 26 -37 12 68 23 15 30 -151 4 -88 10 -170 14 -184 4 -14
12 65 19 175 16 263 17 274 42 268 16 -4 19 0 19 26 0 26 4 31 25 31 24 0 25
-3 25 -59 0 -33 5 -63 10 -66 6 -4 10 11 10 37 0 73 8 88 45 88 31 0 32 -1 39
-52 3 -29 6 -71 6 -93 0 -60 58 -249 60 -195 1 46 22 153 40 209 11 35 20 79
20 97 0 30 3 34 25 34 24 0 25 -2 25 -67 0 -120 21 -347 36 -386 8 -20 14 -70
15 -110 1 -113 14 -53 34 158 10 105 22 194 26 200 5 5 9 -1 9 -15 0 -38 11
-70 21 -64 5 3 9 -2 9 -10 0 -21 30 -108 43 -124 22 -28 31 26 35 221 l5 197
-116 0 -115 0 -6 63 c-4 34 -11 136 -16 227 -13 212 -21 290 -30 290 -4 0 -10
-55 -14 -122 -8 -137 -21 -171 -31 -82 -13 102 -22 90 -35 -44 -8 -86 -17
-136 -26 -143 -8 -6 -14 -20 -14 -30 0 -11 -4 -19 -10 -19 -5 0 -10 3 -10 8 0
37 -23 179 -31 187 -5 5 -9 26 -9 46 0 20 -7 76 -16 125 -9 49 -19 112 -23
139 -4 28 -10 43 -14 35z"/>
</g>
</svg>
