<svg xmlns="http://www.w3.org/2000/svg" viewBox="0 0 24 24">
  <defs>
    <style>
      .cls-1 {
        fill: #ffb12a;
        opacity: 0;
      }

      .cls-2 {
        fill: #a5a5a5;
      }

      .cls-3 {
        fill: #fff;
      }
    </style>
  </defs>
  <g id="icon_social_YT_24a" transform="translate(-548)">
    <rect id="BOUNDRY" class="cls-1" width="24" height="24" transform="translate(548)"/>
    <g id="icon_YT" transform="translate(540 -30)">
      <path id="Path_145" data-name="Path 145" class="cls-2" d="M31.5,36.645A3.037,3.037,0,0,0,29.368,34.5C27.5,34,20,34,20,34s-7.5,0-9.382.5a3.014,3.014,0,0,0-2.127,2.141A32.244,32.244,0,0,0,8,42.455a31.392,31.392,0,0,0,.5,5.809A3.037,3.037,0,0,0,10.632,50.4c1.868.5,9.368.5,9.368.5s7.5,0,9.382-.5a3.014,3.014,0,0,0,2.127-2.141A32.244,32.244,0,0,0,32,42.455,31.392,31.392,0,0,0,31.5,36.645Z"/>
      <path id="Path_146" data-name="Path 146" class="cls-3" d="M78,76.945V69.8l6.273,3.573Z" transform="translate(-60.455 -30.918)"/>
    </g>
  </g>
</svg>
