<?xml version="1.0" encoding="UTF-8"?>
<svg width="72px" height="50px" viewBox="0 0 72 50" version="1.1" xmlns="http://www.w3.org/2000/svg" xmlns:xlink="http://www.w3.org/1999/xlink">
    <!-- Generator: Sketch 55.2 (78181) - https://sketchapp.com -->
    <title>default-icon</title>
    <desc>Created with Sketch.</desc>
    <g id="Design-Catalogue" stroke="none" stroke-width="1" fill="none" fill-rule="evenodd" stroke-linecap="round" stroke-linejoin="round">
        <g id="default-icon" transform="translate(1.000000, 1.000000)" stroke="#FFFFFF" stroke-width="2">
            <path d="M67.1,47.1 L2.9,47.1 C1.3,47.1 0,45.8 0,44.2 L0,3.8 C0,2.2 1.3,0.9 2.9,0.9 L67.1,0.9 C68.7,0.9 70,2.2 70,3.8 L70,44.2 C70,45.8 68.7,47.1 67.1,47.1 Z" id="Path"></path>
            <g id="Group" transform="translate(6.000000, 9.000000)">
                <g transform="translate(38.000000, 0.000000)">
                    <path d="M9.7,11.1 C8.7,11.9 7.4,12.4 6,12.4 C2.8,12.4 0.2,9.8 0.2,6.6 C0.2,3.4 2.8,0.8 6,0.8 C7.4,0.8 8.7,1.3 9.7,2.1 C8.4,3.2 7.6,4.8 7.6,6.6 C7.6,8.4 8.4,10 9.7,11.1 Z" id="Path"></path>
                    <circle id="Oval" cx="13.4" cy="6.6" r="5.8"></circle>
                </g>
                <g transform="translate(0.000000, 28.000000)" id="Path">
                    <path d="M6.9,1.2 L0.9,1.2"></path>
                    <path d="M18.7,1.2 L12.7,1.2"></path>
                    <path d="M30.6,1.2 L24.6,1.2"></path>
                    <path d="M42.4,1.2 L36.4,1.2"></path>
                    <path d="M54.3,1.2 L48.2,1.2"></path>
                </g>
                <path d="M2.1,3.5 L15.7,3.5" id="Path"></path>
                <path d="M2.1,10 L26,10" id="Path"></path>
            </g>
        </g>
    </g>
</svg>