<?xml version="1.0" ?><!DOCTYPE svg  PUBLIC '-//W3C//DTD SVG 1.1//EN'  'http://www.w3.org/Graphics/SVG/1.1/DTD/svg11.dtd'><svg id="Layer_1" style="enable-background:new 0 0 74 74;" version="1.1" viewBox="0 0 74 74" xml:space="preserve" xmlns="http://www.w3.org/2000/svg" xmlns:xlink="http://www.w3.org/1999/xlink"><style type="text/css">
	.st0{fill:none;stroke:#000000;stroke-width:2;stroke-linecap:round;stroke-linejoin:round;stroke-miterlimit:10;}
	.st1{fill:none;}
</style><g><g><path class="st0" d="M69.1,60.1H4.9c-1.6,0-2.9-1.3-2.9-2.9V16.8c0-1.6,1.3-2.9,2.9-2.9h64.2c1.6,0,2.9,1.3,2.9,2.9v40.4    C72,58.8,70.7,60.1,69.1,60.1z"/></g><g><g><path class="st0" d="M55.7,33.1c-1,0.8-2.3,1.3-3.7,1.3c-3.2,0-5.8-2.6-5.8-5.8c0-3.2,2.6-5.8,5.8-5.8c1.4,0,2.7,0.5,3.7,1.3     c-1.3,1.1-2.1,2.7-2.1,4.5C53.6,30.4,54.4,32,55.7,33.1z"/><circle class="st0" cx="59.4" cy="28.6" r="5.8"/></g><g><line class="st0" x1="14.9" x2="8.9" y1="51.2" y2="51.2"/><line class="st0" x1="26.7" x2="20.7" y1="51.2" y2="51.2"/><line class="st0" x1="38.6" x2="32.6" y1="51.2" y2="51.2"/><line class="st0" x1="50.4" x2="44.4" y1="51.2" y2="51.2"/><line class="st0" x1="62.3" x2="56.2" y1="51.2" y2="51.2"/></g><line class="st0" x1="10.1" x2="23.7" y1="25.5" y2="25.5"/><line class="st0" x1="10.1" x2="34" y1="32" y2="32"/></g></g></svg>